<svg width="4040" height="2212" xmlns="http://www.w3.org/2000/svg" xmlns:xlink="http://www.w3.org/1999/xlink" xml:space="preserve" overflow="hidden"><g transform="translate(197 -22)"><rect x="606" y="1832" width="464" height="186" fill="#C2F1C8"/><rect x="605" y="1913" width="2511" height="317" fill="#C2F1C8"/><rect x="1070" y="27.9998" width="2046" height="428" fill="#FBE3D6"/><rect x="607" y="25.0001" width="464" height="1792" fill="#FBE3D6"/><text font-family="Times New Roman,Times New Roman_MSFontService,sans-serif" font-weight="700" font-size="83" transform="matrix(1 0 0 1 28.3654 533)">Photosensitizers</text><path d="M126.5 255.667C126.5 233.483 217.61 215.5 330 215.5 442.39 215.5 533.5 233.483 533.5 255.667L533.5 416.333C533.5 438.517 442.39 456.5 330 456.5 217.61 456.5 126.5 438.517 126.5 416.333Z" fill="#84E291" fill-rule="evenodd"/><path d="M533.5 255.667C533.5 277.85 442.39 295.833 330 295.833 217.61 295.833 126.5 277.85 126.5 255.667" stroke="#042433" stroke-width="6.875" stroke-miterlimit="8" fill="none" fill-rule="evenodd"/><path d="M126.5 255.667C126.5 233.483 217.61 215.5 330 215.5 442.39 215.5 533.5 233.483 533.5 255.667L533.5 416.333C533.5 438.517 442.39 456.5 330 456.5 217.61 456.5 126.5 438.517 126.5 416.333Z" stroke="#042433" stroke-width="6.875" stroke-miterlimit="8" fill="none" fill-rule="evenodd"/><path d="M126.5 157.667C126.5 135.483 217.61 117.5 330 117.5 442.39 117.5 533.5 135.483 533.5 157.667L533.5 318.333C533.5 340.517 442.39 358.5 330 358.5 217.61 358.5 126.5 340.517 126.5 318.333Z" fill="#96DCF8" fill-rule="evenodd"/><path d="M533.5 157.667C533.5 179.85 442.39 197.833 330 197.833 217.61 197.833 126.5 179.85 126.5 157.667" stroke="#042433" stroke-width="6.875" stroke-miterlimit="8" fill="none" fill-rule="evenodd"/><path d="M126.5 157.667C126.5 135.483 217.61 117.5 330 117.5 442.39 117.5 533.5 135.483 533.5 157.667L533.5 318.333C533.5 340.517 442.39 358.5 330 358.5 217.61 358.5 126.5 340.517 126.5 318.333Z" stroke="#042433" stroke-width="6.875" stroke-miterlimit="8" fill="none" fill-rule="evenodd"/><path d="M126.5 65.6666C126.5 43.4832 217.834 25.4999 330.5 25.4999 443.166 25.4999 534.5 43.4832 534.5 65.6666L534.5 226.333C534.5 248.517 443.166 266.5 330.5 266.5 217.834 266.5 126.5 248.517 126.5 226.333Z" fill="#F6C6AD" fill-rule="evenodd"/><path d="M534.5 65.6666C534.5 87.85 443.166 105.833 330.5 105.833 217.834 105.833 126.5 87.85 126.5 65.6666" stroke="#042433" stroke-width="6.875" stroke-miterlimit="8" fill="none" fill-rule="evenodd"/><path d="M126.5 65.6666C126.5 43.4832 217.834 25.4999 330.5 25.4999 443.166 25.4999 534.5 43.4832 534.5 65.6666L534.5 226.333C534.5 248.517 443.166 266.5 330.5 266.5 217.834 266.5 126.5 248.517 126.5 226.333Z" stroke="#042433" stroke-width="6.875" stroke-miterlimit="8" fill="none" fill-rule="evenodd"/><text font-family="Times New Roman,Times New Roman_MSFontService,sans-serif" font-weight="700" font-size="55" transform="matrix(1 0 0 1 172.762 198)">Training: 64%</text><text font-family="Times New Roman,Times New Roman_MSFontService,sans-serif" font-weight="700" font-size="55" transform="matrix(1 0 0 1 144.883 316)">Validation: 16%</text><text font-family="Times New Roman,Times New Roman_MSFontService,sans-serif" font-weight="700" font-size="55" transform="matrix(1 0 0 1 219.133 421)">Test: 20%</text><path d="M124.5 1290.12C124.5 1303.17 215.61 1313.75 328 1313.75 440.39 1313.75 531.5 1303.17 531.5 1290.12L531.5 1431.87C531.5 1444.92 440.39 1455.5 328 1455.5 215.61 1455.5 124.5 1444.92 124.5 1431.87Z" fill="#C1E5F5" fill-rule="evenodd"/><path d="M124.5 1290.12C124.5 1277.08 215.61 1266.5 328 1266.5 440.39 1266.5 531.5 1277.08 531.5 1290.12 531.5 1303.17 440.39 1313.75 328 1313.75 215.61 1313.75 124.5 1303.17 124.5 1290.12Z" fill="#DAEFF9" fill-rule="evenodd"/><path d="M531.5 1290.12C531.5 1303.17 440.39 1313.75 328 1313.75 215.61 1313.75 124.5 1303.17 124.5 1290.12 124.5 1277.08 215.61 1266.5 328 1266.5 440.39 1266.5 531.5 1277.08 531.5 1290.12L531.5 1431.87C531.5 1444.92 440.39 1455.5 328 1455.5 215.61 1455.5 124.5 1444.92 124.5 1431.87L124.5 1290.12" stroke="#15BECF" stroke-width="6.875" stroke-miterlimit="8" fill="none" fill-rule="evenodd"/><text font-family="Times New Roman,Times New Roman_MSFontService,sans-serif" font-weight="700" font-size="73" transform="matrix(1 0 0 1 200.685 1402)">Solvents</text><path d="M124.5 1593.5C124.5 1611.17 215.61 1625.5 328 1625.5 440.39 1625.5 531.5 1611.17 531.5 1593.5L531.5 1785.5C531.5 1803.17 440.39 1817.5 328 1817.5 215.61 1817.5 124.5 1803.17 124.5 1785.5Z" fill="#F2CFEE" fill-rule="evenodd"/><path d="M124.5 1593.5C124.5 1575.83 215.61 1561.5 328 1561.5 440.39 1561.5 531.5 1575.83 531.5 1593.5 531.5 1611.17 440.39 1625.5 328 1625.5 215.61 1625.5 124.5 1611.17 124.5 1593.5Z" fill="#F7E2F5" fill-rule="evenodd"/><path d="M531.5 1593.5C531.5 1611.17 440.39 1625.5 328 1625.5 215.61 1625.5 124.5 1611.17 124.5 1593.5 124.5 1575.83 215.61 1561.5 328 1561.5 440.39 1561.5 531.5 1575.83 531.5 1593.5L531.5 1785.5C531.5 1803.17 440.39 1817.5 328 1817.5 215.61 1817.5 124.5 1803.17 124.5 1785.5L124.5 1593.5" stroke="#9467BD" stroke-width="6.875" stroke-miterlimit="8" fill="none" fill-rule="evenodd"/><text font-family="Times New Roman,Times New Roman_MSFontService,sans-serif" font-weight="700" font-size="73" transform="matrix(1 0 0 1 163.645 1686)">Reference </text><text font-family="Times New Roman,Times New Roman_MSFontService,sans-serif" font-weight="700" font-size="73" transform="matrix(1 0 0 1 163.645 1774)">compound</text><path d="M126.5 766.667C126.5 744.483 217.61 726.5 330 726.5 442.39 726.5 533.5 744.483 533.5 766.667L533.5 927.333C533.5 949.517 442.39 967.5 330 967.5 217.61 967.5 126.5 949.517 126.5 927.333Z" fill="#96DCF8" fill-rule="evenodd"/><path d="M533.5 766.667C533.5 788.85 442.39 806.833 330 806.833 217.61 806.833 126.5 788.85 126.5 766.667" stroke="#042433" stroke-width="6.875" stroke-miterlimit="8" fill="none" fill-rule="evenodd"/><path d="M126.5 766.667C126.5 744.483 217.61 726.5 330 726.5 442.39 726.5 533.5 744.483 533.5 766.667L533.5 927.333C533.5 949.517 442.39 967.5 330 967.5 217.61 967.5 126.5 949.517 126.5 927.333Z" stroke="#042433" stroke-width="6.875" stroke-miterlimit="8" fill="none" fill-rule="evenodd"/><path d="M126.5 675.667C126.5 653.483 217.834 635.5 330.5 635.5 443.166 635.5 534.5 653.483 534.5 675.667L534.5 836.333C534.5 858.517 443.166 876.5 330.5 876.5 217.834 876.5 126.5 858.517 126.5 836.333Z" fill="#F6C6AD" fill-rule="evenodd"/><path d="M534.5 675.667C534.5 697.85 443.166 715.833 330.5 715.833 217.834 715.833 126.5 697.85 126.5 675.667" stroke="#042433" stroke-width="6.875" stroke-miterlimit="8" fill="none" fill-rule="evenodd"/><path d="M126.5 675.667C126.5 653.483 217.834 635.5 330.5 635.5 443.166 635.5 534.5 653.483 534.5 675.667L534.5 836.333C534.5 858.517 443.166 876.5 330.5 876.5 217.834 876.5 126.5 858.517 126.5 836.333Z" stroke="#042433" stroke-width="6.875" stroke-miterlimit="8" fill="none" fill-rule="evenodd"/><text font-family="Times New Roman,Times New Roman_MSFontService,sans-serif" font-weight="700" font-size="55" transform="matrix(1 0 0 1 172.762 807)">Training: 64%</text><text font-family="Times New Roman,Times New Roman_MSFontService,sans-serif" font-weight="700" font-size="55" transform="matrix(1 0 0 1 144.883 926)">Validation: 16%</text><path d="M127.5 2079.83C127.5 2065.84 218.61 2054.5 331 2054.5 443.39 2054.5 534.5 2065.84 534.5 2079.83L534.5 2181.17C534.5 2195.16 443.39 2206.5 331 2206.5 218.61 2206.5 127.5 2195.16 127.5 2181.17Z" fill="#84E291" fill-rule="evenodd"/><path d="M534.5 2079.83C534.5 2093.82 443.39 2105.17 331 2105.17 218.61 2105.17 127.5 2093.82 127.5 2079.83" stroke="#042433" stroke-width="6.875" stroke-miterlimit="8" fill="none" fill-rule="evenodd"/><path d="M127.5 2079.83C127.5 2065.84 218.61 2054.5 331 2054.5 443.39 2054.5 534.5 2065.84 534.5 2079.83L534.5 2181.17C534.5 2195.16 443.39 2206.5 331 2206.5 218.61 2206.5 127.5 2195.16 127.5 2181.17Z" stroke="#042433" stroke-width="6.875" stroke-miterlimit="8" fill="none" fill-rule="evenodd"/><text font-family="Times New Roman,Times New Roman_MSFontService,sans-serif" font-weight="700" font-size="55" transform="matrix(1 0 0 1 205.273 2176)">Test: 20%</text><path d="M126.5 149.937-49.3333 149.937-45.8958 146.5-45.8958 788.597-49.3333 785.16 117.212 785.16 117.212 792.035-52.7708 792.035-52.7708 143.062 126.5 143.062ZM112.628 774.847 140.128 788.597 112.628 802.347Z" fill="#156082"/><path d="M126.5 149.937-49.3333 149.937-45.8958 146.5-45.8958 2130.85-49.3333 2127.41 104.308 2127.41 104.308 2134.29-52.7708 2134.29-52.7708 143.062 126.5 143.062ZM99.725 2117.1 127.225 2130.85 99.725 2144.6Z" fill="#156082"/><text font-family="Times New Roman,Times New Roman_MSFontService,sans-serif" font-weight="700" font-size="83" transform="matrix(-1.83697e-16 -1 1 -1.83697e-16 -85.505 793)">Data augmentation</text><rect x="736.5" y="429" width="56.4999" height="55.4999" fill="#F6C6AD"/><path d="M793 429 811.5 410.5 811.5 466 793 484.5Z" fill="#C69F8B" fill-rule="evenodd"/><path d="M736.5 429 755 410.5 811.5 410.5 793 429Z" fill="#F8D1BD" fill-rule="evenodd"/><path d="M736.5 429 755 410.5 811.5 410.5 811.5 466 793 484.5 736.5 484.5ZM736.5 429 793 429 811.5 410.5M793 429 793 484.5" stroke="#042433" stroke-width="6.875" stroke-miterlimit="8" fill="none" fill-rule="evenodd"/><rect x="736.5" y="372" width="56.4999" height="55.4999" fill="#F6C6AD"/><path d="M793 372 811.5 353.5 811.5 409 793 427.5Z" fill="#C69F8B" fill-rule="evenodd"/><path d="M736.5 372 755 353.5 811.5 353.5 793 372Z" fill="#F8D1BD" fill-rule="evenodd"/><path d="M736.5 372 755 353.5 811.5 353.5 811.5 409 793 427.5 736.5 427.5ZM736.5 372 793 372 811.5 353.5M793 372 793 427.5" stroke="#042433" stroke-width="6.875" stroke-miterlimit="8" fill="none" fill-rule="evenodd"/><rect x="736.5" y="317.25" width="56.2499" height="56.2503" fill="#F6C6AD"/><path d="M792.75 317.25 811.5 298.5 811.5 354.75 792.75 373.5Z" fill="#C69F8B" fill-rule="evenodd"/><path d="M736.5 317.25 755.25 298.5 811.5 298.5 792.75 317.25Z" fill="#F8D1BD" fill-rule="evenodd"/><path d="M736.5 317.25 755.25 298.5 811.5 298.5 811.5 354.75 792.75 373.5 736.5 373.5ZM736.5 317.25 792.75 317.25 811.5 298.5M792.75 317.25 792.75 373.5" stroke="#042433" stroke-width="6.875" stroke-miterlimit="8" fill="none" fill-rule="evenodd"/><rect x="736.5" y="263" width="56.4999" height="55.4999" fill="#F6C6AD"/><path d="M793 263 811.5 244.5 811.5 300 793 318.5Z" fill="#C69F8B" fill-rule="evenodd"/><path d="M736.5 263 755 244.5 811.5 244.5 793 263Z" fill="#F8D1BD" fill-rule="evenodd"/><path d="M736.5 263 755 244.5 811.5 244.5 811.5 300 793 318.5 736.5 318.5ZM736.5 263 793 263 811.5 244.5M793 263 793 318.5" stroke="#042433" stroke-width="6.875" stroke-miterlimit="8" fill="none" fill-rule="evenodd"/><rect x="736.5" y="205.25" width="56.2499" height="56.2499" fill="#F6C6AD"/><path d="M792.75 205.25 811.5 186.5 811.5 242.75 792.75 261.5Z" fill="#C69F8B" fill-rule="evenodd"/><path d="M736.5 205.25 755.25 186.5 811.5 186.5 792.75 205.25Z" fill="#F8D1BD" fill-rule="evenodd"/><path d="M736.5 205.25 755.25 186.5 811.5 186.5 811.5 242.75 792.75 261.5 736.5 261.5ZM736.5 205.25 792.75 205.25 811.5 186.5M792.75 205.25 792.75 261.5" stroke="#042433" stroke-width="6.875" stroke-miterlimit="8" fill="none" fill-rule="evenodd"/><rect x="736.5" y="146" width="56.4999" height="55.4999" fill="#F6C6AD"/><path d="M793 146 811.5 127.5 811.5 183 793 201.5Z" fill="#C69F8B" fill-rule="evenodd"/><path d="M736.5 146 755 127.5 811.5 127.5 793 146Z" fill="#F8D1BD" fill-rule="evenodd"/><path d="M736.5 146 755 127.5 811.5 127.5 811.5 183 793 201.5 736.5 201.5ZM736.5 146 793 146 811.5 127.5M793 146 793 201.5" stroke="#042433" stroke-width="6.875" stroke-miterlimit="8" fill="none" fill-rule="evenodd"/><rect x="877.5" y="430" width="55.4999" height="55.4999" fill="#96DCF8"/><path d="M933 430 951.5 411.5 951.5 467 933 485.5Z" fill="#79B1C7" fill-rule="evenodd"/><path d="M877.5 430 896 411.5 951.5 411.5 933 430Z" fill="#ABE3F9" fill-rule="evenodd"/><path d="M877.5 430 896 411.5 951.5 411.5 951.5 467 933 485.5 877.5 485.5ZM877.5 430 933 430 951.5 411.5M933 430 933 485.5" stroke="#042433" stroke-width="6.875" stroke-miterlimit="8" fill="none" fill-rule="evenodd"/><rect x="877.5" y="373" width="55.4999" height="55.5003" fill="#96DCF8"/><path d="M933 373 951.5 354.5 951.5 410 933 428.5Z" fill="#79B1C7" fill-rule="evenodd"/><path d="M877.5 373 896 354.5 951.5 354.5 933 373Z" fill="#ABE3F9" fill-rule="evenodd"/><path d="M877.5 373 896 354.5 951.5 354.5 951.5 410 933 428.5 877.5 428.5ZM877.5 373 933 373 951.5 354.5M933 373 933 428.5" stroke="#042433" stroke-width="6.875" stroke-miterlimit="8" fill="none" fill-rule="evenodd"/><rect x="877.5" y="318" width="55.4999" height="56.5" fill="#96DCF8"/><path d="M933 318 951.5 299.5 951.5 356 933 374.5Z" fill="#79B1C7" fill-rule="evenodd"/><path d="M877.5 318 896 299.5 951.5 299.5 933 318Z" fill="#ABE3F9" fill-rule="evenodd"/><path d="M877.5 318 896 299.5 951.5 299.5 951.5 356 933 374.5 877.5 374.5ZM877.5 318 933 318 951.5 299.5M933 318 933 374.5" stroke="#042433" stroke-width="6.875" stroke-miterlimit="8" fill="none" fill-rule="evenodd"/><rect x="877.5" y="264" width="55.4999" height="55.4999" fill="#96DCF8"/><path d="M933 264 951.5 245.5 951.5 301 933 319.5Z" fill="#79B1C7" fill-rule="evenodd"/><path d="M877.5 264 896 245.5 951.5 245.5 933 264Z" fill="#ABE3F9" fill-rule="evenodd"/><path d="M877.5 264 896 245.5 951.5 245.5 951.5 301 933 319.5 877.5 319.5ZM877.5 264 933 264 951.5 245.5M933 264 933 319.5" stroke="#042433" stroke-width="6.875" stroke-miterlimit="8" fill="none" fill-rule="evenodd"/><rect x="877.5" y="206" width="55.5001" height="56.5002" fill="#96DCF8"/><path d="M933 206 951.5 187.5 951.5 244 933 262.5Z" fill="#79B1C7" fill-rule="evenodd"/><path d="M877.5 206 896 187.5 951.5 187.5 933 206Z" fill="#ABE3F9" fill-rule="evenodd"/><path d="M877.5 206 896 187.5 951.5 187.5 951.5 244 933 262.5 877.5 262.5ZM877.5 206 933 206 951.5 187.5M933 206 933 262.5" stroke="#042433" stroke-width="6.875" stroke-miterlimit="8" fill="none" fill-rule="evenodd"/><rect x="877.5" y="147" width="55.4999" height="55.4999" fill="#96DCF8"/><path d="M933 147 951.5 128.5 951.5 184 933 202.5Z" fill="#79B1C7" fill-rule="evenodd"/><path d="M877.5 147 896 128.5 951.5 128.5 933 147Z" fill="#ABE3F9" fill-rule="evenodd"/><path d="M877.5 147 896 128.5 951.5 128.5 951.5 184 933 202.5 877.5 202.5ZM877.5 147 933 147 951.5 128.5M933 147 933 202.5" stroke="#042433" stroke-width="6.875" stroke-miterlimit="8" fill="none" fill-rule="evenodd"/><rect x="737.5" y="1052.25" width="56.2502" height="56.2502" fill="#DCEAF7"/><path d="M793.75 1052.25 812.5 1033.5 812.5 1089.75 793.75 1108.5Z" fill="#B1BCC7" fill-rule="evenodd"/><path d="M737.5 1052.25 756.25 1033.5 812.5 1033.5 793.75 1052.25Z" fill="#E3EEF9" fill-rule="evenodd"/><path d="M737.5 1052.25 756.25 1033.5 812.5 1033.5 812.5 1089.75 793.75 1108.5 737.5 1108.5ZM737.5 1052.25 793.75 1052.25 812.5 1033.5M793.75 1052.25 793.75 1108.5" stroke="#15BECF" stroke-width="6.875" stroke-miterlimit="8" fill="none" fill-rule="evenodd"/><rect x="737.5" y="995.25" width="56.2502" height="56.2503" fill="#DCEAF7"/><path d="M793.75 995.25 812.5 976.5 812.5 1032.75 793.75 1051.5Z" fill="#B1BCC7" fill-rule="evenodd"/><path d="M737.5 995.25 756.25 976.5 812.5 976.5 793.75 995.25Z" fill="#E3EEF9" fill-rule="evenodd"/><path d="M737.5 995.25 756.25 976.5 812.5 976.5 812.5 1032.75 793.75 1051.5 737.5 1051.5ZM737.5 995.25 793.75 995.25 812.5 976.5M793.75 995.25 793.75 1051.5" stroke="#15BECF" stroke-width="6.875" stroke-miterlimit="8" fill="none" fill-rule="evenodd"/><rect x="737.5" y="941.25" width="56.2502" height="56.2503" fill="#DCEAF7"/><path d="M793.75 941.25 812.5 922.5 812.5 978.75 793.75 997.5Z" fill="#B1BCC7" fill-rule="evenodd"/><path d="M737.5 941.25 756.25 922.5 812.5 922.5 793.75 941.25Z" fill="#E3EEF9" fill-rule="evenodd"/><path d="M737.5 941.25 756.25 922.5 812.5 922.5 812.5 978.75 793.75 997.5 737.5 997.5ZM737.5 941.25 793.75 941.25 812.5 922.5M793.75 941.25 793.75 997.5" stroke="#15BECF" stroke-width="6.875" stroke-miterlimit="8" fill="none" fill-rule="evenodd"/><rect x="737.5" y="886.25" width="56.2502" height="56.2503" fill="#DCEAF7"/><path d="M793.75 886.25 812.5 867.5 812.5 923.75 793.75 942.5Z" fill="#B1BCC7" fill-rule="evenodd"/><path d="M737.5 886.25 756.25 867.5 812.5 867.5 793.75 886.25Z" fill="#E3EEF9" fill-rule="evenodd"/><path d="M737.5 886.25 756.25 867.5 812.5 867.5 812.5 923.75 793.75 942.5 737.5 942.5ZM737.5 886.25 793.75 886.25 812.5 867.5M793.75 886.25 793.75 942.5" stroke="#15BECF" stroke-width="6.875" stroke-miterlimit="8" fill="none" fill-rule="evenodd"/><rect x="737.5" y="829" width="56.5002" height="55.5002" fill="#DCEAF7"/><path d="M794 829 812.5 810.5 812.5 866 794 884.5Z" fill="#B1BCC7" fill-rule="evenodd"/><path d="M737.5 829 756 810.5 812.5 810.5 794 829Z" fill="#E3EEF9" fill-rule="evenodd"/><path d="M737.5 829 756 810.5 812.5 810.5 812.5 866 794 884.5 737.5 884.5ZM737.5 829 794 829 812.5 810.5M794 829 794 884.5" stroke="#15BECF" stroke-width="6.875" stroke-miterlimit="8" fill="none" fill-rule="evenodd"/><rect x="737.5" y="769.25" width="56.2502" height="56.2503" fill="#DCEAF7"/><path d="M793.75 769.25 812.5 750.5 812.5 806.75 793.75 825.5Z" fill="#B1BCC7" fill-rule="evenodd"/><path d="M737.5 769.25 756.25 750.5 812.5 750.5 793.75 769.25Z" fill="#E3EEF9" fill-rule="evenodd"/><path d="M737.5 769.25 756.25 750.5 812.5 750.5 812.5 806.75 793.75 825.5 737.5 825.5ZM737.5 769.25 793.75 769.25 812.5 750.5M793.75 769.25 793.75 825.5" stroke="#15BECF" stroke-width="6.875" stroke-miterlimit="8" fill="none" fill-rule="evenodd"/><rect x="737.5" y="1591" width="56.5002" height="55.5001" fill="#F2CFEE"/><path d="M794 1591 812.5 1572.5 812.5 1628 794 1646.5Z" fill="#C3A6BF" fill-rule="evenodd"/><path d="M737.5 1591 756 1572.5 812.5 1572.5 794 1591Z" fill="#F5D8F1" fill-rule="evenodd"/><path d="M737.5 1591 756 1572.5 812.5 1572.5 812.5 1628 794 1646.5 737.5 1646.5ZM737.5 1591 794 1591 812.5 1572.5M794 1591 794 1646.5" stroke="#9467BD" stroke-width="6.875" stroke-miterlimit="8" fill="none" fill-rule="evenodd"/><rect x="737.5" y="1534" width="56.5002" height="55.5001" fill="#F2CFEE"/><path d="M794 1534 812.5 1515.5 812.5 1571 794 1589.5Z" fill="#C3A6BF" fill-rule="evenodd"/><path d="M737.5 1534 756 1515.5 812.5 1515.5 794 1534Z" fill="#F5D8F1" fill-rule="evenodd"/><path d="M737.5 1534 756 1515.5 812.5 1515.5 812.5 1571 794 1589.5 737.5 1589.5ZM737.5 1534 794 1534 812.5 1515.5M794 1534 794 1589.5" stroke="#9467BD" stroke-width="6.875" stroke-miterlimit="8" fill="none" fill-rule="evenodd"/><rect x="737.5" y="1479.25" width="56.2502" height="56.2502" fill="#F2CFEE"/><path d="M793.75 1479.25 812.5 1460.5 812.5 1516.75 793.75 1535.5Z" fill="#C3A6BF" fill-rule="evenodd"/><path d="M737.5 1479.25 756.25 1460.5 812.5 1460.5 793.75 1479.25Z" fill="#F5D8F1" fill-rule="evenodd"/><path d="M737.5 1479.25 756.25 1460.5 812.5 1460.5 812.5 1516.75 793.75 1535.5 737.5 1535.5ZM737.5 1479.25 793.75 1479.25 812.5 1460.5M793.75 1479.25 793.75 1535.5" stroke="#9467BD" stroke-width="6.875" stroke-miterlimit="8" fill="none" fill-rule="evenodd"/><rect x="737.5" y="1425.25" width="56.2502" height="56.2502" fill="#F2CFEE"/><path d="M793.75 1425.25 812.5 1406.5 812.5 1462.75 793.75 1481.5Z" fill="#C3A6BF" fill-rule="evenodd"/><path d="M737.5 1425.25 756.25 1406.5 812.5 1406.5 793.75 1425.25Z" fill="#F5D8F1" fill-rule="evenodd"/><path d="M737.5 1425.25 756.25 1406.5 812.5 1406.5 812.5 1462.75 793.75 1481.5 737.5 1481.5ZM737.5 1425.25 793.75 1425.25 812.5 1406.5M793.75 1425.25 793.75 1481.5" stroke="#9467BD" stroke-width="6.875" stroke-miterlimit="8" fill="none" fill-rule="evenodd"/><rect x="737.5" y="1367.25" width="56.2502" height="56.2502" fill="#F2CFEE"/><path d="M793.75 1367.25 812.5 1348.5 812.5 1404.75 793.75 1423.5Z" fill="#C3A6BF" fill-rule="evenodd"/><path d="M737.5 1367.25 756.25 1348.5 812.5 1348.5 793.75 1367.25Z" fill="#F5D8F1" fill-rule="evenodd"/><path d="M737.5 1367.25 756.25 1348.5 812.5 1348.5 812.5 1404.75 793.75 1423.5 737.5 1423.5ZM737.5 1367.25 793.75 1367.25 812.5 1348.5M793.75 1367.25 793.75 1423.5" stroke="#9467BD" stroke-width="6.875" stroke-miterlimit="8" fill="none" fill-rule="evenodd"/><rect x="737.5" y="1308" width="56.5002" height="55.5001" fill="#F2CFEE"/><path d="M794 1308 812.5 1289.5 812.5 1345 794 1363.5Z" fill="#C3A6BF" fill-rule="evenodd"/><path d="M737.5 1308 756 1289.5 812.5 1289.5 794 1308Z" fill="#F5D8F1" fill-rule="evenodd"/><path d="M737.5 1308 756 1289.5 812.5 1289.5 812.5 1345 794 1363.5 737.5 1363.5ZM737.5 1308 794 1308 812.5 1289.5M794 1308 794 1363.5" stroke="#9467BD" stroke-width="6.875" stroke-miterlimit="8" fill="none" fill-rule="evenodd"/><text font-family="Times New Roman,Times New Roman_MSFontService,sans-serif" font-weight="700" font-size="83" transform="matrix(1 0 0 1 2257.7 194)">Tokenized SMILES</text><path d="M0-3.4375 138.402-3.4375 138.402 464.92 134.965 461.482 178.973 461.482 178.973 468.357 131.527 468.357 131.527 0 134.965 3.4375 0 3.4375ZM174.389 451.17 201.889 464.92 174.389 478.67Z" fill="#156082" transform="matrix(1 0 0 -1 534.5 756.42)"/><path d="M0-3.4375 106.789-3.4375 106.789 446.275 103.352 442.838 183.786 442.838 183.786 449.713 99.914 449.713 99.914 0 103.352 3.4375 0 3.4375ZM179.203 432.525 206.703 446.275 179.203 460.025Z" fill="#156082" transform="matrix(1 0 0 -1 531.5 1360.78)"/><path d="M0-3.4375 95.2866-3.4375 95.2866 196.921 91.8491 193.484 160.782 193.484 160.782 200.359 88.4116 200.359 88.4116 0 91.8491 3.4375 0 3.4375ZM156.198 183.171 183.698 196.921 156.198 210.671Z" fill="#156082" transform="matrix(1 0 0 -1 554.5 1704.42)"/><rect x="1086" y="481" width="2030" height="1408" fill="#F2F2F2"/><rect x="2123" y="146" width="55.5" height="55.4999" fill="#F2CFEE"/><path d="M2123 146 2104.5 127.5 2160 127.5 2178.5 146Z" fill="#C3A6BF" fill-rule="evenodd"/><path d="M2123 201.5 2104.5 183 2104.5 127.5 2123 146Z" fill="#F5D8F1" fill-rule="evenodd"/><path d="M2123 201.5 2104.5 183 2104.5 127.5 2160 127.5 2178.5 146 2178.5 201.5ZM2123 201.5 2123 146 2104.5 127.5M2123 146 2178.5 146" stroke="#9467BD" stroke-width="6.875" stroke-miterlimit="8" fill="none" fill-rule="evenodd"/><rect x="2066" y="146" width="55.5005" height="55.4999" fill="#F2CFEE"/><path d="M2066 146 2047.5 127.5 2103 127.5 2121.5 146Z" fill="#C3A6BF" fill-rule="evenodd"/><path d="M2066 201.5 2047.5 183 2047.5 127.5 2066 146Z" fill="#F5D8F1" fill-rule="evenodd"/><path d="M2066 201.5 2047.5 183 2047.5 127.5 2103 127.5 2121.5 146 2121.5 201.5ZM2066 201.5 2066 146 2047.5 127.5M2066 146 2121.5 146" stroke="#9467BD" stroke-width="6.875" stroke-miterlimit="8" fill="none" fill-rule="evenodd"/><rect x="2011" y="146" width="56.5002" height="55.5002" fill="#F2CFEE"/><path d="M2011 146 1992.5 127.5 2049 127.5 2067.5 146Z" fill="#C3A6BF" fill-rule="evenodd"/><path d="M2011 201.5 1992.5 183 1992.5 127.5 2011 146Z" fill="#F5D8F1" fill-rule="evenodd"/><path d="M2011 201.5 1992.5 183 1992.5 127.5 2049 127.5 2067.5 146 2067.5 201.5ZM2011 201.5 2011 146 1992.5 127.5M2011 146 2067.5 146" stroke="#9467BD" stroke-width="6.875" stroke-miterlimit="8" fill="none" fill-rule="evenodd"/><rect x="1957" y="146" width="55.5002" height="55.4999" fill="#F2CFEE"/><path d="M1957 146 1938.5 127.5 1994 127.5 2012.5 146Z" fill="#C3A6BF" fill-rule="evenodd"/><path d="M1957 201.5 1938.5 183 1938.5 127.5 1957 146Z" fill="#F5D8F1" fill-rule="evenodd"/><path d="M1957 201.5 1938.5 183 1938.5 127.5 1994 127.5 2012.5 146 2012.5 201.5ZM1957 201.5 1957 146 1938.5 127.5M1957 146 2012.5 146" stroke="#9467BD" stroke-width="6.875" stroke-miterlimit="8" fill="none" fill-rule="evenodd"/><rect x="1899" y="146" width="55.4999" height="55.4999" fill="#F2CFEE"/><path d="M1899 146 1880.5 127.5 1936 127.5 1954.5 146Z" fill="#C3A6BF" fill-rule="evenodd"/><path d="M1899 201.5 1880.5 183 1880.5 127.5 1899 146Z" fill="#F5D8F1" fill-rule="evenodd"/><path d="M1899 201.5 1880.5 183 1880.5 127.5 1936 127.5 1954.5 146 1954.5 201.5ZM1899 201.5 1899 146 1880.5 127.5M1899 146 1954.5 146" stroke="#9467BD" stroke-width="6.875" stroke-miterlimit="8" fill="none" fill-rule="evenodd"/><rect x="1839" y="146" width="56.4999" height="55.4999" fill="#F2CFEE"/><path d="M1839 146 1820.5 127.5 1877 127.5 1895.5 146Z" fill="#C3A6BF" fill-rule="evenodd"/><path d="M1839 201.5 1820.5 183 1820.5 127.5 1839 146Z" fill="#F5D8F1" fill-rule="evenodd"/><path d="M1839 201.5 1820.5 183 1820.5 127.5 1877 127.5 1895.5 146 1895.5 201.5ZM1839 201.5 1839 146 1820.5 127.5M1839 146 1895.5 146" stroke="#9467BD" stroke-width="6.875" stroke-miterlimit="8" fill="none" fill-rule="evenodd"/><rect x="1785" y="146" width="56.4999" height="55.4999" fill="#DCEAF7"/><path d="M1785 146 1766.5 127.5 1823 127.5 1841.5 146Z" fill="#B1BCC7" fill-rule="evenodd"/><path d="M1785 201.5 1766.5 183 1766.5 127.5 1785 146Z" fill="#E3EEF9" fill-rule="evenodd"/><path d="M1785 201.5 1766.5 183 1766.5 127.5 1823 127.5 1841.5 146 1841.5 201.5ZM1785 201.5 1785 146 1766.5 127.5M1785 146 1841.5 146" stroke="#15BECF" stroke-width="6.875" stroke-miterlimit="8" fill="none" fill-rule="evenodd"/><rect x="1728" y="146" width="56.4999" height="55.4999" fill="#DCEAF7"/><path d="M1728 146 1709.5 127.5 1766 127.5 1784.5 146Z" fill="#B1BCC7" fill-rule="evenodd"/><path d="M1728 201.5 1709.5 183 1709.5 127.5 1728 146Z" fill="#E3EEF9" fill-rule="evenodd"/><path d="M1728 201.5 1709.5 183 1709.5 127.5 1766 127.5 1784.5 146 1784.5 201.5ZM1728 201.5 1728 146 1709.5 127.5M1728 146 1784.5 146" stroke="#15BECF" stroke-width="6.875" stroke-miterlimit="8" fill="none" fill-rule="evenodd"/><rect x="1674" y="146" width="55.4999" height="55.4999" fill="#DCEAF7"/><path d="M1674 146 1655.5 127.5 1711 127.5 1729.5 146Z" fill="#B1BCC7" fill-rule="evenodd"/><path d="M1674 201.5 1655.5 183 1655.5 127.5 1674 146Z" fill="#E3EEF9" fill-rule="evenodd"/><path d="M1674 201.5 1655.5 183 1655.5 127.5 1711 127.5 1729.5 146 1729.5 201.5ZM1674 201.5 1674 146 1655.5 127.5M1674 146 1729.5 146" stroke="#15BECF" stroke-width="6.875" stroke-miterlimit="8" fill="none" fill-rule="evenodd"/><rect x="1619" y="146" width="56.4999" height="55.4999" fill="#DCEAF7"/><path d="M1619 146 1600.5 127.5 1657 127.5 1675.5 146Z" fill="#B1BCC7" fill-rule="evenodd"/><path d="M1619 201.5 1600.5 183 1600.5 127.5 1619 146Z" fill="#E3EEF9" fill-rule="evenodd"/><path d="M1619 201.5 1600.5 183 1600.5 127.5 1657 127.5 1675.5 146 1675.5 201.5ZM1619 201.5 1619 146 1600.5 127.5M1619 146 1675.5 146" stroke="#15BECF" stroke-width="6.875" stroke-miterlimit="8" fill="none" fill-rule="evenodd"/><rect x="1561" y="146" width="56.4999" height="55.4999" fill="#DCEAF7"/><path d="M1561 146 1542.5 127.5 1599 127.5 1617.5 146Z" fill="#B1BCC7" fill-rule="evenodd"/><path d="M1561 201.5 1542.5 183 1542.5 127.5 1561 146Z" fill="#E3EEF9" fill-rule="evenodd"/><path d="M1561 201.5 1542.5 183 1542.5 127.5 1599 127.5 1617.5 146 1617.5 201.5ZM1561 201.5 1561 146 1542.5 127.5M1561 146 1617.5 146" stroke="#15BECF" stroke-width="6.875" stroke-miterlimit="8" fill="none" fill-rule="evenodd"/><rect x="1502" y="146" width="55.4999" height="55.4999" fill="#DCEAF7"/><path d="M1502 146 1483.5 127.5 1539 127.5 1557.5 146Z" fill="#B1BCC7" fill-rule="evenodd"/><path d="M1502 201.5 1483.5 183 1483.5 127.5 1502 146Z" fill="#E3EEF9" fill-rule="evenodd"/><path d="M1502 201.5 1483.5 183 1483.5 127.5 1539 127.5 1557.5 146 1557.5 201.5ZM1502 201.5 1502 146 1483.5 127.5M1502 146 1557.5 146" stroke="#15BECF" stroke-width="6.875" stroke-miterlimit="8" fill="none" fill-rule="evenodd"/><rect x="1446" y="146" width="55.4999" height="55.4999" fill="#F6C6AD"/><path d="M1446 146 1427.5 127.5 1483 127.5 1501.5 146Z" fill="#C69F8B" fill-rule="evenodd"/><path d="M1446 201.5 1427.5 183 1427.5 127.5 1446 146Z" fill="#F8D1BD" fill-rule="evenodd"/><path d="M1446 201.5 1427.5 183 1427.5 127.5 1483 127.5 1501.5 146 1501.5 201.5ZM1446 201.5 1446 146 1427.5 127.5M1446 146 1501.5 146" stroke="#042433" stroke-width="6.875" stroke-miterlimit="8" fill="none" fill-rule="evenodd"/><rect x="1389" y="146" width="55.4999" height="55.4999" fill="#F6C6AD"/><path d="M1389 146 1370.5 127.5 1426 127.5 1444.5 146Z" fill="#C69F8B" fill-rule="evenodd"/><path d="M1389 201.5 1370.5 183 1370.5 127.5 1389 146Z" fill="#F8D1BD" fill-rule="evenodd"/><path d="M1389 201.5 1370.5 183 1370.5 127.5 1426 127.5 1444.5 146 1444.5 201.5ZM1389 201.5 1389 146 1370.5 127.5M1389 146 1444.5 146" stroke="#042433" stroke-width="6.875" stroke-miterlimit="8" fill="none" fill-rule="evenodd"/><rect x="1334" y="146" width="56.4999" height="55.4999" fill="#F6C6AD"/><path d="M1334 146 1315.5 127.5 1372 127.5 1390.5 146Z" fill="#C69F8B" fill-rule="evenodd"/><path d="M1334 201.5 1315.5 183 1315.5 127.5 1334 146Z" fill="#F8D1BD" fill-rule="evenodd"/><path d="M1334 201.5 1315.5 183 1315.5 127.5 1372 127.5 1390.5 146 1390.5 201.5ZM1334 201.5 1334 146 1315.5 127.5M1334 146 1390.5 146" stroke="#042433" stroke-width="6.875" stroke-miterlimit="8" fill="none" fill-rule="evenodd"/><rect x="1280" y="146" width="55.4999" height="55.4999" fill="#F6C6AD"/><path d="M1280 146 1261.5 127.5 1317 127.5 1335.5 146Z" fill="#C69F8B" fill-rule="evenodd"/><path d="M1280 201.5 1261.5 183 1261.5 127.5 1280 146Z" fill="#F8D1BD" fill-rule="evenodd"/><path d="M1280 201.5 1261.5 183 1261.5 127.5 1317 127.5 1335.5 146 1335.5 201.5ZM1280 201.5 1280 146 1261.5 127.5M1280 146 1335.5 146" stroke="#042433" stroke-width="6.875" stroke-miterlimit="8" fill="none" fill-rule="evenodd"/><rect x="1222" y="146" width="56.4999" height="55.4999" fill="#F6C6AD"/><path d="M1222 146 1203.5 127.5 1260 127.5 1278.5 146Z" fill="#C69F8B" fill-rule="evenodd"/><path d="M1222 201.5 1203.5 183 1203.5 127.5 1222 146Z" fill="#F8D1BD" fill-rule="evenodd"/><path d="M1222 201.5 1203.5 183 1203.5 127.5 1260 127.5 1278.5 146 1278.5 201.5ZM1222 201.5 1222 146 1203.5 127.5M1222 146 1278.5 146" stroke="#042433" stroke-width="6.875" stroke-miterlimit="8" fill="none" fill-rule="evenodd"/><rect x="1163" y="146" width="55.5002" height="55.4999" fill="#F6C6AD"/><path d="M1163 146 1144.5 127.5 1200 127.5 1218.5 146Z" fill="#C69F8B" fill-rule="evenodd"/><path d="M1163 201.5 1144.5 183 1144.5 127.5 1163 146Z" fill="#F8D1BD" fill-rule="evenodd"/><path d="M1163 201.5 1144.5 183 1144.5 127.5 1200 127.5 1218.5 146 1218.5 201.5ZM1163 201.5 1163 146 1144.5 127.5M1163 146 1218.5 146" stroke="#042433" stroke-width="6.875" stroke-miterlimit="8" fill="none" fill-rule="evenodd"/><rect x="3022.25" y="319.25" width="56.2502" height="56.2499" fill="#F2CFEE"/><path d="M3022.25 319.25 3003.5 300.5 3059.75 300.5 3078.5 319.25Z" fill="#C3A6BF" fill-rule="evenodd"/><path d="M3022.25 375.5 3003.5 356.75 3003.5 300.5 3022.25 319.25Z" fill="#F5D8F1" fill-rule="evenodd"/><path d="M3022.25 375.5 3003.5 356.75 3003.5 300.5 3059.75 300.5 3078.5 319.25 3078.5 375.5ZM3022.25 375.5 3022.25 319.25 3003.5 300.5M3022.25 319.25 3078.5 319.25" stroke="#9467BD" stroke-width="6.875" stroke-miterlimit="8" fill="none" fill-rule="evenodd"/><rect x="2965.25" y="319.25" width="56.25" height="56.2499" fill="#F2CFEE"/><path d="M2965.25 319.25 2946.5 300.5 3002.75 300.5 3021.5 319.25Z" fill="#C3A6BF" fill-rule="evenodd"/><path d="M2965.25 375.5 2946.5 356.75 2946.5 300.5 2965.25 319.25Z" fill="#F5D8F1" fill-rule="evenodd"/><path d="M2965.25 375.5 2946.5 356.75 2946.5 300.5 3002.75 300.5 3021.5 319.25 3021.5 375.5ZM2965.25 375.5 2965.25 319.25 2946.5 300.5M2965.25 319.25 3021.5 319.25" stroke="#9467BD" stroke-width="6.875" stroke-miterlimit="8" fill="none" fill-rule="evenodd"/><rect x="2911" y="319" width="55.5" height="56.4999" fill="#F2CFEE"/><path d="M2911 319 2892.5 300.5 2948 300.5 2966.5 319Z" fill="#C3A6BF" fill-rule="evenodd"/><path d="M2911 375.5 2892.5 357 2892.5 300.5 2911 319Z" fill="#F5D8F1" fill-rule="evenodd"/><path d="M2911 375.5 2892.5 357 2892.5 300.5 2948 300.5 2966.5 319 2966.5 375.5ZM2911 375.5 2911 319 2892.5 300.5M2911 319 2966.5 319" stroke="#9467BD" stroke-width="6.875" stroke-miterlimit="8" fill="none" fill-rule="evenodd"/><rect x="2856.25" y="319.25" width="56.25" height="56.2499" fill="#F2CFEE"/><path d="M2856.25 319.25 2837.5 300.5 2893.75 300.5 2912.5 319.25Z" fill="#C3A6BF" fill-rule="evenodd"/><path d="M2856.25 375.5 2837.5 356.75 2837.5 300.5 2856.25 319.25Z" fill="#F5D8F1" fill-rule="evenodd"/><path d="M2856.25 375.5 2837.5 356.75 2837.5 300.5 2893.75 300.5 2912.5 319.25 2912.5 375.5ZM2856.25 375.5 2856.25 319.25 2837.5 300.5M2856.25 319.25 2912.5 319.25" stroke="#9467BD" stroke-width="6.875" stroke-miterlimit="8" fill="none" fill-rule="evenodd"/><rect x="2798.25" y="319.25" width="56.25" height="56.2499" fill="#F2CFEE"/><path d="M2798.25 319.25 2779.5 300.5 2835.75 300.5 2854.5 319.25Z" fill="#C3A6BF" fill-rule="evenodd"/><path d="M2798.25 375.5 2779.5 356.75 2779.5 300.5 2798.25 319.25Z" fill="#F5D8F1" fill-rule="evenodd"/><path d="M2798.25 375.5 2779.5 356.75 2779.5 300.5 2835.75 300.5 2854.5 319.25 2854.5 375.5ZM2798.25 375.5 2798.25 319.25 2779.5 300.5M2798.25 319.25 2854.5 319.25" stroke="#9467BD" stroke-width="6.875" stroke-miterlimit="8" fill="none" fill-rule="evenodd"/><rect x="2739" y="319" width="55.5" height="56.4999" fill="#F2CFEE"/><path d="M2739 319 2720.5 300.5 2776 300.5 2794.5 319Z" fill="#C3A6BF" fill-rule="evenodd"/><path d="M2739 375.5 2720.5 357 2720.5 300.5 2739 319Z" fill="#F5D8F1" fill-rule="evenodd"/><path d="M2739 375.5 2720.5 357 2720.5 300.5 2776 300.5 2794.5 319 2794.5 375.5ZM2739 375.5 2739 319 2720.5 300.5M2739 319 2794.5 319" stroke="#9467BD" stroke-width="6.875" stroke-miterlimit="8" fill="none" fill-rule="evenodd"/><rect x="2687" y="319" width="55.5" height="56.4999" fill="#DCEAF7"/><path d="M2687 319 2668.5 300.5 2724 300.5 2742.5 319Z" fill="#B1BCC7" fill-rule="evenodd"/><path d="M2687 375.5 2668.5 357 2668.5 300.5 2687 319Z" fill="#E3EEF9" fill-rule="evenodd"/><path d="M2687 375.5 2668.5 357 2668.5 300.5 2724 300.5 2742.5 319 2742.5 375.5ZM2687 375.5 2687 319 2668.5 300.5M2687 319 2742.5 319" stroke="#15BECF" stroke-width="6.875" stroke-miterlimit="8" fill="none" fill-rule="evenodd"/><rect x="2630" y="319" width="55.5" height="56.4999" fill="#DCEAF7"/><path d="M2630 319 2611.5 300.5 2667 300.5 2685.5 319Z" fill="#B1BCC7" fill-rule="evenodd"/><path d="M2630 375.5 2611.5 357 2611.5 300.5 2630 319Z" fill="#E3EEF9" fill-rule="evenodd"/><path d="M2630 375.5 2611.5 357 2611.5 300.5 2667 300.5 2685.5 319 2685.5 375.5ZM2630 375.5 2630 319 2611.5 300.5M2630 319 2685.5 319" stroke="#15BECF" stroke-width="6.875" stroke-miterlimit="8" fill="none" fill-rule="evenodd"/><rect x="2575.25" y="319.25" width="56.25" height="56.2499" fill="#DCEAF7"/><path d="M2575.25 319.25 2556.5 300.5 2612.75 300.5 2631.5 319.25Z" fill="#B1BCC7" fill-rule="evenodd"/><path d="M2575.25 375.5 2556.5 356.75 2556.5 300.5 2575.25 319.25Z" fill="#E3EEF9" fill-rule="evenodd"/><path d="M2575.25 375.5 2556.5 356.75 2556.5 300.5 2612.75 300.5 2631.5 319.25 2631.5 375.5ZM2575.25 375.5 2575.25 319.25 2556.5 300.5M2575.25 319.25 2631.5 319.25" stroke="#15BECF" stroke-width="6.875" stroke-miterlimit="8" fill="none" fill-rule="evenodd"/><rect x="2521" y="319" width="55.5" height="56.4999" fill="#DCEAF7"/><path d="M2521 319 2502.5 300.5 2558 300.5 2576.5 319Z" fill="#B1BCC7" fill-rule="evenodd"/><path d="M2521 375.5 2502.5 357 2502.5 300.5 2521 319Z" fill="#E3EEF9" fill-rule="evenodd"/><path d="M2521 375.5 2502.5 357 2502.5 300.5 2558 300.5 2576.5 319 2576.5 375.5ZM2521 375.5 2521 319 2502.5 300.5M2521 319 2576.5 319" stroke="#15BECF" stroke-width="6.875" stroke-miterlimit="8" fill="none" fill-rule="evenodd"/><rect x="2463.25" y="319.25" width="56.25" height="56.2499" fill="#DCEAF7"/><path d="M2463.25 319.25 2444.5 300.5 2500.75 300.5 2519.5 319.25Z" fill="#B1BCC7" fill-rule="evenodd"/><path d="M2463.25 375.5 2444.5 356.75 2444.5 300.5 2463.25 319.25Z" fill="#E3EEF9" fill-rule="evenodd"/><path d="M2463.25 375.5 2444.5 356.75 2444.5 300.5 2500.75 300.5 2519.5 319.25 2519.5 375.5ZM2463.25 375.5 2463.25 319.25 2444.5 300.5M2463.25 319.25 2519.5 319.25" stroke="#15BECF" stroke-width="6.875" stroke-miterlimit="8" fill="none" fill-rule="evenodd"/><rect x="2404" y="319" width="55.5" height="56.4999" fill="#DCEAF7"/><path d="M2404 319 2385.5 300.5 2441 300.5 2459.5 319Z" fill="#B1BCC7" fill-rule="evenodd"/><path d="M2404 375.5 2385.5 357 2385.5 300.5 2404 319Z" fill="#E3EEF9" fill-rule="evenodd"/><path d="M2404 375.5 2385.5 357 2385.5 300.5 2441 300.5 2459.5 319 2459.5 375.5ZM2404 375.5 2404 319 2385.5 300.5M2404 319 2459.5 319" stroke="#15BECF" stroke-width="6.875" stroke-miterlimit="8" fill="none" fill-rule="evenodd"/><rect x="2342" y="319" width="55.4998" height="56.4999" fill="#96DCF8"/><path d="M2342 319 2323.5 300.5 2379 300.5 2397.5 319Z" fill="#79B1C7" fill-rule="evenodd"/><path d="M2342 375.5 2323.5 357 2323.5 300.5 2342 319Z" fill="#ABE3F9" fill-rule="evenodd"/><path d="M2342 375.5 2323.5 357 2323.5 300.5 2379 300.5 2397.5 319 2397.5 375.5ZM2342 375.5 2342 319 2323.5 300.5M2342 319 2397.5 319" stroke="#042433" stroke-width="6.875" stroke-miterlimit="8" fill="none" fill-rule="evenodd"/><rect x="2285" y="319" width="55.4998" height="56.4999" fill="#96DCF8"/><path d="M2285 319 2266.5 300.5 2322 300.5 2340.5 319Z" fill="#79B1C7" fill-rule="evenodd"/><path d="M2285 375.5 2266.5 357 2266.5 300.5 2285 319Z" fill="#ABE3F9" fill-rule="evenodd"/><path d="M2285 375.5 2266.5 357 2266.5 300.5 2322 300.5 2340.5 319 2340.5 375.5ZM2285 375.5 2285 319 2266.5 300.5M2285 319 2340.5 319" stroke="#042433" stroke-width="6.875" stroke-miterlimit="8" fill="none" fill-rule="evenodd"/><rect x="2230.25" y="319.25" width="56.2502" height="56.2499" fill="#96DCF8"/><path d="M2230.25 319.25 2211.5 300.5 2267.75 300.5 2286.5 319.25Z" fill="#79B1C7" fill-rule="evenodd"/><path d="M2230.25 375.5 2211.5 356.75 2211.5 300.5 2230.25 319.25Z" fill="#ABE3F9" fill-rule="evenodd"/><path d="M2230.25 375.5 2211.5 356.75 2211.5 300.5 2267.75 300.5 2286.5 319.25 2286.5 375.5ZM2230.25 375.5 2230.25 319.25 2211.5 300.5M2230.25 319.25 2286.5 319.25" stroke="#042433" stroke-width="6.875" stroke-miterlimit="8" fill="none" fill-rule="evenodd"/><rect x="2176" y="319" width="55.4998" height="56.4999" fill="#96DCF8"/><path d="M2176 319 2157.5 300.5 2213 300.5 2231.5 319Z" fill="#79B1C7" fill-rule="evenodd"/><path d="M2176 375.5 2157.5 357 2157.5 300.5 2176 319Z" fill="#ABE3F9" fill-rule="evenodd"/><path d="M2176 375.5 2157.5 357 2157.5 300.5 2213 300.5 2231.5 319 2231.5 375.5ZM2176 375.5 2176 319 2157.5 300.5M2176 319 2231.5 319" stroke="#042433" stroke-width="6.875" stroke-miterlimit="8" fill="none" fill-rule="evenodd"/><rect x="2118" y="319" width="55.5" height="56.4999" fill="#96DCF8"/><path d="M2118 319 2099.5 300.5 2155 300.5 2173.5 319Z" fill="#79B1C7" fill-rule="evenodd"/><path d="M2118 375.5 2099.5 357 2099.5 300.5 2118 319Z" fill="#ABE3F9" fill-rule="evenodd"/><path d="M2118 375.5 2099.5 357 2099.5 300.5 2155 300.5 2173.5 319 2173.5 375.5ZM2118 375.5 2118 319 2099.5 300.5M2118 319 2173.5 319" stroke="#042433" stroke-width="6.875" stroke-miterlimit="8" fill="none" fill-rule="evenodd"/><rect x="2058.25" y="319.25" width="56.25" height="56.2499" fill="#96DCF8"/><path d="M2058.25 319.25 2039.5 300.5 2095.75 300.5 2114.5 319.25Z" fill="#79B1C7" fill-rule="evenodd"/><path d="M2058.25 375.5 2039.5 356.75 2039.5 300.5 2058.25 319.25Z" fill="#ABE3F9" fill-rule="evenodd"/><path d="M2058.25 375.5 2039.5 356.75 2039.5 300.5 2095.75 300.5 2114.5 319.25 2114.5 375.5ZM2058.25 375.5 2058.25 319.25 2039.5 300.5M2058.25 319.25 2114.5 319.25" stroke="#042433" stroke-width="6.875" stroke-miterlimit="8" fill="none" fill-rule="evenodd"/><text font-family="Times New Roman,Times New Roman_MSFontService,sans-serif" font-weight="700" font-size="83" transform="matrix(1 0 0 1 691.075 590)">SMILES</text><path d="M0-3.4375 88.8881-3.4375 88.8881 93.0352 85.4506 89.5977 187.984 89.5977 187.984 96.4727 82.0131 96.4727 82.0131 0 85.4506 3.4375 0 3.4375ZM183.401 79.2852 210.901 93.0352 183.401 106.785Z" fill="#156082" transform="matrix(1 0 0 -1 951.5 266.535)"/><path d="M0-3.4375 225.268-3.4375 225.268 664.318 221.831 660.881 327.411 660.881 327.411 667.756 218.393 667.756 218.393 0 221.831 3.4375 0 3.4375ZM322.828 650.568 350.328 664.318 322.828 678.068Z" fill="#156082" transform="matrix(1 0 0 -1 812.5 837.819)"/><path d="M0-3.4375 225.228-3.4375 225.228 1202.81 221.791 1199.38 327.331 1199.38 327.331 1206.25 218.353 1206.25 218.353 0 221.791 3.4375 0 3.4375ZM322.747 1189.06 350.247 1202.81 322.747 1216.56Z" fill="#156082" transform="matrix(1 0 0 -1 812.5 1376.31)"/><text font-family="Times New Roman,Times New Roman_MSFontService,sans-serif" font-weight="700" font-size="83" transform="matrix(1 0 0 1 1118.36 1701)">Embedding</text><text font-family="Times New Roman,Times New Roman_MSFontService,sans-serif" font-weight="700" font-size="83" transform="matrix(1 0 0 1 1668.24 1701)">BiLSTM</text><rect x="739.5" y="2158" width="56.4999" height="55.5" fill="#84E291"/><path d="M796 2158 814.5 2139.5 814.5 2195 796 2213.5Z" fill="#6AB675" fill-rule="evenodd"/><path d="M739.5 2158 758 2139.5 814.5 2139.5 796 2158Z" fill="#9CE8A7" fill-rule="evenodd"/><path d="M739.5 2158 758 2139.5 814.5 2139.5 814.5 2195 796 2213.5 739.5 2213.5ZM739.5 2158 796 2158 814.5 2139.5M796 2158 796 2213.5" stroke="#000000" stroke-width="6.875" stroke-miterlimit="8" fill="none" fill-rule="evenodd"/><rect x="739.5" y="2101" width="56.4999" height="55.5" fill="#84E291"/><path d="M796 2101 814.5 2082.5 814.5 2138 796 2156.5Z" fill="#6AB675" fill-rule="evenodd"/><path d="M739.5 2101 758 2082.5 814.5 2082.5 796 2101Z" fill="#9CE8A7" fill-rule="evenodd"/><path d="M739.5 2101 758 2082.5 814.5 2082.5 814.5 2138 796 2156.5 739.5 2156.5ZM739.5 2101 796 2101 814.5 2082.5M796 2101 796 2156.5" stroke="#000000" stroke-width="6.875" stroke-miterlimit="8" fill="none" fill-rule="evenodd"/><rect x="739.5" y="2046.25" width="56.2499" height="56.2499" fill="#84E291"/><path d="M795.75 2046.25 814.5 2027.5 814.5 2083.75 795.75 2102.5Z" fill="#6AB675" fill-rule="evenodd"/><path d="M739.5 2046.25 758.25 2027.5 814.5 2027.5 795.75 2046.25Z" fill="#9CE8A7" fill-rule="evenodd"/><path d="M739.5 2046.25 758.25 2027.5 814.5 2027.5 814.5 2083.75 795.75 2102.5 739.5 2102.5ZM739.5 2046.25 795.75 2046.25 814.5 2027.5M795.75 2046.25 795.75 2102.5" stroke="#000000" stroke-width="6.875" stroke-miterlimit="8" fill="none" fill-rule="evenodd"/><rect x="739.5" y="1992" width="56.4999" height="55.4999" fill="#84E291"/><path d="M796 1992 814.5 1973.5 814.5 2029 796 2047.5Z" fill="#6AB675" fill-rule="evenodd"/><path d="M739.5 1992 758 1973.5 814.5 1973.5 796 1992Z" fill="#9CE8A7" fill-rule="evenodd"/><path d="M739.5 1992 758 1973.5 814.5 1973.5 814.5 2029 796 2047.5 739.5 2047.5ZM739.5 1992 796 1992 814.5 1973.5M796 1992 796 2047.5" stroke="#000000" stroke-width="6.875" stroke-miterlimit="8" fill="none" fill-rule="evenodd"/><rect x="739.5" y="1934.25" width="56.2499" height="56.2502" fill="#84E291"/><path d="M795.75 1934.25 814.5 1915.5 814.5 1971.75 795.75 1990.5Z" fill="#6AB675" fill-rule="evenodd"/><path d="M739.5 1934.25 758.25 1915.5 814.5 1915.5 795.75 1934.25Z" fill="#9CE8A7" fill-rule="evenodd"/><path d="M739.5 1934.25 758.25 1915.5 814.5 1915.5 814.5 1971.75 795.75 1990.5 739.5 1990.5ZM739.5 1934.25 795.75 1934.25 814.5 1915.5M795.75 1934.25 795.75 1990.5" stroke="#000000" stroke-width="6.875" stroke-miterlimit="8" fill="none" fill-rule="evenodd"/><rect x="739.5" y="1875" width="56.4999" height="55.4999" fill="#84E291"/><path d="M796 1875 814.5 1856.5 814.5 1912 796 1930.5Z" fill="#6AB675" fill-rule="evenodd"/><path d="M739.5 1875 758 1856.5 814.5 1856.5 796 1875Z" fill="#9CE8A7" fill-rule="evenodd"/><path d="M739.5 1875 758 1856.5 814.5 1856.5 814.5 1912 796 1930.5 739.5 1930.5ZM739.5 1875 796 1875 814.5 1856.5M796 1875 796 1930.5" stroke="#000000" stroke-width="6.875" stroke-miterlimit="8" fill="none" fill-rule="evenodd"/><rect x="2004.25" y="2065.25" width="56.2502" height="56.2502" fill="#F2CFEE"/><path d="M2004.25 2065.25 1985.5 2046.5 2041.75 2046.5 2060.5 2065.25Z" fill="#C3A6BF" fill-rule="evenodd"/><path d="M2004.25 2121.5 1985.5 2102.75 1985.5 2046.5 2004.25 2065.25Z" fill="#F5D8F1" fill-rule="evenodd"/><path d="M2004.25 2121.5 1985.5 2102.75 1985.5 2046.5 2041.75 2046.5 2060.5 2065.25 2060.5 2121.5ZM2004.25 2121.5 2004.25 2065.25 1985.5 2046.5M2004.25 2065.25 2060.5 2065.25" stroke="#9467BD" stroke-width="6.875" stroke-miterlimit="8" fill="none" fill-rule="evenodd"/><rect x="1947.25" y="2065.25" width="56.2502" height="56.2502" fill="#F2CFEE"/><path d="M1947.25 2065.25 1928.5 2046.5 1984.75 2046.5 2003.5 2065.25Z" fill="#C3A6BF" fill-rule="evenodd"/><path d="M1947.25 2121.5 1928.5 2102.75 1928.5 2046.5 1947.25 2065.25Z" fill="#F5D8F1" fill-rule="evenodd"/><path d="M1947.25 2121.5 1928.5 2102.75 1928.5 2046.5 1984.75 2046.5 2003.5 2065.25 2003.5 2121.5ZM1947.25 2121.5 1947.25 2065.25 1928.5 2046.5M1947.25 2065.25 2003.5 2065.25" stroke="#9467BD" stroke-width="6.875" stroke-miterlimit="8" fill="none" fill-rule="evenodd"/><rect x="1893" y="2065" width="55.5001" height="56.5002" fill="#F2CFEE"/><path d="M1893 2065 1874.5 2046.5 1930 2046.5 1948.5 2065Z" fill="#C3A6BF" fill-rule="evenodd"/><path d="M1893 2121.5 1874.5 2103 1874.5 2046.5 1893 2065Z" fill="#F5D8F1" fill-rule="evenodd"/><path d="M1893 2121.5 1874.5 2103 1874.5 2046.5 1930 2046.5 1948.5 2065 1948.5 2121.5ZM1893 2121.5 1893 2065 1874.5 2046.5M1893 2065 1948.5 2065" stroke="#9467BD" stroke-width="6.875" stroke-miterlimit="8" fill="none" fill-rule="evenodd"/><rect x="1838.25" y="2065.25" width="56.2502" height="56.2502" fill="#F2CFEE"/><path d="M1838.25 2065.25 1819.5 2046.5 1875.75 2046.5 1894.5 2065.25Z" fill="#C3A6BF" fill-rule="evenodd"/><path d="M1838.25 2121.5 1819.5 2102.75 1819.5 2046.5 1838.25 2065.25Z" fill="#F5D8F1" fill-rule="evenodd"/><path d="M1838.25 2121.5 1819.5 2102.75 1819.5 2046.5 1875.75 2046.5 1894.5 2065.25 1894.5 2121.5ZM1838.25 2121.5 1838.25 2065.25 1819.5 2046.5M1838.25 2065.25 1894.5 2065.25" stroke="#9467BD" stroke-width="6.875" stroke-miterlimit="8" fill="none" fill-rule="evenodd"/><rect x="1780.25" y="2065.25" width="56.2501" height="56.2502" fill="#F2CFEE"/><path d="M1780.25 2065.25 1761.5 2046.5 1817.75 2046.5 1836.5 2065.25Z" fill="#C3A6BF" fill-rule="evenodd"/><path d="M1780.25 2121.5 1761.5 2102.75 1761.5 2046.5 1780.25 2065.25Z" fill="#F5D8F1" fill-rule="evenodd"/><path d="M1780.25 2121.5 1761.5 2102.75 1761.5 2046.5 1817.75 2046.5 1836.5 2065.25 1836.5 2121.5ZM1780.25 2121.5 1780.25 2065.25 1761.5 2046.5M1780.25 2065.25 1836.5 2065.25" stroke="#9467BD" stroke-width="6.875" stroke-miterlimit="8" fill="none" fill-rule="evenodd"/><rect x="1721" y="2065" width="55.5001" height="56.5002" fill="#F2CFEE"/><path d="M1721 2065 1702.5 2046.5 1758 2046.5 1776.5 2065Z" fill="#C3A6BF" fill-rule="evenodd"/><path d="M1721 2121.5 1702.5 2103 1702.5 2046.5 1721 2065Z" fill="#F5D8F1" fill-rule="evenodd"/><path d="M1721 2121.5 1702.5 2103 1702.5 2046.5 1758 2046.5 1776.5 2065 1776.5 2121.5ZM1721 2121.5 1721 2065 1702.5 2046.5M1721 2065 1776.5 2065" stroke="#9467BD" stroke-width="6.875" stroke-miterlimit="8" fill="none" fill-rule="evenodd"/><rect x="1666.25" y="2065.25" width="56.2502" height="56.2502" fill="#DCEAF7"/><path d="M1666.25 2065.25 1647.5 2046.5 1703.75 2046.5 1722.5 2065.25Z" fill="#B1BCC7" fill-rule="evenodd"/><path d="M1666.25 2121.5 1647.5 2102.75 1647.5 2046.5 1666.25 2065.25Z" fill="#E3EEF9" fill-rule="evenodd"/><path d="M1666.25 2121.5 1647.5 2102.75 1647.5 2046.5 1703.75 2046.5 1722.5 2065.25 1722.5 2121.5ZM1666.25 2121.5 1666.25 2065.25 1647.5 2046.5M1666.25 2065.25 1722.5 2065.25" stroke="#15BECF" stroke-width="6.875" stroke-miterlimit="8" fill="none" fill-rule="evenodd"/><rect x="1609.25" y="2065.25" width="56.2502" height="56.2502" fill="#DCEAF7"/><path d="M1609.25 2065.25 1590.5 2046.5 1646.75 2046.5 1665.5 2065.25Z" fill="#B1BCC7" fill-rule="evenodd"/><path d="M1609.25 2121.5 1590.5 2102.75 1590.5 2046.5 1609.25 2065.25Z" fill="#E3EEF9" fill-rule="evenodd"/><path d="M1609.25 2121.5 1590.5 2102.75 1590.5 2046.5 1646.75 2046.5 1665.5 2065.25 1665.5 2121.5ZM1609.25 2121.5 1609.25 2065.25 1590.5 2046.5M1609.25 2065.25 1665.5 2065.25" stroke="#15BECF" stroke-width="6.875" stroke-miterlimit="8" fill="none" fill-rule="evenodd"/><rect x="1555.25" y="2065.25" width="56.2502" height="56.2502" fill="#DCEAF7"/><path d="M1555.25 2065.25 1536.5 2046.5 1592.75 2046.5 1611.5 2065.25Z" fill="#B1BCC7" fill-rule="evenodd"/><path d="M1555.25 2121.5 1536.5 2102.75 1536.5 2046.5 1555.25 2065.25Z" fill="#E3EEF9" fill-rule="evenodd"/><path d="M1555.25 2121.5 1536.5 2102.75 1536.5 2046.5 1592.75 2046.5 1611.5 2065.25 1611.5 2121.5ZM1555.25 2121.5 1555.25 2065.25 1536.5 2046.5M1555.25 2065.25 1611.5 2065.25" stroke="#15BECF" stroke-width="6.875" stroke-miterlimit="8" fill="none" fill-rule="evenodd"/><rect x="1501" y="2065" width="55.5001" height="56.5002" fill="#DCEAF7"/><path d="M1501 2065 1482.5 2046.5 1538 2046.5 1556.5 2065Z" fill="#B1BCC7" fill-rule="evenodd"/><path d="M1501 2121.5 1482.5 2103 1482.5 2046.5 1501 2065Z" fill="#E3EEF9" fill-rule="evenodd"/><path d="M1501 2121.5 1482.5 2103 1482.5 2046.5 1538 2046.5 1556.5 2065 1556.5 2121.5ZM1501 2121.5 1501 2065 1482.5 2046.5M1501 2065 1556.5 2065" stroke="#15BECF" stroke-width="6.875" stroke-miterlimit="8" fill="none" fill-rule="evenodd"/><rect x="1443" y="2065" width="55.5001" height="56.5002" fill="#DCEAF7"/><path d="M1443 2065 1424.5 2046.5 1480 2046.5 1498.5 2065Z" fill="#B1BCC7" fill-rule="evenodd"/><path d="M1443 2121.5 1424.5 2103 1424.5 2046.5 1443 2065Z" fill="#E3EEF9" fill-rule="evenodd"/><path d="M1443 2121.5 1424.5 2103 1424.5 2046.5 1480 2046.5 1498.5 2065 1498.5 2121.5ZM1443 2121.5 1443 2065 1424.5 2046.5M1443 2065 1498.5 2065" stroke="#15BECF" stroke-width="6.875" stroke-miterlimit="8" fill="none" fill-rule="evenodd"/><rect x="1383.25" y="2065.25" width="56.2501" height="56.2502" fill="#DCEAF7"/><path d="M1383.25 2065.25 1364.5 2046.5 1420.75 2046.5 1439.5 2065.25Z" fill="#B1BCC7" fill-rule="evenodd"/><path d="M1383.25 2121.5 1364.5 2102.75 1364.5 2046.5 1383.25 2065.25Z" fill="#E3EEF9" fill-rule="evenodd"/><path d="M1383.25 2121.5 1364.5 2102.75 1364.5 2046.5 1420.75 2046.5 1439.5 2065.25 1439.5 2121.5ZM1383.25 2121.5 1383.25 2065.25 1364.5 2046.5M1383.25 2065.25 1439.5 2065.25" stroke="#15BECF" stroke-width="6.875" stroke-miterlimit="8" fill="none" fill-rule="evenodd"/><rect x="1327.25" y="2065.25" width="56.2502" height="56.2502" fill="#84E291"/><path d="M1327.25 2065.25 1308.5 2046.5 1364.75 2046.5 1383.5 2065.25Z" fill="#6AB675" fill-rule="evenodd"/><path d="M1327.25 2121.5 1308.5 2102.75 1308.5 2046.5 1327.25 2065.25Z" fill="#9CE8A7" fill-rule="evenodd"/><path d="M1327.25 2121.5 1308.5 2102.75 1308.5 2046.5 1364.75 2046.5 1383.5 2065.25 1383.5 2121.5ZM1327.25 2121.5 1327.25 2065.25 1308.5 2046.5M1327.25 2065.25 1383.5 2065.25" stroke="#042433" stroke-width="6.875" stroke-miterlimit="8" fill="none" fill-rule="evenodd"/><rect x="1270.25" y="2065.25" width="56.2502" height="56.2502" fill="#84E291"/><path d="M1270.25 2065.25 1251.5 2046.5 1307.75 2046.5 1326.5 2065.25Z" fill="#6AB675" fill-rule="evenodd"/><path d="M1270.25 2121.5 1251.5 2102.75 1251.5 2046.5 1270.25 2065.25Z" fill="#9CE8A7" fill-rule="evenodd"/><path d="M1270.25 2121.5 1251.5 2102.75 1251.5 2046.5 1307.75 2046.5 1326.5 2065.25 1326.5 2121.5ZM1270.25 2121.5 1270.25 2065.25 1251.5 2046.5M1270.25 2065.25 1326.5 2065.25" stroke="#042433" stroke-width="6.875" stroke-miterlimit="8" fill="none" fill-rule="evenodd"/><rect x="1216" y="2065" width="55.5001" height="56.5002" fill="#84E291"/><path d="M1216 2065 1197.5 2046.5 1253 2046.5 1271.5 2065Z" fill="#6AB675" fill-rule="evenodd"/><path d="M1216 2121.5 1197.5 2103 1197.5 2046.5 1216 2065Z" fill="#9CE8A7" fill-rule="evenodd"/><path d="M1216 2121.5 1197.5 2103 1197.5 2046.5 1253 2046.5 1271.5 2065 1271.5 2121.5ZM1216 2121.5 1216 2065 1197.5 2046.5M1216 2065 1271.5 2065" stroke="#042433" stroke-width="6.875" stroke-miterlimit="8" fill="none" fill-rule="evenodd"/><rect x="1161.25" y="2065.25" width="56.2502" height="56.2502" fill="#84E291"/><path d="M1161.25 2065.25 1142.5 2046.5 1198.75 2046.5 1217.5 2065.25Z" fill="#6AB675" fill-rule="evenodd"/><path d="M1161.25 2121.5 1142.5 2102.75 1142.5 2046.5 1161.25 2065.25Z" fill="#9CE8A7" fill-rule="evenodd"/><path d="M1161.25 2121.5 1142.5 2102.75 1142.5 2046.5 1198.75 2046.5 1217.5 2065.25 1217.5 2121.5ZM1161.25 2121.5 1161.25 2065.25 1142.5 2046.5M1161.25 2065.25 1217.5 2065.25" stroke="#042433" stroke-width="6.875" stroke-miterlimit="8" fill="none" fill-rule="evenodd"/><rect x="1103.25" y="2065.25" width="56.2502" height="56.2502" fill="#84E291"/><path d="M1103.25 2065.25 1084.5 2046.5 1140.75 2046.5 1159.5 2065.25Z" fill="#6AB675" fill-rule="evenodd"/><path d="M1103.25 2121.5 1084.5 2102.75 1084.5 2046.5 1103.25 2065.25Z" fill="#9CE8A7" fill-rule="evenodd"/><path d="M1103.25 2121.5 1084.5 2102.75 1084.5 2046.5 1140.75 2046.5 1159.5 2065.25 1159.5 2121.5ZM1103.25 2121.5 1103.25 2065.25 1084.5 2046.5M1103.25 2065.25 1159.5 2065.25" stroke="#042433" stroke-width="6.875" stroke-miterlimit="8" fill="none" fill-rule="evenodd"/><rect x="1044.25" y="2065.25" width="56.2502" height="56.2502" fill="#84E291"/><path d="M1044.25 2065.25 1025.5 2046.5 1081.75 2046.5 1100.5 2065.25Z" fill="#6AB675" fill-rule="evenodd"/><path d="M1044.25 2121.5 1025.5 2102.75 1025.5 2046.5 1044.25 2065.25Z" fill="#9CE8A7" fill-rule="evenodd"/><path d="M1044.25 2121.5 1025.5 2102.75 1025.5 2046.5 1081.75 2046.5 1100.5 2065.25 1100.5 2121.5ZM1044.25 2121.5 1044.25 2065.25 1025.5 2046.5M1044.25 2065.25 1100.5 2065.25" stroke="#042433" stroke-width="6.875" stroke-miterlimit="8" fill="none" fill-rule="evenodd"/><path d="M0-3.4375 106.36-3.4375 106.36 110.617 102.923 107.18 182.928 107.18 182.928 114.055 99.485 114.055 99.485 0 102.923 3.4375 0 3.4375ZM178.345 96.8671 205.845 110.617 178.345 124.367Z" fill="#156082" transform="matrix(1 0 0 -1 534.5 2131.12)"/><path d="M814.5 1998.06 923.438 1998.06 923.438 2074.81 920 2071.38 1002.58 2071.38 1002.58 2078.25 916.562 2078.25 916.562 2001.5 920 2004.94 814.5 2004.94ZM998 2061.06 1025.5 2074.81 998 2088.56Z" fill="#156082"/><path d="M812.5 947.062 922.506 947.062 922.506 2074.7 919.069 2071.26 1002.72 2071.26 1002.72 2078.14 915.631 2078.14 915.631 950.5 919.069 953.937 812.5 953.937ZM998.136 2060.95 1025.64 2074.7 998.136 2088.45Z" fill="#156082"/><path d="M812.5 1485.06 922.466 1485.06 922.466 2074.21 919.028 2070.77 1002.64 2070.77 1002.64 2077.64 915.591 2077.64 915.591 1488.5 919.028 1491.94 812.5 1491.94ZM998.056 2060.46 1025.56 2074.21 998.056 2087.96Z" fill="#156082"/><text font-family="Times New Roman,Times New Roman_MSFontService,sans-serif" font-weight="700" font-size="83" transform="matrix(1 0 0 1 2166.46 2100)">Tokenized SMILES</text><path d="M2296.79 810.075 2299.83 810.331 2303.09 811.147 2306.27 812.455 2309.36 814.214 2312.35 816.388 2315.26 818.952 2318.08 821.884 2320.87 825.204 2326.13 832.73 2331.14 841.546 2335.85 851.5 2340.24 862.485 2344.26 874.392 2347.88 887.108 2351.05 900.522 2353.75 914.519 2355.92 928.986 2357.53 943.807 2358.52 958.868 2358.86 973.975 2359.2 989.007 2359.19 988.858 2360.18 1003.77 2360.17 1003.63 2361.75 1018.31 2361.74 1018.17 2363.89 1032.5 2363.86 1032.36 2366.53 1046.21 2366.5 1046.07 2369.64 1059.34 2369.61 1059.19 2373.18 1071.75 2373.13 1071.59 2377.09 1083.33 2377.03 1083.16 2381.34 1093.96 2381.25 1093.76 2385.86 1103.5 2385.75 1103.27 2390.61 1111.84 2390.13 1111.18 2397.87 1119.4 2392.87 1124.11 2384.84 1115.59 2379.71 1106.56 2374.99 1096.6 2370.61 1085.62 2366.59 1073.71 2362.97 1061 2359.79 1047.58 2357.1 1033.59 2354.93 1019.12 2353.32 1004.3 2352.33 989.237 2351.99 974.13 2351.65 959.098 2351.66 959.247 2350.67 944.332 2350.68 944.476 2349.09 929.796 2349.11 929.937 2346.96 915.61 2346.98 915.75 2344.32 901.894 2344.35 902.036 2341.2 888.768 2341.24 888.916 2337.67 876.353 2337.72 876.512 2333.75 864.772 2333.82 864.947 2329.51 854.148 2329.59 854.345 2324.98 844.604 2325.1 844.832 2320.23 836.268 2320.4 836.539 2315.32 829.268 2315.5 829.506 2312.89 826.392 2313.05 826.57 2310.4 823.824 2310.6 824.016 2307.92 821.652 2308.18 821.854 2305.47 819.887 2305.79 820.093 2303.06 818.537 2303.45 818.73 2300.71 817.6 2301.18 817.756 2298.43 817.068 2298.97 817.158 2296.21 816.926ZM2399.29 1107.8 2414.35 1134.6 2383.87 1130.57Z" fill="#156082"/><path d="M2292.68 1026.07 2298.57 1026.38 2304.57 1027.31 2310.46 1028.81 2316.19 1030.83 2321.72 1033.33 2327.01 1036.27 2332.02 1039.62 2336.7 1043.33 2341.02 1047.37 2344.92 1051.71 2348.37 1056.32 2351.31 1061.15 2353.7 1066.18 2355.48 1071.37 2356.59 1076.7 2356.96 1081.85 2357.31 1086.78 2357.24 1086.32 2358.27 1091.2 2358.15 1090.79 2359.8 1095.6 2359.65 1095.24 2361.88 1099.93 2361.71 1099.62 2364.47 1104.16 2364.29 1103.89 2367.54 1108.23 2367.35 1108 2371.05 1112.11 2370.85 1111.9 2374.95 1115.75 2374.74 1115.56 2379.2 1119.1 2378.97 1118.94 2383.75 1122.13 2383.51 1121.98 2388.55 1124.79 2387.81 1124.48 2393.21 1125.99 2391.36 1132.61 2385.57 1130.99 2380.05 1127.92 2375.04 1124.57 2370.35 1120.86 2366.04 1116.82 2362.13 1112.48 2358.69 1107.88 2355.75 1103.04 2353.36 1098.01 2351.58 1092.82 2350.47 1087.5 2350.1 1082.34 2349.75 1077.42 2349.81 1077.87 2348.79 1072.99 2348.91 1073.4 2347.26 1068.59 2347.41 1068.95 2345.18 1064.26 2345.35 1064.57 2342.58 1060.03 2342.77 1060.3 2339.51 1055.96 2339.71 1056.2 2336.01 1052.08 2336.21 1052.29 2332.11 1048.44 2332.32 1048.63 2327.86 1045.09 2328.09 1045.26 2323.31 1042.07 2323.55 1042.21 2318.51 1039.41 2318.76 1039.53 2313.49 1037.15 2313.77 1037.26 2308.32 1035.34 2308.62 1035.43 2303.04 1034.01 2303.36 1034.08 2297.69 1033.2 2298.03 1033.23 2292.32 1032.93ZM2391.07 1114.86 2414.56 1134.69 2384.59 1141.58Z" fill="#156082"/><path d="M1175.47 806.68 1252.13 806.68 1252.13 881.65 1175.47 881.65Z" fill="#F6C6AD" fill-rule="evenodd"/><path d="M1252.13 806.68 1328.79 806.68 1328.79 881.65 1252.13 881.65Z" fill="#DCEAF7" fill-rule="evenodd"/><path d="M1328.79 806.68 1405.45 806.68 1405.45 881.65 1328.79 881.65Z" fill="#F2CFEE" fill-rule="evenodd"/><path d="M1252.13 804.389 1252.13 883.941" stroke="#000000" stroke-width="4.58333" stroke-linejoin="round" stroke-miterlimit="10" fill="none" fill-rule="evenodd"/><path d="M1328.79 804.389 1328.79 883.941" stroke="#000000" stroke-width="4.58333" stroke-linejoin="round" stroke-miterlimit="10" fill="none" fill-rule="evenodd"/><path d="M1175.47 804.389 1175.47 883.941" stroke="#000000" stroke-width="4.58333" stroke-linejoin="round" stroke-miterlimit="10" fill="none" fill-rule="evenodd"/><path d="M1405.45 804.389 1405.45 883.941" stroke="#000000" stroke-width="4.58333" stroke-linejoin="round" stroke-miterlimit="10" fill="none" fill-rule="evenodd"/><path d="M1173.18 806.68 1407.74 806.68" stroke="#000000" stroke-width="4.58333" stroke-linejoin="round" stroke-miterlimit="10" fill="none" fill-rule="evenodd"/><path d="M1173.18 881.65 1407.74 881.65" stroke="#000000" stroke-width="4.58333" stroke-linejoin="round" stroke-miterlimit="10" fill="none" fill-rule="evenodd"/><path d="M1175.47 1003.96 1252.13 1003.96 1252.13 1078.93 1175.47 1078.93Z" fill="#F6C6AD" fill-rule="evenodd"/><path d="M1252.13 1003.96 1328.79 1003.96 1328.79 1078.93 1252.13 1078.93Z" fill="#DCEAF7" fill-rule="evenodd"/><path d="M1328.79 1003.96 1405.45 1003.96 1405.45 1078.93 1328.79 1078.93Z" fill="#F2CFEE" fill-rule="evenodd"/><path d="M1252.13 1001.67 1252.13 1081.22" stroke="#000000" stroke-width="4.58333" stroke-linejoin="round" stroke-miterlimit="10" fill="none" fill-rule="evenodd"/><path d="M1328.79 1001.67 1328.79 1081.22" stroke="#000000" stroke-width="4.58333" stroke-linejoin="round" stroke-miterlimit="10" fill="none" fill-rule="evenodd"/><path d="M1175.47 1001.67 1175.47 1081.22" stroke="#000000" stroke-width="4.58333" stroke-linejoin="round" stroke-miterlimit="10" fill="none" fill-rule="evenodd"/><path d="M1405.45 1001.67 1405.45 1081.22" stroke="#000000" stroke-width="4.58333" stroke-linejoin="round" stroke-miterlimit="10" fill="none" fill-rule="evenodd"/><path d="M1173.18 1003.96 1407.74 1003.96" stroke="#000000" stroke-width="4.58333" stroke-linejoin="round" stroke-miterlimit="10" fill="none" fill-rule="evenodd"/><path d="M1173.18 1078.93 1407.74 1078.93" stroke="#000000" stroke-width="4.58333" stroke-linejoin="round" stroke-miterlimit="10" fill="none" fill-rule="evenodd"/><path d="M1175.27 1199.04 1251.93 1199.04 1251.93 1274.01 1175.27 1274.01Z" fill="#84E291" fill-rule="evenodd"/><path d="M1251.93 1199.04 1328.59 1199.04 1328.59 1274.01 1251.93 1274.01Z" fill="#DCEAF7" fill-rule="evenodd"/><path d="M1328.59 1199.04 1405.25 1199.04 1405.25 1274.01 1328.59 1274.01Z" fill="#F2CFEE" fill-rule="evenodd"/><path d="M1251.93 1196.74 1251.93 1276.3" stroke="#000000" stroke-width="4.58333" stroke-linejoin="round" stroke-miterlimit="10" fill="none" fill-rule="evenodd"/><path d="M1328.59 1196.74 1328.59 1276.3" stroke="#000000" stroke-width="4.58333" stroke-linejoin="round" stroke-miterlimit="10" fill="none" fill-rule="evenodd"/><path d="M1175.27 1196.74 1175.27 1276.3" stroke="#000000" stroke-width="4.58333" stroke-linejoin="round" stroke-miterlimit="10" fill="none" fill-rule="evenodd"/><path d="M1405.25 1196.74 1405.25 1276.3" stroke="#000000" stroke-width="4.58333" stroke-linejoin="round" stroke-miterlimit="10" fill="none" fill-rule="evenodd"/><path d="M1172.98 1199.04 1407.54 1199.04" stroke="#000000" stroke-width="4.58333" stroke-linejoin="round" stroke-miterlimit="10" fill="none" fill-rule="evenodd"/><path d="M1172.98 1274.01 1407.54 1274.01" stroke="#000000" stroke-width="4.58333" stroke-linejoin="round" stroke-miterlimit="10" fill="none" fill-rule="evenodd"/><path d="M1175.27 1393.53 1251.93 1393.53 1251.93 1468.5 1175.27 1468.5Z" fill="#84E291" fill-rule="evenodd"/><path d="M1251.93 1393.53 1328.59 1393.53 1328.59 1468.5 1251.93 1468.5Z" fill="#DCEAF7" fill-rule="evenodd"/><path d="M1328.59 1393.53 1405.25 1393.53 1405.25 1468.5 1328.59 1468.5Z" fill="#F2CFEE" fill-rule="evenodd"/><path d="M1251.93 1391.24 1251.93 1470.79" stroke="#000000" stroke-width="4.58333" stroke-linejoin="round" stroke-miterlimit="10" fill="none" fill-rule="evenodd"/><path d="M1328.59 1391.24 1328.59 1470.79" stroke="#000000" stroke-width="4.58333" stroke-linejoin="round" stroke-miterlimit="10" fill="none" fill-rule="evenodd"/><path d="M1175.27 1391.24 1175.27 1470.79" stroke="#000000" stroke-width="4.58333" stroke-linejoin="round" stroke-miterlimit="10" fill="none" fill-rule="evenodd"/><path d="M1405.25 1391.24 1405.25 1470.79" stroke="#000000" stroke-width="4.58333" stroke-linejoin="round" stroke-miterlimit="10" fill="none" fill-rule="evenodd"/><path d="M1172.98 1393.53 1407.54 1393.53" stroke="#000000" stroke-width="4.58333" stroke-linejoin="round" stroke-miterlimit="10" fill="none" fill-rule="evenodd"/><path d="M1172.98 1468.5 1407.54 1468.5" stroke="#000000" stroke-width="4.58333" stroke-linejoin="round" stroke-miterlimit="10" fill="none" fill-rule="evenodd"/><path d="M2249 1525.5C2223.87 1525.5 2203.5 1505.13 2203.5 1480 2203.5 1454.87 2223.87 1434.5 2249 1434.5 2274.13 1434.5 2294.5 1454.87 2294.5 1480 2294.5 1505.13 2274.13 1525.5 2249 1525.5Z" stroke="#71AAE0" stroke-width="6.875" stroke-miterlimit="8" fill="none" fill-rule="evenodd"/><path d="M2246.5 1302.5C2221.65 1302.5 2201.5 1282.13 2201.5 1257 2201.5 1231.87 2221.65 1211.5 2246.5 1211.5 2271.35 1211.5 2291.5 1231.87 2291.5 1257 2291.5 1282.13 2271.35 1302.5 2246.5 1302.5Z" stroke="#71AAE0" stroke-width="6.875" stroke-miterlimit="8" fill="none" fill-rule="evenodd"/><path d="M2247.5 1074.5C2222.65 1074.5 2202.5 1054.35 2202.5 1029.5 2202.5 1004.65 2222.65 984.5 2247.5 984.5 2272.35 984.5 2292.5 1004.65 2292.5 1029.5 2292.5 1054.35 2272.35 1074.5 2247.5 1074.5Z" stroke="#71AAE0" stroke-width="6.875" stroke-miterlimit="8" fill="none" fill-rule="evenodd"/><path d="M2251.5 858.5C2226.65 858.5 2206.5 838.353 2206.5 813.5 2206.5 788.647 2226.65 768.5 2251.5 768.5 2276.35 768.5 2296.5 788.647 2296.5 813.5 2296.5 838.353 2276.35 858.5 2251.5 858.5Z" stroke="#71AAE0" stroke-width="6.875" stroke-miterlimit="8" fill="none" fill-rule="evenodd"/><rect x="2418.5" y="921.5" width="140" height="446" stroke="#71AAE0" stroke-width="6.875" stroke-miterlimit="8" fill="none"/><text font-family="Times New Roman,Times New Roman_MSFontService,sans-serif" font-weight="700" font-size="64" transform="matrix(-1.83697e-16 -1 1 -1.83697e-16 2508.03 1279)">A</text><text font-family="Times New Roman,Times New Roman_MSFontService,sans-serif" font-weight="700" font-size="64" transform="matrix(-1.83697e-16 -1 1 -1.83697e-16 2508.03 1232)">ttention</text><rect x="2637.5" y="893.5" width="140" height="484" stroke="#71AAE0" stroke-width="6.875" stroke-miterlimit="8" fill="none"/><text font-family="Times New Roman,Times New Roman_MSFontService,sans-serif" font-weight="700" font-size="64" transform="matrix(-1.83697e-16 -1 1 -1.83697e-16 2726.63 1315)">Dense layers</text><path d="M2850.5 1081C2850.5 1066.36 2862.36 1054.5 2877 1054.5L3003 1054.5C3017.64 1054.5 3029.5 1066.36 3029.5 1081L3029.5 1187C3029.5 1201.64 3017.64 1213.5 3003 1213.5L2877 1213.5C2862.36 1213.5 2850.5 1201.64 2850.5 1187Z" stroke="#156082" stroke-width="6.875" stroke-miterlimit="8" fill="none" fill-rule="evenodd"/><path d="M2871.5 1134C2871.5 1096.17 2902.17 1065.5 2940 1065.5 2977.83 1065.5 3008.5 1096.17 3008.5 1134 3008.5 1171.83 2977.83 1202.5 2940 1202.5 2902.17 1202.5 2871.5 1171.83 2871.5 1134Z" stroke="#156082" stroke-width="6.875" stroke-miterlimit="8" fill="none" fill-rule="evenodd"/><text font-family="Times New Roman,Times New Roman_MSFontService,sans-serif" font-weight="700" font-size="64" transform="matrix(1 0 0 1 2916.57 1154)">Y</text><path d="M0.304552-3.42398 3.40982-3.14778 6.754-2.26622 10.001-0.856487 13.1438 1.03421 16.1879 3.36849 19.1426 6.11864 22.0162 9.26373 24.8148 12.7868 27.5416 16.6727 30.2168 20.9376 35.2947 30.3621 40.089 41.0503 44.55 52.8492 48.6423 65.6406 52.3268 79.3044 55.5629 93.719 58.3082 108.762 60.5199 124.309 62.1545 140.238 63.1679 156.423 63.5141 172.668 63.8588 188.841 63.8529 188.699 64.8576 204.746 64.8463 204.61 66.4671 220.404 66.4508 220.271 68.6435 235.685 68.6219 235.552 71.3427 250.46 71.3151 250.324 74.5199 264.6 74.4848 264.458 78.1296 277.974 78.0847 277.822 82.1255 290.453 82.0668 290.284 86.4597 301.903 86.3807 301.712 91.0816 312.192 90.9714 311.968 95.9362 321.183 95.8221 320.987 98.3897 325.08 97.8461 324.416 103.674 329.956 98.9373 334.938 92.7957 329.1 89.9377 324.544 84.8598 315.119 80.0656 304.431 75.6046 292.632 71.5124 279.841 67.8278 266.177 64.5919 251.763 61.8465 236.72 59.6348 221.172 58.0003 205.244 56.9869 189.058 56.6407 172.814 56.296 156.641 56.3019 156.782 55.2972 140.735 55.3085 140.871 53.6877 125.078 53.704 125.211 51.5112 109.797 51.5328 109.93 48.812 95.0215 48.8397 95.1573 45.6348 80.8817 45.6699 81.0238 42.0251 67.5073 42.07 67.6597 38.0291 55.0289 38.0878 55.1972 33.6949 43.5785 33.7738 43.7697 29.073 33.2897 29.1832 33.5133 24.2183 24.2985 24.3325 24.4946 21.7648 20.4012 21.863 20.5491 19.2458 16.8194 19.368 16.983 16.7068 13.6329 16.8607 13.8135 14.161 10.8587 14.3566 11.0562 11.6239 8.51268 11.8743 8.72431 9.11405 6.60775 9.43377 6.82548 6.65157 5.15174 7.05459 5.35931 4.2559 4.1442 4.74867 4.31502 1.93897 3.57435 2.51064 3.67438-0.304552 3.42398ZM105.357 318.531 120.154 345.482 89.7152 341.149Z" fill="#156082" transform="matrix(1 0 0 -1 2294.5 1479.98)"/><path d="M0.209567-3.43111 6.16713-3.06723 12.2606-1.97381 18.2288-0.218565 24.0279 2.14575 29.6163 5.06872 34.9527 8.50216 39.9961 12.3998 44.7048 16.7171 49.0363 21.4107 52.9471 26.4383 56.3924 31.7584 59.3258 37.3301 61.6987 43.1126 63.4605 49.0642 64.5581 55.1414 64.9233 61.0815 65.2761 66.8201 65.2278 66.4201 66.2562 72.1139 66.1696 71.7491 67.8285 77.3531 67.7125 77.0238 69.9569 82.4931 69.8185 82.1968 72.6033 87.4865 72.4469 87.2194 75.7272 92.2847 75.5552 92.0426 79.2859 96.8385 79.0987 96.6178 83.2347 101.1 83.0317 100.897 87.528 105.02 87.307 104.833 92.1185 108.552 91.8765 108.381 96.9583 111.651 96.1901 111.282 101.987 113.224 99.8034 119.743 93.5995 117.665 88.0318 114.083 82.9884 110.185 78.2798 105.868 73.9482 101.174 70.0374 96.1465 66.5921 90.8263 63.6588 85.2546 61.2859 79.4721 59.524 73.5206 58.4264 67.4434 58.0613 61.5033 57.7084 55.7647 57.7567 56.1647 56.7283 50.4709 56.815 50.8357 55.1561 45.2317 55.272 45.5609 53.0276 40.0916 53.166 40.388 50.3812 35.0982 50.5376 35.3654 47.2573 30.3001 47.4294 30.5421 43.6987 25.7462 43.8858 25.9669 39.7498 21.4852 39.9528 21.6876 35.4565 17.565 35.6776 17.7512 30.866 14.0327 31.1081 14.2036 26.0262 10.934 26.293 11.0891 20.986 8.31332 21.2814 8.45043 15.7943 6.21332 16.1221 6.32804 10.4999 4.67452 10.8626 4.76014 5.15026 3.73511 5.54783 3.78276-0.209567 3.43111ZM100.138 102.009 122.985 122.585 92.8162 128.516Z" fill="#156082" transform="matrix(1 0 0 -1 2291.5 1257.08)"/><path d="M2561.5 1131.5 2563.13 1131.5 2563.13 1157.5 2561.5 1157.5ZM2564.75 1131.5 2568 1131.5 2568 1157.5 2564.75 1157.5ZM2569.63 1131.5 2613.5 1131.5 2613.5 1118.5 2639.5 1144.5 2613.5 1170.5 2613.5 1157.5 2569.63 1157.5Z" stroke="#042433" stroke-width="6.875" stroke-miterlimit="8" fill="none" fill-rule="evenodd"/><path d="M2771.5 1131.5 2773.13 1131.5 2773.13 1157.5 2771.5 1157.5ZM2774.75 1131.5 2778 1131.5 2778 1157.5 2774.75 1157.5ZM2779.63 1131.5 2823.5 1131.5 2823.5 1118.5 2849.5 1144.5 2823.5 1170.5 2823.5 1157.5 2779.63 1157.5Z" stroke="#042433" stroke-width="6.875" stroke-miterlimit="8" fill="none" fill-rule="evenodd"/><rect x="1535.5" y="740.5" width="285" height="142" stroke="#71AAE0" stroke-width="6.875" stroke-miterlimit="8" fill="none"/><text font-family="Times New Roman,Times New Roman_MSFontService,sans-serif" font-weight="700" font-size="64" transform="matrix(1 0 0 1 1580.09 827)">LSTM</text><rect x="1536.5" y="965.5" width="285" height="141" stroke="#71AAE0" stroke-width="6.875" stroke-miterlimit="8" fill="none"/><text font-family="Times New Roman,Times New Roman_MSFontService,sans-serif" font-weight="700" font-size="64" transform="matrix(1 0 0 1 1581.17 1052)">LSTM</text><rect x="1536.5" y="1187.5" width="285" height="142" stroke="#71AAE0" stroke-width="6.875" stroke-miterlimit="8" fill="none"/><text font-family="Times New Roman,Times New Roman_MSFontService,sans-serif" font-weight="700" font-size="64" transform="matrix(1 0 0 1 1581.17 1274)">LSTM</text><rect x="1533.5" y="1411.5" width="285" height="141" stroke="#71AAE0" stroke-width="6.875" stroke-miterlimit="8" fill="none"/><text font-family="Times New Roman,Times New Roman_MSFontService,sans-serif" font-weight="700" font-size="64" transform="matrix(1 0 0 1 1578.23 1498)">LSTM</text><rect x="1868.5" y="740.5" width="286" height="142" stroke="#71AAE0" stroke-width="6.875" stroke-miterlimit="8" fill="none"/><text font-family="Times New Roman,Times New Roman_MSFontService,sans-serif" font-weight="700" font-size="64" transform="matrix(1 0 0 1 1913.85 827)">LSTM</text><rect x="1869.5" y="965.5" width="286" height="141" stroke="#71AAE0" stroke-width="6.875" stroke-miterlimit="8" fill="none"/><text font-family="Times New Roman,Times New Roman_MSFontService,sans-serif" font-weight="700" font-size="64" transform="matrix(1 0 0 1 1914.93 1052)">LSTM</text><rect x="1869.5" y="1187.5" width="286" height="142" stroke="#71AAE0" stroke-width="6.875" stroke-miterlimit="8" fill="none"/><text font-family="Times New Roman,Times New Roman_MSFontService,sans-serif" font-weight="700" font-size="64" transform="matrix(1 0 0 1 1914.93 1274)">LSTM</text><rect x="1866.5" y="1411.5" width="286" height="141" stroke="#71AAE0" stroke-width="6.875" stroke-miterlimit="8" fill="none"/><text font-family="Times New Roman,Times New Roman_MSFontService,sans-serif" font-weight="700" font-size="64" transform="matrix(1 0 0 1 1911.99 1498)">LSTM</text><path d="M1680.94 882.455 1681.72 942.948 1674.84 943.037 1674.06 882.544ZM1691.97 938.232 1678.58 965.908 1664.47 938.588Z" fill="#156082"/><path d="M1681.94 1106.5 1681.94 1164.76 1675.06 1164.76 1675.06 1106.5ZM1692.25 1160.17 1678.5 1187.67 1664.75 1160.17Z" fill="#156082"/><path d="M1682.94 1328.5 1682.94 1386.76 1676.06 1386.76 1676.06 1328.5ZM1693.25 1382.17 1679.5 1409.67 1665.75 1382.17Z" fill="#156082"/><path d="M2009.14 965.952 2008.36 905.459 2015.23 905.37 2016.02 965.863ZM1998.11 910.175 2011.5 882.5 2025.6 909.82Z" fill="#156082"/><path d="M2007.14 1186.95 2006.36 1126.46 2013.23 1126.37 2014.02 1186.86ZM1996.11 1131.18 2009.5 1103.5 2023.6 1130.82Z" fill="#156082"/><path d="M2007.14 1406.95 2006.36 1346.46 2013.23 1346.37 2014.02 1406.86ZM1996.11 1351.18 2009.5 1323.5 2023.6 1350.82Z" fill="#156082"/><path d="M2154.54 808.063 2183.52 808.379 2183.44 815.254 2154.46 814.937ZM2179.86 797.783 2206.34 813.399 2177.96 825.217Z" fill="#156082"/><path d="M2154.5 1026.06 2178.81 1026.09 2178.8 1032.96 2154.5 1032.94ZM2174.3 1015.75 2201.72 1029.66 2174.14 1043.25Z" fill="#156082"/><path d="M0.0330451-3.43734 22.7697-3.21876 22.7036 3.65592-0.0330451 3.43734ZM18.8143-13.7344 45.6273 1.31148 17.5028 13.7344Z" fill="#156082" transform="matrix(1 0 0 -1 2155.5 1258.81)"/><path d="M0.0410316-3.43726 28.5854-3.09651 28.5033 3.778-0.0410316 3.43726ZM24.9959-13.7119 51.3976 2.04446 22.9514 13.7119Z" fill="#156082" transform="matrix(1 0 0 -1 2152.5 1482.54)"/><path d="M0-3.4375 26.5744-3.4375 26.5744 94.7037 23.1369 91.2662 431.5 91.2662 428.062 94.7037 428.062 59.334 434.937 59.334 434.937 98.1412 19.6994 98.1412 19.6994 0 23.1369 3.4375 0 3.4375ZM417.75 63.9173 431.5 36.4173 445.25 63.9173Z" fill="#156082" transform="matrix(1 0 0 -1 1819.5 804.917)"/><path d="M0-3.4375 26.9276-3.4375 26.9276 103.08 23.4901 99.6422 425.544 99.6422 422.107 103.08 422.107 74.8989 428.982 74.8989 428.982 106.517 20.0526 106.517 20.0526 0 23.4901 3.4375 0 3.4375ZM411.794 79.4822 425.544 51.9822 439.294 79.4822Z" fill="#156082" transform="matrix(1 0 0 -1 1821.5 1036.48)"/><path d="M0-3.4375 33.1311-3.4375 33.1311 106.413 29.6936 102.976 424.619 102.976 421.181 106.413 421.181 69.4548 428.056 69.4548 428.056 109.851 26.2561 109.851 26.2561 0 29.6936 3.4375 0 3.4375ZM410.869 74.0382 424.619 46.5382 438.369 74.0382Z" fill="#156082" transform="matrix(1 0 0 -1 1821.5 1258.04)"/><path d="M0-3.4375 26.9653-3.4375 26.9653 79.3588 23.5278 75.9213 425.612 75.9213 422.174 79.3588 422.174 39.7754 429.049 39.7754 429.049 82.7963 20.0903 82.7963 20.0903 0 23.5278 3.4375 0 3.4375ZM411.862 44.3587 425.612 16.8587 439.362 44.3587Z" fill="#156082" transform="matrix(1 0 0 -1 1823.5 1451.36)"/><path d="M1435.5 836.5 1437.12 836.5 1437.12 862.5 1435.5 862.5ZM1438.75 836.5 1442 836.5 1442 862.5 1438.75 862.5ZM1443.62 836.5 1488.5 836.5 1488.5 823.5 1514.5 849.5 1488.5 875.5 1488.5 862.5 1443.62 862.5Z" stroke="#042433" stroke-width="6.875" stroke-miterlimit="8" fill="none" fill-rule="evenodd"/><path d="M1436.5 1027.5 1438.12 1027.5 1438.12 1053.5 1436.5 1053.5ZM1439.75 1027.5 1443 1027.5 1443 1053.5 1439.75 1053.5ZM1444.62 1027.5 1489.5 1027.5 1489.5 1014.5 1515.5 1040.5 1489.5 1066.5 1489.5 1053.5 1444.62 1053.5Z" stroke="#042433" stroke-width="6.875" stroke-miterlimit="8" fill="none" fill-rule="evenodd"/><path d="M1433.5 1224.5 1435.12 1224.5 1435.12 1250.5 1433.5 1250.5ZM1436.75 1224.5 1440 1224.5 1440 1250.5 1436.75 1250.5ZM1441.62 1224.5 1486.5 1224.5 1486.5 1211.5 1512.5 1237.5 1486.5 1263.5 1486.5 1250.5 1441.62 1250.5Z" stroke="#042433" stroke-width="6.875" stroke-miterlimit="8" fill="none" fill-rule="evenodd"/><path d="M1434.5 1427.5 1436.12 1427.5 1436.12 1453.5 1434.5 1453.5ZM1437.75 1427.5 1441 1427.5 1441 1453.5 1437.75 1453.5ZM1442.62 1427.5 1487.5 1427.5 1487.5 1414.5 1513.5 1440.5 1487.5 1466.5 1487.5 1453.5 1442.62 1453.5Z" stroke="#042433" stroke-width="6.875" stroke-miterlimit="8" fill="none" fill-rule="evenodd"/><path d="M1253.02 201.5 1253.02 330.976 1093 330.976 1096.44 327.539 1096.44 844.391 1093 840.954 1152.58 840.954 1152.58 847.829 1089.56 847.829 1089.56 324.101 1249.59 324.101 1246.15 327.539 1246.15 201.5ZM1148 830.641 1175.5 844.391 1148 858.141Z" fill="#156082"/><path d="M1109.06 2046.68 1109.06 1428.06 1152.49 1428.06 1152.49 1434.94 1112.5 1434.94 1115.94 1431.5 1115.94 2046.68ZM1147.91 1417.75 1175.41 1431.5 1147.91 1445.25Z" fill="#156082"/><path d="M0-3.4375 949.818-3.4375 949.818 519.378 886.796 519.378 886.796 512.503 946.38 512.503 942.943 515.94 942.943 0 946.38 3.4375 0 3.4375ZM891.38 529.69 863.88 515.94 891.38 502.19Z" fill="#156082" transform="matrix(-1 1.22465e-16 1.22465e-16 1 2039.38 328.5)"/><rect x="3149.5" y="28.5" width="690" height="2202" stroke="#042433" stroke-width="6.875" stroke-miterlimit="8" fill="none"/><path d="M3080 1122.5 3082.69 1122.5 3082.69 1165.5 3080 1165.5ZM3085.38 1122.5 3090.75 1122.5 3090.75 1165.5 3085.38 1165.5ZM3093.44 1122.5 3148 1122.5 3148 1101 3191 1144 3148 1187 3148 1165.5 3093.44 1165.5Z" fill="#83CBEB" fill-rule="evenodd"/><text font-family="Times New Roman,Times New Roman_MSFontService,sans-serif" font-weight="700" font-size="83" transform="matrix(1 0 0 1 3213.09 185)">Evaluation</text><text font-family="Times New Roman,Times New Roman_MSFontService,sans-serif" font-weight="700" font-size="83" transform="matrix(1 0 0 1 3212.1 1472)">W</text><text font-family="Times New Roman,Times New Roman_MSFontService,sans-serif" font-weight="700" font-size="83" transform="matrix(1 0 0 1 3290.04 1472)">eb</text><text font-family="Times New Roman,Times New Roman_MSFontService,sans-serif" font-weight="700" font-size="83" transform="matrix(1 0 0 1 3393.17 1472)">server</text><g><g><g><path d="M3370.5 763.75 3342.75 763.75 3342.75 1078.25 3657.25 1078.25 3657.25 1050.5 3370.5 1050.5Z" fill="#84E291"/><path d="M3398.25 860.875 3449.12 860.875 3449.12 1022.75 3398.25 1022.75Z" fill="#84E291"/><path d="M3467.62 763.75 3518.5 763.75 3518.5 1022.75 3467.62 1022.75Z" fill="#84E291"/><path d="M3537 860.875 3587.88 860.875 3587.88 1022.75 3537 1022.75Z" fill="#84E291"/><path d="M3606.38 939.5 3657.25 939.5 3657.25 1022.75 3606.38 1022.75Z" fill="#84E291"/></g></g></g><g><g><g><path d="M74.3011 69.5312 65.0302 69.5312 65.0302 384.739 380.104 384.739 380.104 375.469 74.3011 375.469 74.3011 69.5312Z" fill="#96DCF8" transform="matrix(1 0 0 1 3279 262)"/><path d="M134.566 333.75C144.776 333.77 153.069 325.51 153.089 315.301 153.101 309.468 150.358 303.971 145.691 300.472L185.926 176.109C188.598 176.046 191.223 175.402 193.621 174.222L264.682 228.368C262.775 238.43 269.385 248.131 279.446 250.039 289.507 251.946 299.21 245.336 301.117 235.275 301.336 234.12 301.444 232.946 301.441 231.771 301.427 226.137 298.836 220.82 294.409 217.336L327.965 120.391C328.401 120.423 328.813 120.521 329.253 120.521 339.53 120.556 347.889 112.255 347.925 101.979 347.961 91.7033 339.66 83.3438 329.383 83.3077 319.108 83.272 310.748 91.5735 310.712 101.849 310.69 108.16 313.868 114.051 319.153 117.498L285.912 213.53C284.918 213.35 283.91 213.249 282.899 213.229 277.457 213.243 272.3 215.665 268.812 219.844L200.853 168.066C206.695 159.634 204.596 148.063 196.164 142.22 187.732 136.378 176.161 138.477 170.318 146.909 164.476 155.341 166.575 166.912 175.006 172.755 175.617 173.178 176.253 173.564 176.911 173.911L137.111 296.921C126.991 295.497 117.632 302.545 116.207 312.665 114.782 322.785 121.831 332.144 131.951 333.569 132.817 333.691 133.691 333.752 134.566 333.75Z" fill="#96DCF8" transform="matrix(1 0 0 1 3279 262)"/></g></g></g><g><g><g><path d="M513.625 85.6042 73.375 85.6042C59.8838 85.6445 48.957 96.5713 48.9167 110.063L48.9167 403.654C48.9603 417.144 59.8851 428.069 73.375 428.113L250.698 428.113 250.698 489.259 183.438 489.259 183.438 501.488 403.563 501.488 403.563 489.259 336.302 489.259 336.302 428.113 513.625 428.113C527.115 428.069 538.04 417.144 538.083 403.654L538.083 110.063C538.043 96.5713 527.116 85.6445 513.625 85.6042ZM324.073 489.283 262.927 489.283 262.927 428.137 324.073 428.137ZM525.854 403.679C525.854 410.433 520.379 415.908 513.625 415.908L73.375 415.908C66.6208 415.908 61.1459 410.433 61.1459 403.679L61.1459 110.063C61.1459 103.308 66.6208 97.8334 73.375 97.8334L513.625 97.8334C520.379 97.8334 525.854 103.308 525.854 110.063Z" transform="matrix(1.0017 0 0 1 3200 1528)"/><path d="M91.7188 116.177 79.4896 116.177 79.4896 397.534 507.511 397.534 507.511 116.177 91.7188 116.177ZM495.281 385.304 91.7188 385.304 91.7188 128.406 495.281 128.406Z" transform="matrix(1.0017 0 0 1 3200 1528)"/></g></g></g><g><g><g><path d="M121.964 22.6666C121.596 22.0288 120.781 21.8098 120.143 22.1777 120.142 22.1781 120.142 22.1784 120.141 22.1786L105.325 30.7346C101.911 25.95 95.2648 24.839 90.4802 28.253 89.7119 28.8013 89.02 29.4493 88.4226 30.18L73.7333 21.696C75.4165 16.0505 72.2045 10.1095 66.559 8.42628 60.9135 6.74309 54.9725 9.95512 53.2893 15.6005 52.6963 17.5892 52.6963 19.7074 53.2893 21.696L38.576 30.1866C34.8552 25.6193 28.1364 24.933 23.5692 28.6537 19.0018 32.3745 18.3154 39.0933 22.0362 43.6606 23.705 45.7092 26.0749 47.0654 28.6866 47.4666L28.6866 64.5333C22.8825 65.4182 18.8948 70.8407 19.7797 76.6449 19.9285 77.6199 20.2121 78.5696 20.6226 79.4666L5.33333 88.2892C4.69318 88.6532 4.46929 89.4672 4.83325 90.1074 5.19721 90.7475 6.01119 90.9714 6.65134 90.6074 6.65647 90.6046 6.66158 90.6015 6.66666 90.5986L22.0186 81.7332C25.694 86.323 32.3942 87.0642 36.984 83.3888 37.5686 82.9207 38.1022 82.3921 38.576 81.8119L53.2839 90.3026C51.6039 95.9328 54.8063 101.859 60.4366 103.539 61.0039 103.708 61.5843 103.83 62.1719 103.903L62.1719 121.333C62.1719 122.07 62.7689 122.667 63.5053 122.667 64.2417 122.667 64.8386 122.07 64.8386 121.333L64.8386 103.908C70.6717 103.184 74.8135 97.8688 74.0898 92.0358 74.0173 91.4508 73.8962 90.8728 73.7279 90.3079L88.4226 81.8239C92.1514 86.3847 98.8714 87.0591 103.432 83.3303 107.993 79.6015 108.667 72.8815 104.939 68.3209 103.276 66.287 100.921 64.9383 98.3252 64.5333L98.3252 47.4666C104.125 46.5691 108.099 41.14 107.202 35.34 107.082 34.5669 106.878 33.8094 106.592 33.0813L121.468 24.492C122.108 24.1281 122.332 23.3141 121.968 22.6738 121.967 22.6714 121.965 22.669 121.964 22.6666ZM63.5053 10.6667C67.9235 10.6667 71.5053 14.2484 71.5053 18.6666 71.5053 23.0849 67.9235 26.6666 63.5053 26.6666 59.087 26.6666 55.5053 23.0849 55.5053 18.6666 55.5097 14.2503 59.0889 10.6711 63.5053 10.6667ZM22.3266 36.9333C22.3266 32.515 25.9084 28.9333 30.3266 28.9333 34.7449 28.9333 38.3266 32.515 38.3266 36.9333 38.3266 41.3516 34.7449 44.9333 30.3266 44.9333 25.913 44.9282 22.3354 41.3536 22.3266 36.94ZM30.3266 83.0532C25.9084 83.0532 22.3266 79.4715 22.3266 75.0533 22.3266 70.635 25.9084 67.0533 30.3266 67.0533 34.7449 67.0533 38.3266 70.635 38.3266 75.0533 38.3289 79.4746 34.748 83.0614 30.3266 83.0666ZM63.5053 101.333C59.087 101.333 55.5053 97.7515 55.5053 93.3332 55.5053 88.915 59.087 85.3332 63.5053 85.3332 67.9235 85.3332 71.5053 88.915 71.5053 93.3332 71.5001 97.7494 67.9214 101.328 63.5053 101.333ZM72.6399 87.8532C69.6298 82.809 63.1005 81.1602 58.0562 84.1703 56.5423 85.0738 55.2767 86.3394 54.3733 87.8532L39.9893 79.5492C42.4813 74.2283 40.1881 67.8947 34.8673 65.4026 33.7597 64.8839 32.5709 64.5601 31.3533 64.4453L31.3533 47.5546C37.2029 47.0033 41.4981 41.8142 40.9466 35.9646 40.832 34.7469 40.5081 33.5582 39.9893 32.4506L54.3719 24.1466C57.3821 29.1909 63.9114 30.8397 68.9557 27.8296 70.4695 26.9261 71.7351 25.6605 72.6386 24.1466L87.0066 32.4413C84.5103 37.7602 86.7984 44.0957 92.1174 46.592 93.2327 47.1154 94.4304 47.4411 95.6572 47.5546L95.6572 64.4453C89.8067 64.9866 85.5026 70.1682 86.0439 76.0187 86.1574 77.2455 86.4831 78.4433 87.0066 79.5586ZM104.667 75.0666C104.667 79.4848 101.085 83.0666 96.6666 83.0666 92.2483 83.0666 88.6666 79.4848 88.6666 75.0666 88.6666 70.6483 92.2483 67.0666 96.6666 67.0666 101.083 67.071 104.662 70.6502 104.667 75.0666ZM96.6666 44.9466C92.2483 44.9466 88.6666 41.3649 88.6666 36.9466 88.6666 32.5284 92.2483 28.9466 96.6666 28.9466 101.085 28.9466 104.667 32.5284 104.667 36.9466 104.658 41.3602 101.08 44.9348 96.6666 44.94Z" transform="matrix(1 0 0 1.00781 3542 1752)"/></g></g></g><g><g><g><path d="M390.575 75.4375 35.0163 75.4375 35.0163 350.673 390.575 350.673ZM381.7 341.798 43.8913 341.798 43.8913 146.437 381.7 146.437ZM381.7 137.562 43.8913 137.562 43.8913 84.3125 381.7 84.3125Z" transform="matrix(1.16667 0 0 1 3246 1575)"/><path d="M288.437 110.937C288.437 115.839 284.464 119.812 279.562 119.812 274.661 119.812 270.687 115.839 270.687 110.937 270.687 106.036 274.661 102.062 279.562 102.062 284.464 102.062 288.437 106.036 288.437 110.937Z" transform="matrix(1.16667 0 0 1 3246 1575)"/><path d="M319.5 110.937C319.5 115.839 315.526 119.812 310.625 119.812 305.723 119.812 301.75 115.839 301.75 110.937 301.75 106.036 305.723 102.062 310.625 102.062 315.526 102.062 319.5 106.036 319.5 110.937Z" transform="matrix(1.16667 0 0 1 3246 1575)"/><path d="M350.562 110.937C350.562 115.839 346.589 119.812 341.687 119.812 336.786 119.812 332.812 115.839 332.812 110.937 332.812 106.036 336.786 102.062 341.687 102.062 346.589 102.062 350.562 106.036 350.562 110.937Z" transform="matrix(1.16667 0 0 1 3246 1575)"/><path d="M101.144 269.769 107.419 276.044 152.712 230.75 105.2 183.238 98.9252 189.512 140.163 230.75 101.144 269.769Z" transform="matrix(1.16667 0 0 1 3246 1575)"/><path d="M168.625 266.25 239.625 266.25 239.625 275.125 168.625 275.125Z" transform="matrix(1.16667 0 0 1 3246 1575)"/></g></g></g></g></svg>