<svg width="3316" height="2874" xmlns="http://www.w3.org/2000/svg" xmlns:xlink="http://www.w3.org/1999/xlink" xml:space="preserve" overflow="hidden"><g transform="translate(197 -22)"><rect x="606" y="1832" width="464" height="398" fill="#C2F1C8"/><rect x="606" y="464" width="2510" height="318" fill="#C2F1C8"/><rect x="1070" y="27.9998" width="2046" height="428" fill="#FBE3D6"/><rect x="607" y="25.0001" width="464" height="1792" fill="#FBE3D6"/><text font-family="Times New Roman,Times New Roman_MSFontService,sans-serif" font-weight="700" font-size="83" transform="matrix(1 0 0 1 28.3654 533)">Photosensitizers</text><path d="M126.5 255.667C126.5 233.483 217.61 215.5 330 215.5 442.39 215.5 533.5 233.483 533.5 255.667L533.5 416.333C533.5 438.517 442.39 456.5 330 456.5 217.61 456.5 126.5 438.517 126.5 416.333Z" fill="#84E291" fill-rule="evenodd"/><path d="M533.5 255.667C533.5 277.85 442.39 295.833 330 295.833 217.61 295.833 126.5 277.85 126.5 255.667" stroke="#042433" stroke-width="6.875" stroke-miterlimit="8" fill="none" fill-rule="evenodd"/><path d="M126.5 255.667C126.5 233.483 217.61 215.5 330 215.5 442.39 215.5 533.5 233.483 533.5 255.667L533.5 416.333C533.5 438.517 442.39 456.5 330 456.5 217.61 456.5 126.5 438.517 126.5 416.333Z" stroke="#042433" stroke-width="6.875" stroke-miterlimit="8" fill="none" fill-rule="evenodd"/><path d="M126.5 157.667C126.5 135.483 217.61 117.5 330 117.5 442.39 117.5 533.5 135.483 533.5 157.667L533.5 318.333C533.5 340.517 442.39 358.5 330 358.5 217.61 358.5 126.5 340.517 126.5 318.333Z" fill="#96DCF8" fill-rule="evenodd"/><path d="M533.5 157.667C533.5 179.85 442.39 197.833 330 197.833 217.61 197.833 126.5 179.85 126.5 157.667" stroke="#042433" stroke-width="6.875" stroke-miterlimit="8" fill="none" fill-rule="evenodd"/><path d="M126.5 157.667C126.5 135.483 217.61 117.5 330 117.5 442.39 117.5 533.5 135.483 533.5 157.667L533.5 318.333C533.5 340.517 442.39 358.5 330 358.5 217.61 358.5 126.5 340.517 126.5 318.333Z" stroke="#042433" stroke-width="6.875" stroke-miterlimit="8" fill="none" fill-rule="evenodd"/><path d="M126.5 65.6666C126.5 43.4832 217.834 25.4999 330.5 25.4999 443.166 25.4999 534.5 43.4832 534.5 65.6666L534.5 226.333C534.5 248.517 443.166 266.5 330.5 266.5 217.834 266.5 126.5 248.517 126.5 226.333Z" fill="#F6C6AD" fill-rule="evenodd"/><path d="M534.5 65.6666C534.5 87.85 443.166 105.833 330.5 105.833 217.834 105.833 126.5 87.85 126.5 65.6666" stroke="#042433" stroke-width="6.875" stroke-miterlimit="8" fill="none" fill-rule="evenodd"/><path d="M126.5 65.6666C126.5 43.4832 217.834 25.4999 330.5 25.4999 443.166 25.4999 534.5 43.4832 534.5 65.6666L534.5 226.333C534.5 248.517 443.166 266.5 330.5 266.5 217.834 266.5 126.5 248.517 126.5 226.333Z" stroke="#042433" stroke-width="6.875" stroke-miterlimit="8" fill="none" fill-rule="evenodd"/><text font-family="Times New Roman,Times New Roman_MSFontService,sans-serif" font-weight="700" font-size="55" transform="matrix(1 0 0 1 172.762 198)">Training: 64%</text><text font-family="Times New Roman,Times New Roman_MSFontService,sans-serif" font-weight="700" font-size="55" transform="matrix(1 0 0 1 144.883 316)">Validation: 16%</text><text font-family="Times New Roman,Times New Roman_MSFontService,sans-serif" font-weight="700" font-size="55" transform="matrix(1 0 0 1 219.133 421)">Test: 20%</text><path d="M124.5 1290.12C124.5 1303.17 215.61 1313.75 328 1313.75 440.39 1313.75 531.5 1303.17 531.5 1290.12L531.5 1431.87C531.5 1444.92 440.39 1455.5 328 1455.5 215.61 1455.5 124.5 1444.92 124.5 1431.87Z" fill="#C1E5F5" fill-rule="evenodd"/><path d="M124.5 1290.12C124.5 1277.08 215.61 1266.5 328 1266.5 440.39 1266.5 531.5 1277.08 531.5 1290.12 531.5 1303.17 440.39 1313.75 328 1313.75 215.61 1313.75 124.5 1303.17 124.5 1290.12Z" fill="#DAEFF9" fill-rule="evenodd"/><path d="M531.5 1290.12C531.5 1303.17 440.39 1313.75 328 1313.75 215.61 1313.75 124.5 1303.17 124.5 1290.12 124.5 1277.08 215.61 1266.5 328 1266.5 440.39 1266.5 531.5 1277.08 531.5 1290.12L531.5 1431.87C531.5 1444.92 440.39 1455.5 328 1455.5 215.61 1455.5 124.5 1444.92 124.5 1431.87L124.5 1290.12" stroke="#15BECF" stroke-width="6.875" stroke-miterlimit="8" fill="none" fill-rule="evenodd"/><text font-family="Times New Roman,Times New Roman_MSFontService,sans-serif" font-weight="700" font-size="73" transform="matrix(1 0 0 1 200.685 1402)">Solvents</text><path d="M124.5 1593.5C124.5 1611.17 215.61 1625.5 328 1625.5 440.39 1625.5 531.5 1611.17 531.5 1593.5L531.5 1785.5C531.5 1803.17 440.39 1817.5 328 1817.5 215.61 1817.5 124.5 1803.17 124.5 1785.5Z" fill="#F2CFEE" fill-rule="evenodd"/><path d="M124.5 1593.5C124.5 1575.83 215.61 1561.5 328 1561.5 440.39 1561.5 531.5 1575.83 531.5 1593.5 531.5 1611.17 440.39 1625.5 328 1625.5 215.61 1625.5 124.5 1611.17 124.5 1593.5Z" fill="#F7E2F5" fill-rule="evenodd"/><path d="M531.5 1593.5C531.5 1611.17 440.39 1625.5 328 1625.5 215.61 1625.5 124.5 1611.17 124.5 1593.5 124.5 1575.83 215.61 1561.5 328 1561.5 440.39 1561.5 531.5 1575.83 531.5 1593.5L531.5 1785.5C531.5 1803.17 440.39 1817.5 328 1817.5 215.61 1817.5 124.5 1803.17 124.5 1785.5L124.5 1593.5" stroke="#9467BD" stroke-width="6.875" stroke-miterlimit="8" fill="none" fill-rule="evenodd"/><text font-family="Times New Roman,Times New Roman_MSFontService,sans-serif" font-weight="700" font-size="73" transform="matrix(1 0 0 1 163.645 1686)">Reference </text><text font-family="Times New Roman,Times New Roman_MSFontService,sans-serif" font-weight="700" font-size="73" transform="matrix(1 0 0 1 163.645 1774)">compound</text><path d="M126.5 766.667C126.5 744.483 217.61 726.5 330 726.5 442.39 726.5 533.5 744.483 533.5 766.667L533.5 927.333C533.5 949.517 442.39 967.5 330 967.5 217.61 967.5 126.5 949.517 126.5 927.333Z" fill="#96DCF8" fill-rule="evenodd"/><path d="M533.5 766.667C533.5 788.85 442.39 806.833 330 806.833 217.61 806.833 126.5 788.85 126.5 766.667" stroke="#042433" stroke-width="6.875" stroke-miterlimit="8" fill="none" fill-rule="evenodd"/><path d="M126.5 766.667C126.5 744.483 217.61 726.5 330 726.5 442.39 726.5 533.5 744.483 533.5 766.667L533.5 927.333C533.5 949.517 442.39 967.5 330 967.5 217.61 967.5 126.5 949.517 126.5 927.333Z" stroke="#042433" stroke-width="6.875" stroke-miterlimit="8" fill="none" fill-rule="evenodd"/><path d="M126.5 675.667C126.5 653.483 217.834 635.5 330.5 635.5 443.166 635.5 534.5 653.483 534.5 675.667L534.5 836.333C534.5 858.517 443.166 876.5 330.5 876.5 217.834 876.5 126.5 858.517 126.5 836.333Z" fill="#F6C6AD" fill-rule="evenodd"/><path d="M534.5 675.667C534.5 697.85 443.166 715.833 330.5 715.833 217.834 715.833 126.5 697.85 126.5 675.667" stroke="#042433" stroke-width="6.875" stroke-miterlimit="8" fill="none" fill-rule="evenodd"/><path d="M126.5 675.667C126.5 653.483 217.834 635.5 330.5 635.5 443.166 635.5 534.5 653.483 534.5 675.667L534.5 836.333C534.5 858.517 443.166 876.5 330.5 876.5 217.834 876.5 126.5 858.517 126.5 836.333Z" stroke="#042433" stroke-width="6.875" stroke-miterlimit="8" fill="none" fill-rule="evenodd"/><text font-family="Times New Roman,Times New Roman_MSFontService,sans-serif" font-weight="700" font-size="55" transform="matrix(1 0 0 1 172.762 807)">Training: 64%</text><text font-family="Times New Roman,Times New Roman_MSFontService,sans-serif" font-weight="700" font-size="55" transform="matrix(1 0 0 1 144.883 926)">Validation: 16%</text><path d="M127.5 2079.83C127.5 2065.84 218.61 2054.5 331 2054.5 443.39 2054.5 534.5 2065.84 534.5 2079.83L534.5 2181.17C534.5 2195.16 443.39 2206.5 331 2206.5 218.61 2206.5 127.5 2195.16 127.5 2181.17Z" fill="#84E291" fill-rule="evenodd"/><path d="M534.5 2079.83C534.5 2093.82 443.39 2105.17 331 2105.17 218.61 2105.17 127.5 2093.82 127.5 2079.83" stroke="#042433" stroke-width="6.875" stroke-miterlimit="8" fill="none" fill-rule="evenodd"/><path d="M127.5 2079.83C127.5 2065.84 218.61 2054.5 331 2054.5 443.39 2054.5 534.5 2065.84 534.5 2079.83L534.5 2181.17C534.5 2195.16 443.39 2206.5 331 2206.5 218.61 2206.5 127.5 2195.16 127.5 2181.17Z" stroke="#042433" stroke-width="6.875" stroke-miterlimit="8" fill="none" fill-rule="evenodd"/><text font-family="Times New Roman,Times New Roman_MSFontService,sans-serif" font-weight="700" font-size="55" transform="matrix(1 0 0 1 205.273 2176)">Test: 20%</text><path d="M126.5 149.937-49.3333 149.937-45.8958 146.5-45.8958 788.597-49.3333 785.16 117.212 785.16 117.212 792.035-52.7708 792.035-52.7708 143.062 126.5 143.062ZM112.628 774.847 140.128 788.597 112.628 802.347Z" fill="#156082"/><path d="M126.5 149.937-49.3333 149.937-45.8958 146.5-45.8958 2130.85-49.3333 2127.41 104.308 2127.41 104.308 2134.29-52.7708 2134.29-52.7708 143.062 126.5 143.062ZM99.725 2117.1 127.225 2130.85 99.725 2144.6Z" fill="#156082"/><text font-family="Times New Roman,Times New Roman_MSFontService,sans-serif" font-weight="700" font-size="83" transform="matrix(-1.83697e-16 -1 1 -1.83697e-16 -85.505 793)">Data augmentation</text><rect x="736.5" y="429" width="56.4999" height="55.4999" fill="#F6C6AD"/><path d="M793 429 811.5 410.5 811.5 466 793 484.5Z" fill="#C69F8B" fill-rule="evenodd"/><path d="M736.5 429 755 410.5 811.5 410.5 793 429Z" fill="#F8D1BD" fill-rule="evenodd"/><path d="M736.5 429 755 410.5 811.5 410.5 811.5 466 793 484.5 736.5 484.5ZM736.5 429 793 429 811.5 410.5M793 429 793 484.5" stroke="#042433" stroke-width="6.875" stroke-miterlimit="8" fill="none" fill-rule="evenodd"/><rect x="736.5" y="372" width="56.4999" height="55.4999" fill="#F6C6AD"/><path d="M793 372 811.5 353.5 811.5 409 793 427.5Z" fill="#C69F8B" fill-rule="evenodd"/><path d="M736.5 372 755 353.5 811.5 353.5 793 372Z" fill="#F8D1BD" fill-rule="evenodd"/><path d="M736.5 372 755 353.5 811.5 353.5 811.5 409 793 427.5 736.5 427.5ZM736.5 372 793 372 811.5 353.5M793 372 793 427.5" stroke="#042433" stroke-width="6.875" stroke-miterlimit="8" fill="none" fill-rule="evenodd"/><rect x="736.5" y="317.25" width="56.2499" height="56.2503" fill="#F6C6AD"/><path d="M792.75 317.25 811.5 298.5 811.5 354.75 792.75 373.5Z" fill="#C69F8B" fill-rule="evenodd"/><path d="M736.5 317.25 755.25 298.5 811.5 298.5 792.75 317.25Z" fill="#F8D1BD" fill-rule="evenodd"/><path d="M736.5 317.25 755.25 298.5 811.5 298.5 811.5 354.75 792.75 373.5 736.5 373.5ZM736.5 317.25 792.75 317.25 811.5 298.5M792.75 317.25 792.75 373.5" stroke="#042433" stroke-width="6.875" stroke-miterlimit="8" fill="none" fill-rule="evenodd"/><rect x="736.5" y="263" width="56.4999" height="55.4999" fill="#F6C6AD"/><path d="M793 263 811.5 244.5 811.5 300 793 318.5Z" fill="#C69F8B" fill-rule="evenodd"/><path d="M736.5 263 755 244.5 811.5 244.5 793 263Z" fill="#F8D1BD" fill-rule="evenodd"/><path d="M736.5 263 755 244.5 811.5 244.5 811.5 300 793 318.5 736.5 318.5ZM736.5 263 793 263 811.5 244.5M793 263 793 318.5" stroke="#042433" stroke-width="6.875" stroke-miterlimit="8" fill="none" fill-rule="evenodd"/><rect x="736.5" y="205.25" width="56.2499" height="56.2499" fill="#F6C6AD"/><path d="M792.75 205.25 811.5 186.5 811.5 242.75 792.75 261.5Z" fill="#C69F8B" fill-rule="evenodd"/><path d="M736.5 205.25 755.25 186.5 811.5 186.5 792.75 205.25Z" fill="#F8D1BD" fill-rule="evenodd"/><path d="M736.5 205.25 755.25 186.5 811.5 186.5 811.5 242.75 792.75 261.5 736.5 261.5ZM736.5 205.25 792.75 205.25 811.5 186.5M792.75 205.25 792.75 261.5" stroke="#042433" stroke-width="6.875" stroke-miterlimit="8" fill="none" fill-rule="evenodd"/><rect x="736.5" y="146" width="56.4999" height="55.4999" fill="#F6C6AD"/><path d="M793 146 811.5 127.5 811.5 183 793 201.5Z" fill="#C69F8B" fill-rule="evenodd"/><path d="M736.5 146 755 127.5 811.5 127.5 793 146Z" fill="#F8D1BD" fill-rule="evenodd"/><path d="M736.5 146 755 127.5 811.5 127.5 811.5 183 793 201.5 736.5 201.5ZM736.5 146 793 146 811.5 127.5M793 146 793 201.5" stroke="#042433" stroke-width="6.875" stroke-miterlimit="8" fill="none" fill-rule="evenodd"/><rect x="877.5" y="430" width="55.4999" height="55.4999" fill="#96DCF8"/><path d="M933 430 951.5 411.5 951.5 467 933 485.5Z" fill="#79B1C7" fill-rule="evenodd"/><path d="M877.5 430 896 411.5 951.5 411.5 933 430Z" fill="#ABE3F9" fill-rule="evenodd"/><path d="M877.5 430 896 411.5 951.5 411.5 951.5 467 933 485.5 877.5 485.5ZM877.5 430 933 430 951.5 411.5M933 430 933 485.5" stroke="#042433" stroke-width="6.875" stroke-miterlimit="8" fill="none" fill-rule="evenodd"/><rect x="877.5" y="373" width="55.4999" height="55.5003" fill="#96DCF8"/><path d="M933 373 951.5 354.5 951.5 410 933 428.5Z" fill="#79B1C7" fill-rule="evenodd"/><path d="M877.5 373 896 354.5 951.5 354.5 933 373Z" fill="#ABE3F9" fill-rule="evenodd"/><path d="M877.5 373 896 354.5 951.5 354.5 951.5 410 933 428.5 877.5 428.5ZM877.5 373 933 373 951.5 354.5M933 373 933 428.5" stroke="#042433" stroke-width="6.875" stroke-miterlimit="8" fill="none" fill-rule="evenodd"/><rect x="877.5" y="318" width="55.4999" height="56.5" fill="#96DCF8"/><path d="M933 318 951.5 299.5 951.5 356 933 374.5Z" fill="#79B1C7" fill-rule="evenodd"/><path d="M877.5 318 896 299.5 951.5 299.5 933 318Z" fill="#ABE3F9" fill-rule="evenodd"/><path d="M877.5 318 896 299.5 951.5 299.5 951.5 356 933 374.5 877.5 374.5ZM877.5 318 933 318 951.5 299.5M933 318 933 374.5" stroke="#042433" stroke-width="6.875" stroke-miterlimit="8" fill="none" fill-rule="evenodd"/><rect x="877.5" y="264" width="55.4999" height="55.4999" fill="#96DCF8"/><path d="M933 264 951.5 245.5 951.5 301 933 319.5Z" fill="#79B1C7" fill-rule="evenodd"/><path d="M877.5 264 896 245.5 951.5 245.5 933 264Z" fill="#ABE3F9" fill-rule="evenodd"/><path d="M877.5 264 896 245.5 951.5 245.5 951.5 301 933 319.5 877.5 319.5ZM877.5 264 933 264 951.5 245.5M933 264 933 319.5" stroke="#042433" stroke-width="6.875" stroke-miterlimit="8" fill="none" fill-rule="evenodd"/><rect x="877.5" y="206" width="55.5001" height="56.5002" fill="#96DCF8"/><path d="M933 206 951.5 187.5 951.5 244 933 262.5Z" fill="#79B1C7" fill-rule="evenodd"/><path d="M877.5 206 896 187.5 951.5 187.5 933 206Z" fill="#ABE3F9" fill-rule="evenodd"/><path d="M877.5 206 896 187.5 951.5 187.5 951.5 244 933 262.5 877.5 262.5ZM877.5 206 933 206 951.5 187.5M933 206 933 262.5" stroke="#042433" stroke-width="6.875" stroke-miterlimit="8" fill="none" fill-rule="evenodd"/><rect x="877.5" y="147" width="55.4999" height="55.4999" fill="#96DCF8"/><path d="M933 147 951.5 128.5 951.5 184 933 202.5Z" fill="#79B1C7" fill-rule="evenodd"/><path d="M877.5 147 896 128.5 951.5 128.5 933 147Z" fill="#ABE3F9" fill-rule="evenodd"/><path d="M877.5 147 896 128.5 951.5 128.5 951.5 184 933 202.5 877.5 202.5ZM877.5 147 933 147 951.5 128.5M933 147 933 202.5" stroke="#042433" stroke-width="6.875" stroke-miterlimit="8" fill="none" fill-rule="evenodd"/><rect x="737.5" y="1052.25" width="56.2502" height="56.2502" fill="#DCEAF7"/><path d="M793.75 1052.25 812.5 1033.5 812.5 1089.75 793.75 1108.5Z" fill="#B1BCC7" fill-rule="evenodd"/><path d="M737.5 1052.25 756.25 1033.5 812.5 1033.5 793.75 1052.25Z" fill="#E3EEF9" fill-rule="evenodd"/><path d="M737.5 1052.25 756.25 1033.5 812.5 1033.5 812.5 1089.75 793.75 1108.5 737.5 1108.5ZM737.5 1052.25 793.75 1052.25 812.5 1033.5M793.75 1052.25 793.75 1108.5" stroke="#15BECF" stroke-width="6.875" stroke-miterlimit="8" fill="none" fill-rule="evenodd"/><rect x="737.5" y="995.25" width="56.2502" height="56.2503" fill="#DCEAF7"/><path d="M793.75 995.25 812.5 976.5 812.5 1032.75 793.75 1051.5Z" fill="#B1BCC7" fill-rule="evenodd"/><path d="M737.5 995.25 756.25 976.5 812.5 976.5 793.75 995.25Z" fill="#E3EEF9" fill-rule="evenodd"/><path d="M737.5 995.25 756.25 976.5 812.5 976.5 812.5 1032.75 793.75 1051.5 737.5 1051.5ZM737.5 995.25 793.75 995.25 812.5 976.5M793.75 995.25 793.75 1051.5" stroke="#15BECF" stroke-width="6.875" stroke-miterlimit="8" fill="none" fill-rule="evenodd"/><rect x="737.5" y="941.25" width="56.2502" height="56.2503" fill="#DCEAF7"/><path d="M793.75 941.25 812.5 922.5 812.5 978.75 793.75 997.5Z" fill="#B1BCC7" fill-rule="evenodd"/><path d="M737.5 941.25 756.25 922.5 812.5 922.5 793.75 941.25Z" fill="#E3EEF9" fill-rule="evenodd"/><path d="M737.5 941.25 756.25 922.5 812.5 922.5 812.5 978.75 793.75 997.5 737.5 997.5ZM737.5 941.25 793.75 941.25 812.5 922.5M793.75 941.25 793.75 997.5" stroke="#15BECF" stroke-width="6.875" stroke-miterlimit="8" fill="none" fill-rule="evenodd"/><rect x="737.5" y="886.25" width="56.2502" height="56.2503" fill="#DCEAF7"/><path d="M793.75 886.25 812.5 867.5 812.5 923.75 793.75 942.5Z" fill="#B1BCC7" fill-rule="evenodd"/><path d="M737.5 886.25 756.25 867.5 812.5 867.5 793.75 886.25Z" fill="#E3EEF9" fill-rule="evenodd"/><path d="M737.5 886.25 756.25 867.5 812.5 867.5 812.5 923.75 793.75 942.5 737.5 942.5ZM737.5 886.25 793.75 886.25 812.5 867.5M793.75 886.25 793.75 942.5" stroke="#15BECF" stroke-width="6.875" stroke-miterlimit="8" fill="none" fill-rule="evenodd"/><rect x="737.5" y="829" width="56.5002" height="55.5002" fill="#DCEAF7"/><path d="M794 829 812.5 810.5 812.5 866 794 884.5Z" fill="#B1BCC7" fill-rule="evenodd"/><path d="M737.5 829 756 810.5 812.5 810.5 794 829Z" fill="#E3EEF9" fill-rule="evenodd"/><path d="M737.5 829 756 810.5 812.5 810.5 812.5 866 794 884.5 737.5 884.5ZM737.5 829 794 829 812.5 810.5M794 829 794 884.5" stroke="#15BECF" stroke-width="6.875" stroke-miterlimit="8" fill="none" fill-rule="evenodd"/><rect x="737.5" y="769.25" width="56.2502" height="56.2503" fill="#DCEAF7"/><path d="M793.75 769.25 812.5 750.5 812.5 806.75 793.75 825.5Z" fill="#B1BCC7" fill-rule="evenodd"/><path d="M737.5 769.25 756.25 750.5 812.5 750.5 793.75 769.25Z" fill="#E3EEF9" fill-rule="evenodd"/><path d="M737.5 769.25 756.25 750.5 812.5 750.5 812.5 806.75 793.75 825.5 737.5 825.5ZM737.5 769.25 793.75 769.25 812.5 750.5M793.75 769.25 793.75 825.5" stroke="#15BECF" stroke-width="6.875" stroke-miterlimit="8" fill="none" fill-rule="evenodd"/><rect x="737.5" y="1591" width="56.5002" height="55.5001" fill="#F2CFEE"/><path d="M794 1591 812.5 1572.5 812.5 1628 794 1646.5Z" fill="#C3A6BF" fill-rule="evenodd"/><path d="M737.5 1591 756 1572.5 812.5 1572.5 794 1591Z" fill="#F5D8F1" fill-rule="evenodd"/><path d="M737.5 1591 756 1572.5 812.5 1572.5 812.5 1628 794 1646.5 737.5 1646.5ZM737.5 1591 794 1591 812.5 1572.5M794 1591 794 1646.5" stroke="#9467BD" stroke-width="6.875" stroke-miterlimit="8" fill="none" fill-rule="evenodd"/><rect x="737.5" y="1534" width="56.5002" height="55.5001" fill="#F2CFEE"/><path d="M794 1534 812.5 1515.5 812.5 1571 794 1589.5Z" fill="#C3A6BF" fill-rule="evenodd"/><path d="M737.5 1534 756 1515.5 812.5 1515.5 794 1534Z" fill="#F5D8F1" fill-rule="evenodd"/><path d="M737.5 1534 756 1515.5 812.5 1515.5 812.5 1571 794 1589.5 737.5 1589.5ZM737.5 1534 794 1534 812.5 1515.5M794 1534 794 1589.5" stroke="#9467BD" stroke-width="6.875" stroke-miterlimit="8" fill="none" fill-rule="evenodd"/><rect x="737.5" y="1479.25" width="56.2502" height="56.2502" fill="#F2CFEE"/><path d="M793.75 1479.25 812.5 1460.5 812.5 1516.75 793.75 1535.5Z" fill="#C3A6BF" fill-rule="evenodd"/><path d="M737.5 1479.25 756.25 1460.5 812.5 1460.5 793.75 1479.25Z" fill="#F5D8F1" fill-rule="evenodd"/><path d="M737.5 1479.25 756.25 1460.5 812.5 1460.5 812.5 1516.75 793.75 1535.5 737.5 1535.5ZM737.5 1479.25 793.75 1479.25 812.5 1460.5M793.75 1479.25 793.75 1535.5" stroke="#9467BD" stroke-width="6.875" stroke-miterlimit="8" fill="none" fill-rule="evenodd"/><rect x="737.5" y="1425.25" width="56.2502" height="56.2502" fill="#F2CFEE"/><path d="M793.75 1425.25 812.5 1406.5 812.5 1462.75 793.75 1481.5Z" fill="#C3A6BF" fill-rule="evenodd"/><path d="M737.5 1425.25 756.25 1406.5 812.5 1406.5 793.75 1425.25Z" fill="#F5D8F1" fill-rule="evenodd"/><path d="M737.5 1425.25 756.25 1406.5 812.5 1406.5 812.5 1462.75 793.75 1481.5 737.5 1481.5ZM737.5 1425.25 793.75 1425.25 812.5 1406.5M793.75 1425.25 793.75 1481.5" stroke="#9467BD" stroke-width="6.875" stroke-miterlimit="8" fill="none" fill-rule="evenodd"/><rect x="737.5" y="1367.25" width="56.2502" height="56.2502" fill="#F2CFEE"/><path d="M793.75 1367.25 812.5 1348.5 812.5 1404.75 793.75 1423.5Z" fill="#C3A6BF" fill-rule="evenodd"/><path d="M737.5 1367.25 756.25 1348.5 812.5 1348.5 793.75 1367.25Z" fill="#F5D8F1" fill-rule="evenodd"/><path d="M737.5 1367.25 756.25 1348.5 812.5 1348.5 812.5 1404.75 793.75 1423.5 737.5 1423.5ZM737.5 1367.25 793.75 1367.25 812.5 1348.5M793.75 1367.25 793.75 1423.5" stroke="#9467BD" stroke-width="6.875" stroke-miterlimit="8" fill="none" fill-rule="evenodd"/><rect x="737.5" y="1308" width="56.5002" height="55.5001" fill="#F2CFEE"/><path d="M794 1308 812.5 1289.5 812.5 1345 794 1363.5Z" fill="#C3A6BF" fill-rule="evenodd"/><path d="M737.5 1308 756 1289.5 812.5 1289.5 794 1308Z" fill="#F5D8F1" fill-rule="evenodd"/><path d="M737.5 1308 756 1289.5 812.5 1289.5 812.5 1345 794 1363.5 737.5 1363.5ZM737.5 1308 794 1308 812.5 1289.5M794 1308 794 1363.5" stroke="#9467BD" stroke-width="6.875" stroke-miterlimit="8" fill="none" fill-rule="evenodd"/><text font-family="Times New Roman,Times New Roman_MSFontService,sans-serif" font-weight="700" font-size="83" transform="matrix(1 0 0 1 2257.7 194)">Tokenized SMILES</text><path d="M0-3.4375 138.402-3.4375 138.402 464.92 134.965 461.482 178.973 461.482 178.973 468.357 131.527 468.357 131.527 0 134.965 3.4375 0 3.4375ZM174.389 451.17 201.889 464.92 174.389 478.67Z" fill="#156082" transform="matrix(1 0 0 -1 534.5 756.42)"/><path d="M0-3.4375 106.789-3.4375 106.789 446.275 103.352 442.838 183.786 442.838 183.786 449.713 99.914 449.713 99.914 0 103.352 3.4375 0 3.4375ZM179.203 432.525 206.703 446.275 179.203 460.025Z" fill="#156082" transform="matrix(1 0 0 -1 531.5 1360.78)"/><path d="M0-3.4375 95.2866-3.4375 95.2866 196.921 91.8491 193.484 160.782 193.484 160.782 200.359 88.4116 200.359 88.4116 0 91.8491 3.4375 0 3.4375ZM156.198 183.171 183.698 196.921 156.198 210.671Z" fill="#156082" transform="matrix(1 0 0 -1 554.5 1704.42)"/><rect x="2123" y="146" width="55.5" height="55.4999" fill="#F2CFEE"/><path d="M2123 146 2104.5 127.5 2160 127.5 2178.5 146Z" fill="#C3A6BF" fill-rule="evenodd"/><path d="M2123 201.5 2104.5 183 2104.5 127.5 2123 146Z" fill="#F5D8F1" fill-rule="evenodd"/><path d="M2123 201.5 2104.5 183 2104.5 127.5 2160 127.5 2178.5 146 2178.5 201.5ZM2123 201.5 2123 146 2104.5 127.5M2123 146 2178.5 146" stroke="#9467BD" stroke-width="6.875" stroke-miterlimit="8" fill="none" fill-rule="evenodd"/><rect x="2066" y="146" width="55.5005" height="55.4999" fill="#F2CFEE"/><path d="M2066 146 2047.5 127.5 2103 127.5 2121.5 146Z" fill="#C3A6BF" fill-rule="evenodd"/><path d="M2066 201.5 2047.5 183 2047.5 127.5 2066 146Z" fill="#F5D8F1" fill-rule="evenodd"/><path d="M2066 201.5 2047.5 183 2047.5 127.5 2103 127.5 2121.5 146 2121.5 201.5ZM2066 201.5 2066 146 2047.5 127.5M2066 146 2121.5 146" stroke="#9467BD" stroke-width="6.875" stroke-miterlimit="8" fill="none" fill-rule="evenodd"/><rect x="2011" y="146" width="56.5002" height="55.5002" fill="#F2CFEE"/><path d="M2011 146 1992.5 127.5 2049 127.5 2067.5 146Z" fill="#C3A6BF" fill-rule="evenodd"/><path d="M2011 201.5 1992.5 183 1992.5 127.5 2011 146Z" fill="#F5D8F1" fill-rule="evenodd"/><path d="M2011 201.5 1992.5 183 1992.5 127.5 2049 127.5 2067.5 146 2067.5 201.5ZM2011 201.5 2011 146 1992.5 127.5M2011 146 2067.5 146" stroke="#9467BD" stroke-width="6.875" stroke-miterlimit="8" fill="none" fill-rule="evenodd"/><rect x="1957" y="146" width="55.5002" height="55.4999" fill="#F2CFEE"/><path d="M1957 146 1938.5 127.5 1994 127.5 2012.5 146Z" fill="#C3A6BF" fill-rule="evenodd"/><path d="M1957 201.5 1938.5 183 1938.5 127.5 1957 146Z" fill="#F5D8F1" fill-rule="evenodd"/><path d="M1957 201.5 1938.5 183 1938.5 127.5 1994 127.5 2012.5 146 2012.5 201.5ZM1957 201.5 1957 146 1938.5 127.5M1957 146 2012.5 146" stroke="#9467BD" stroke-width="6.875" stroke-miterlimit="8" fill="none" fill-rule="evenodd"/><rect x="1899" y="146" width="55.4999" height="55.4999" fill="#F2CFEE"/><path d="M1899 146 1880.5 127.5 1936 127.5 1954.5 146Z" fill="#C3A6BF" fill-rule="evenodd"/><path d="M1899 201.5 1880.5 183 1880.5 127.5 1899 146Z" fill="#F5D8F1" fill-rule="evenodd"/><path d="M1899 201.5 1880.5 183 1880.5 127.5 1936 127.5 1954.5 146 1954.5 201.5ZM1899 201.5 1899 146 1880.5 127.5M1899 146 1954.5 146" stroke="#9467BD" stroke-width="6.875" stroke-miterlimit="8" fill="none" fill-rule="evenodd"/><rect x="1839" y="146" width="56.4999" height="55.4999" fill="#F2CFEE"/><path d="M1839 146 1820.5 127.5 1877 127.5 1895.5 146Z" fill="#C3A6BF" fill-rule="evenodd"/><path d="M1839 201.5 1820.5 183 1820.5 127.5 1839 146Z" fill="#F5D8F1" fill-rule="evenodd"/><path d="M1839 201.5 1820.5 183 1820.5 127.5 1877 127.5 1895.5 146 1895.5 201.5ZM1839 201.5 1839 146 1820.5 127.5M1839 146 1895.5 146" stroke="#9467BD" stroke-width="6.875" stroke-miterlimit="8" fill="none" fill-rule="evenodd"/><rect x="1785" y="146" width="56.4999" height="55.4999" fill="#DCEAF7"/><path d="M1785 146 1766.5 127.5 1823 127.5 1841.5 146Z" fill="#B1BCC7" fill-rule="evenodd"/><path d="M1785 201.5 1766.5 183 1766.5 127.5 1785 146Z" fill="#E3EEF9" fill-rule="evenodd"/><path d="M1785 201.5 1766.5 183 1766.5 127.5 1823 127.5 1841.5 146 1841.5 201.5ZM1785 201.5 1785 146 1766.5 127.5M1785 146 1841.5 146" stroke="#15BECF" stroke-width="6.875" stroke-miterlimit="8" fill="none" fill-rule="evenodd"/><rect x="1728" y="146" width="56.4999" height="55.4999" fill="#DCEAF7"/><path d="M1728 146 1709.5 127.5 1766 127.5 1784.5 146Z" fill="#B1BCC7" fill-rule="evenodd"/><path d="M1728 201.5 1709.5 183 1709.5 127.5 1728 146Z" fill="#E3EEF9" fill-rule="evenodd"/><path d="M1728 201.5 1709.5 183 1709.5 127.5 1766 127.5 1784.5 146 1784.5 201.5ZM1728 201.5 1728 146 1709.5 127.5M1728 146 1784.5 146" stroke="#15BECF" stroke-width="6.875" stroke-miterlimit="8" fill="none" fill-rule="evenodd"/><rect x="1674" y="146" width="55.4999" height="55.4999" fill="#DCEAF7"/><path d="M1674 146 1655.5 127.5 1711 127.5 1729.5 146Z" fill="#B1BCC7" fill-rule="evenodd"/><path d="M1674 201.5 1655.5 183 1655.5 127.5 1674 146Z" fill="#E3EEF9" fill-rule="evenodd"/><path d="M1674 201.5 1655.5 183 1655.5 127.5 1711 127.5 1729.5 146 1729.5 201.5ZM1674 201.5 1674 146 1655.5 127.5M1674 146 1729.5 146" stroke="#15BECF" stroke-width="6.875" stroke-miterlimit="8" fill="none" fill-rule="evenodd"/><rect x="1619" y="146" width="56.4999" height="55.4999" fill="#DCEAF7"/><path d="M1619 146 1600.5 127.5 1657 127.5 1675.5 146Z" fill="#B1BCC7" fill-rule="evenodd"/><path d="M1619 201.5 1600.5 183 1600.5 127.5 1619 146Z" fill="#E3EEF9" fill-rule="evenodd"/><path d="M1619 201.5 1600.5 183 1600.5 127.5 1657 127.5 1675.5 146 1675.5 201.5ZM1619 201.5 1619 146 1600.5 127.5M1619 146 1675.5 146" stroke="#15BECF" stroke-width="6.875" stroke-miterlimit="8" fill="none" fill-rule="evenodd"/><rect x="1561" y="146" width="56.4999" height="55.4999" fill="#DCEAF7"/><path d="M1561 146 1542.5 127.5 1599 127.5 1617.5 146Z" fill="#B1BCC7" fill-rule="evenodd"/><path d="M1561 201.5 1542.5 183 1542.5 127.5 1561 146Z" fill="#E3EEF9" fill-rule="evenodd"/><path d="M1561 201.5 1542.5 183 1542.5 127.5 1599 127.5 1617.5 146 1617.5 201.5ZM1561 201.5 1561 146 1542.5 127.5M1561 146 1617.5 146" stroke="#15BECF" stroke-width="6.875" stroke-miterlimit="8" fill="none" fill-rule="evenodd"/><rect x="1502" y="146" width="55.4999" height="55.4999" fill="#DCEAF7"/><path d="M1502 146 1483.5 127.5 1539 127.5 1557.5 146Z" fill="#B1BCC7" fill-rule="evenodd"/><path d="M1502 201.5 1483.5 183 1483.5 127.5 1502 146Z" fill="#E3EEF9" fill-rule="evenodd"/><path d="M1502 201.5 1483.5 183 1483.5 127.5 1539 127.5 1557.5 146 1557.5 201.5ZM1502 201.5 1502 146 1483.5 127.5M1502 146 1557.5 146" stroke="#15BECF" stroke-width="6.875" stroke-miterlimit="8" fill="none" fill-rule="evenodd"/><rect x="1446" y="146" width="55.4999" height="55.4999" fill="#F6C6AD"/><path d="M1446 146 1427.5 127.5 1483 127.5 1501.5 146Z" fill="#C69F8B" fill-rule="evenodd"/><path d="M1446 201.5 1427.5 183 1427.5 127.5 1446 146Z" fill="#F8D1BD" fill-rule="evenodd"/><path d="M1446 201.5 1427.5 183 1427.5 127.5 1483 127.5 1501.5 146 1501.5 201.5ZM1446 201.5 1446 146 1427.5 127.5M1446 146 1501.5 146" stroke="#042433" stroke-width="6.875" stroke-miterlimit="8" fill="none" fill-rule="evenodd"/><rect x="1389" y="146" width="55.4999" height="55.4999" fill="#F6C6AD"/><path d="M1389 146 1370.5 127.5 1426 127.5 1444.5 146Z" fill="#C69F8B" fill-rule="evenodd"/><path d="M1389 201.5 1370.5 183 1370.5 127.5 1389 146Z" fill="#F8D1BD" fill-rule="evenodd"/><path d="M1389 201.5 1370.5 183 1370.5 127.5 1426 127.5 1444.5 146 1444.5 201.5ZM1389 201.5 1389 146 1370.5 127.5M1389 146 1444.5 146" stroke="#042433" stroke-width="6.875" stroke-miterlimit="8" fill="none" fill-rule="evenodd"/><rect x="1334" y="146" width="56.4999" height="55.4999" fill="#F6C6AD"/><path d="M1334 146 1315.5 127.5 1372 127.5 1390.5 146Z" fill="#C69F8B" fill-rule="evenodd"/><path d="M1334 201.5 1315.5 183 1315.5 127.5 1334 146Z" fill="#F8D1BD" fill-rule="evenodd"/><path d="M1334 201.5 1315.5 183 1315.5 127.5 1372 127.5 1390.5 146 1390.5 201.5ZM1334 201.5 1334 146 1315.5 127.5M1334 146 1390.5 146" stroke="#042433" stroke-width="6.875" stroke-miterlimit="8" fill="none" fill-rule="evenodd"/><rect x="1280" y="146" width="55.4999" height="55.4999" fill="#F6C6AD"/><path d="M1280 146 1261.5 127.5 1317 127.5 1335.5 146Z" fill="#C69F8B" fill-rule="evenodd"/><path d="M1280 201.5 1261.5 183 1261.5 127.5 1280 146Z" fill="#F8D1BD" fill-rule="evenodd"/><path d="M1280 201.5 1261.5 183 1261.5 127.5 1317 127.5 1335.5 146 1335.5 201.5ZM1280 201.5 1280 146 1261.5 127.5M1280 146 1335.5 146" stroke="#042433" stroke-width="6.875" stroke-miterlimit="8" fill="none" fill-rule="evenodd"/><rect x="1222" y="146" width="56.4999" height="55.4999" fill="#F6C6AD"/><path d="M1222 146 1203.5 127.5 1260 127.5 1278.5 146Z" fill="#C69F8B" fill-rule="evenodd"/><path d="M1222 201.5 1203.5 183 1203.5 127.5 1222 146Z" fill="#F8D1BD" fill-rule="evenodd"/><path d="M1222 201.5 1203.5 183 1203.5 127.5 1260 127.5 1278.5 146 1278.5 201.5ZM1222 201.5 1222 146 1203.5 127.5M1222 146 1278.5 146" stroke="#042433" stroke-width="6.875" stroke-miterlimit="8" fill="none" fill-rule="evenodd"/><rect x="1163" y="146" width="55.5002" height="55.4999" fill="#F6C6AD"/><path d="M1163 146 1144.5 127.5 1200 127.5 1218.5 146Z" fill="#C69F8B" fill-rule="evenodd"/><path d="M1163 201.5 1144.5 183 1144.5 127.5 1163 146Z" fill="#F8D1BD" fill-rule="evenodd"/><path d="M1163 201.5 1144.5 183 1144.5 127.5 1200 127.5 1218.5 146 1218.5 201.5ZM1163 201.5 1163 146 1144.5 127.5M1163 146 1218.5 146" stroke="#042433" stroke-width="6.875" stroke-miterlimit="8" fill="none" fill-rule="evenodd"/><rect x="3022.25" y="319.25" width="56.2502" height="56.2499" fill="#F2CFEE"/><path d="M3022.25 319.25 3003.5 300.5 3059.75 300.5 3078.5 319.25Z" fill="#C3A6BF" fill-rule="evenodd"/><path d="M3022.25 375.5 3003.5 356.75 3003.5 300.5 3022.25 319.25Z" fill="#F5D8F1" fill-rule="evenodd"/><path d="M3022.25 375.5 3003.5 356.75 3003.5 300.5 3059.75 300.5 3078.5 319.25 3078.5 375.5ZM3022.25 375.5 3022.25 319.25 3003.5 300.5M3022.25 319.25 3078.5 319.25" stroke="#9467BD" stroke-width="6.875" stroke-miterlimit="8" fill="none" fill-rule="evenodd"/><rect x="2965.25" y="319.25" width="56.25" height="56.2499" fill="#F2CFEE"/><path d="M2965.25 319.25 2946.5 300.5 3002.75 300.5 3021.5 319.25Z" fill="#C3A6BF" fill-rule="evenodd"/><path d="M2965.25 375.5 2946.5 356.75 2946.5 300.5 2965.25 319.25Z" fill="#F5D8F1" fill-rule="evenodd"/><path d="M2965.25 375.5 2946.5 356.75 2946.5 300.5 3002.75 300.5 3021.5 319.25 3021.5 375.5ZM2965.25 375.5 2965.25 319.25 2946.5 300.5M2965.25 319.25 3021.5 319.25" stroke="#9467BD" stroke-width="6.875" stroke-miterlimit="8" fill="none" fill-rule="evenodd"/><rect x="2911" y="319" width="55.5" height="56.4999" fill="#F2CFEE"/><path d="M2911 319 2892.5 300.5 2948 300.5 2966.5 319Z" fill="#C3A6BF" fill-rule="evenodd"/><path d="M2911 375.5 2892.5 357 2892.5 300.5 2911 319Z" fill="#F5D8F1" fill-rule="evenodd"/><path d="M2911 375.5 2892.5 357 2892.5 300.5 2948 300.5 2966.5 319 2966.5 375.5ZM2911 375.5 2911 319 2892.5 300.5M2911 319 2966.5 319" stroke="#9467BD" stroke-width="6.875" stroke-miterlimit="8" fill="none" fill-rule="evenodd"/><rect x="2856.25" y="319.25" width="56.25" height="56.2499" fill="#F2CFEE"/><path d="M2856.25 319.25 2837.5 300.5 2893.75 300.5 2912.5 319.25Z" fill="#C3A6BF" fill-rule="evenodd"/><path d="M2856.25 375.5 2837.5 356.75 2837.5 300.5 2856.25 319.25Z" fill="#F5D8F1" fill-rule="evenodd"/><path d="M2856.25 375.5 2837.5 356.75 2837.5 300.5 2893.75 300.5 2912.5 319.25 2912.5 375.5ZM2856.25 375.5 2856.25 319.25 2837.5 300.5M2856.25 319.25 2912.5 319.25" stroke="#9467BD" stroke-width="6.875" stroke-miterlimit="8" fill="none" fill-rule="evenodd"/><rect x="2798.25" y="319.25" width="56.25" height="56.2499" fill="#F2CFEE"/><path d="M2798.25 319.25 2779.5 300.5 2835.75 300.5 2854.5 319.25Z" fill="#C3A6BF" fill-rule="evenodd"/><path d="M2798.25 375.5 2779.5 356.75 2779.5 300.5 2798.25 319.25Z" fill="#F5D8F1" fill-rule="evenodd"/><path d="M2798.25 375.5 2779.5 356.75 2779.5 300.5 2835.75 300.5 2854.5 319.25 2854.5 375.5ZM2798.25 375.5 2798.25 319.25 2779.5 300.5M2798.25 319.25 2854.5 319.25" stroke="#9467BD" stroke-width="6.875" stroke-miterlimit="8" fill="none" fill-rule="evenodd"/><rect x="2739" y="319" width="55.5" height="56.4999" fill="#F2CFEE"/><path d="M2739 319 2720.5 300.5 2776 300.5 2794.5 319Z" fill="#C3A6BF" fill-rule="evenodd"/><path d="M2739 375.5 2720.5 357 2720.5 300.5 2739 319Z" fill="#F5D8F1" fill-rule="evenodd"/><path d="M2739 375.5 2720.5 357 2720.5 300.5 2776 300.5 2794.5 319 2794.5 375.5ZM2739 375.5 2739 319 2720.5 300.5M2739 319 2794.5 319" stroke="#9467BD" stroke-width="6.875" stroke-miterlimit="8" fill="none" fill-rule="evenodd"/><rect x="2687" y="319" width="55.5" height="56.4999" fill="#DCEAF7"/><path d="M2687 319 2668.5 300.5 2724 300.5 2742.5 319Z" fill="#B1BCC7" fill-rule="evenodd"/><path d="M2687 375.5 2668.5 357 2668.5 300.5 2687 319Z" fill="#E3EEF9" fill-rule="evenodd"/><path d="M2687 375.5 2668.5 357 2668.5 300.5 2724 300.5 2742.5 319 2742.5 375.5ZM2687 375.5 2687 319 2668.5 300.5M2687 319 2742.5 319" stroke="#15BECF" stroke-width="6.875" stroke-miterlimit="8" fill="none" fill-rule="evenodd"/><rect x="2630" y="319" width="55.5" height="56.4999" fill="#DCEAF7"/><path d="M2630 319 2611.5 300.5 2667 300.5 2685.5 319Z" fill="#B1BCC7" fill-rule="evenodd"/><path d="M2630 375.5 2611.5 357 2611.5 300.5 2630 319Z" fill="#E3EEF9" fill-rule="evenodd"/><path d="M2630 375.5 2611.5 357 2611.5 300.5 2667 300.5 2685.5 319 2685.5 375.5ZM2630 375.5 2630 319 2611.5 300.5M2630 319 2685.5 319" stroke="#15BECF" stroke-width="6.875" stroke-miterlimit="8" fill="none" fill-rule="evenodd"/><rect x="2575.25" y="319.25" width="56.25" height="56.2499" fill="#DCEAF7"/><path d="M2575.25 319.25 2556.5 300.5 2612.75 300.5 2631.5 319.25Z" fill="#B1BCC7" fill-rule="evenodd"/><path d="M2575.25 375.5 2556.5 356.75 2556.5 300.5 2575.25 319.25Z" fill="#E3EEF9" fill-rule="evenodd"/><path d="M2575.25 375.5 2556.5 356.75 2556.5 300.5 2612.75 300.5 2631.5 319.25 2631.5 375.5ZM2575.25 375.5 2575.25 319.25 2556.5 300.5M2575.25 319.25 2631.5 319.25" stroke="#15BECF" stroke-width="6.875" stroke-miterlimit="8" fill="none" fill-rule="evenodd"/><rect x="2521" y="319" width="55.5" height="56.4999" fill="#DCEAF7"/><path d="M2521 319 2502.5 300.5 2558 300.5 2576.5 319Z" fill="#B1BCC7" fill-rule="evenodd"/><path d="M2521 375.5 2502.5 357 2502.5 300.5 2521 319Z" fill="#E3EEF9" fill-rule="evenodd"/><path d="M2521 375.5 2502.5 357 2502.5 300.5 2558 300.5 2576.5 319 2576.5 375.5ZM2521 375.5 2521 319 2502.5 300.5M2521 319 2576.5 319" stroke="#15BECF" stroke-width="6.875" stroke-miterlimit="8" fill="none" fill-rule="evenodd"/><rect x="2463.25" y="319.25" width="56.25" height="56.2499" fill="#DCEAF7"/><path d="M2463.25 319.25 2444.5 300.5 2500.75 300.5 2519.5 319.25Z" fill="#B1BCC7" fill-rule="evenodd"/><path d="M2463.25 375.5 2444.5 356.75 2444.5 300.5 2463.25 319.25Z" fill="#E3EEF9" fill-rule="evenodd"/><path d="M2463.25 375.5 2444.5 356.75 2444.5 300.5 2500.75 300.5 2519.5 319.25 2519.5 375.5ZM2463.25 375.5 2463.25 319.25 2444.5 300.5M2463.25 319.25 2519.5 319.25" stroke="#15BECF" stroke-width="6.875" stroke-miterlimit="8" fill="none" fill-rule="evenodd"/><rect x="2404" y="319" width="55.5" height="56.4999" fill="#DCEAF7"/><path d="M2404 319 2385.5 300.5 2441 300.5 2459.5 319Z" fill="#B1BCC7" fill-rule="evenodd"/><path d="M2404 375.5 2385.5 357 2385.5 300.5 2404 319Z" fill="#E3EEF9" fill-rule="evenodd"/><path d="M2404 375.5 2385.5 357 2385.5 300.5 2441 300.5 2459.5 319 2459.5 375.5ZM2404 375.5 2404 319 2385.5 300.5M2404 319 2459.5 319" stroke="#15BECF" stroke-width="6.875" stroke-miterlimit="8" fill="none" fill-rule="evenodd"/><rect x="2342" y="319" width="55.4998" height="56.4999" fill="#96DCF8"/><path d="M2342 319 2323.5 300.5 2379 300.5 2397.5 319Z" fill="#79B1C7" fill-rule="evenodd"/><path d="M2342 375.5 2323.5 357 2323.5 300.5 2342 319Z" fill="#ABE3F9" fill-rule="evenodd"/><path d="M2342 375.5 2323.5 357 2323.5 300.5 2379 300.5 2397.5 319 2397.5 375.5ZM2342 375.5 2342 319 2323.5 300.5M2342 319 2397.5 319" stroke="#042433" stroke-width="6.875" stroke-miterlimit="8" fill="none" fill-rule="evenodd"/><rect x="2285" y="319" width="55.4998" height="56.4999" fill="#96DCF8"/><path d="M2285 319 2266.5 300.5 2322 300.5 2340.5 319Z" fill="#79B1C7" fill-rule="evenodd"/><path d="M2285 375.5 2266.5 357 2266.5 300.5 2285 319Z" fill="#ABE3F9" fill-rule="evenodd"/><path d="M2285 375.5 2266.5 357 2266.5 300.5 2322 300.5 2340.5 319 2340.5 375.5ZM2285 375.5 2285 319 2266.5 300.5M2285 319 2340.5 319" stroke="#042433" stroke-width="6.875" stroke-miterlimit="8" fill="none" fill-rule="evenodd"/><rect x="2230.25" y="319.25" width="56.2502" height="56.2499" fill="#96DCF8"/><path d="M2230.25 319.25 2211.5 300.5 2267.75 300.5 2286.5 319.25Z" fill="#79B1C7" fill-rule="evenodd"/><path d="M2230.25 375.5 2211.5 356.75 2211.5 300.5 2230.25 319.25Z" fill="#ABE3F9" fill-rule="evenodd"/><path d="M2230.25 375.5 2211.5 356.75 2211.5 300.5 2267.75 300.5 2286.5 319.25 2286.5 375.5ZM2230.25 375.5 2230.25 319.25 2211.5 300.5M2230.25 319.25 2286.5 319.25" stroke="#042433" stroke-width="6.875" stroke-miterlimit="8" fill="none" fill-rule="evenodd"/><rect x="2176" y="319" width="55.4998" height="56.4999" fill="#96DCF8"/><path d="M2176 319 2157.5 300.5 2213 300.5 2231.5 319Z" fill="#79B1C7" fill-rule="evenodd"/><path d="M2176 375.5 2157.5 357 2157.5 300.5 2176 319Z" fill="#ABE3F9" fill-rule="evenodd"/><path d="M2176 375.5 2157.5 357 2157.5 300.5 2213 300.5 2231.5 319 2231.5 375.5ZM2176 375.5 2176 319 2157.5 300.5M2176 319 2231.5 319" stroke="#042433" stroke-width="6.875" stroke-miterlimit="8" fill="none" fill-rule="evenodd"/><rect x="2118" y="319" width="55.5" height="56.4999" fill="#96DCF8"/><path d="M2118 319 2099.5 300.5 2155 300.5 2173.5 319Z" fill="#79B1C7" fill-rule="evenodd"/><path d="M2118 375.5 2099.5 357 2099.5 300.5 2118 319Z" fill="#ABE3F9" fill-rule="evenodd"/><path d="M2118 375.5 2099.5 357 2099.5 300.5 2155 300.5 2173.5 319 2173.5 375.5ZM2118 375.5 2118 319 2099.5 300.5M2118 319 2173.5 319" stroke="#042433" stroke-width="6.875" stroke-miterlimit="8" fill="none" fill-rule="evenodd"/><rect x="2058.25" y="319.25" width="56.25" height="56.2499" fill="#96DCF8"/><path d="M2058.25 319.25 2039.5 300.5 2095.75 300.5 2114.5 319.25Z" fill="#79B1C7" fill-rule="evenodd"/><path d="M2058.25 375.5 2039.5 356.75 2039.5 300.5 2058.25 319.25Z" fill="#ABE3F9" fill-rule="evenodd"/><path d="M2058.25 375.5 2039.5 356.75 2039.5 300.5 2095.75 300.5 2114.5 319.25 2114.5 375.5ZM2058.25 375.5 2058.25 319.25 2039.5 300.5M2058.25 319.25 2114.5 319.25" stroke="#042433" stroke-width="6.875" stroke-miterlimit="8" fill="none" fill-rule="evenodd"/><text font-family="Times New Roman,Times New Roman_MSFontService,sans-serif" font-weight="700" font-size="83" transform="matrix(1 0 0 1 691.075 590)">SMILES</text><path d="M0-3.4375 88.8881-3.4375 88.8881 93.0352 85.4506 89.5977 187.984 89.5977 187.984 96.4727 82.0131 96.4727 82.0131 0 85.4506 3.4375 0 3.4375ZM183.401 79.2852 210.901 93.0352 183.401 106.785Z" fill="#156082" transform="matrix(1 0 0 -1 951.5 266.535)"/><path d="M0-3.4375 225.268-3.4375 225.268 664.318 221.831 660.881 327.411 660.881 327.411 667.756 218.393 667.756 218.393 0 221.831 3.4375 0 3.4375ZM322.828 650.568 350.328 664.318 322.828 678.068Z" fill="#156082" transform="matrix(1 0 0 -1 812.5 837.819)"/><path d="M0-3.4375 225.228-3.4375 225.228 1202.81 221.791 1199.38 327.331 1199.38 327.331 1206.25 218.353 1206.25 218.353 0 221.791 3.4375 0 3.4375ZM322.747 1189.06 350.247 1202.81 322.747 1216.56Z" fill="#156082" transform="matrix(1 0 0 -1 812.5 1376.31)"/><rect x="739.5" y="2158" width="56.4999" height="55.5" fill="#84E291"/><path d="M796 2158 814.5 2139.5 814.5 2195 796 2213.5Z" fill="#6AB675" fill-rule="evenodd"/><path d="M739.5 2158 758 2139.5 814.5 2139.5 796 2158Z" fill="#9CE8A7" fill-rule="evenodd"/><path d="M739.5 2158 758 2139.5 814.5 2139.5 814.5 2195 796 2213.5 739.5 2213.5ZM739.5 2158 796 2158 814.5 2139.5M796 2158 796 2213.5" stroke="#000000" stroke-width="6.875" stroke-miterlimit="8" fill="none" fill-rule="evenodd"/><rect x="739.5" y="2101" width="56.4999" height="55.5" fill="#84E291"/><path d="M796 2101 814.5 2082.5 814.5 2138 796 2156.5Z" fill="#6AB675" fill-rule="evenodd"/><path d="M739.5 2101 758 2082.5 814.5 2082.5 796 2101Z" fill="#9CE8A7" fill-rule="evenodd"/><path d="M739.5 2101 758 2082.5 814.5 2082.5 814.5 2138 796 2156.5 739.5 2156.5ZM739.5 2101 796 2101 814.5 2082.5M796 2101 796 2156.5" stroke="#000000" stroke-width="6.875" stroke-miterlimit="8" fill="none" fill-rule="evenodd"/><rect x="739.5" y="2046.25" width="56.2499" height="56.2499" fill="#84E291"/><path d="M795.75 2046.25 814.5 2027.5 814.5 2083.75 795.75 2102.5Z" fill="#6AB675" fill-rule="evenodd"/><path d="M739.5 2046.25 758.25 2027.5 814.5 2027.5 795.75 2046.25Z" fill="#9CE8A7" fill-rule="evenodd"/><path d="M739.5 2046.25 758.25 2027.5 814.5 2027.5 814.5 2083.75 795.75 2102.5 739.5 2102.5ZM739.5 2046.25 795.75 2046.25 814.5 2027.5M795.75 2046.25 795.75 2102.5" stroke="#000000" stroke-width="6.875" stroke-miterlimit="8" fill="none" fill-rule="evenodd"/><rect x="739.5" y="1992" width="56.4999" height="55.4999" fill="#84E291"/><path d="M796 1992 814.5 1973.5 814.5 2029 796 2047.5Z" fill="#6AB675" fill-rule="evenodd"/><path d="M739.5 1992 758 1973.5 814.5 1973.5 796 1992Z" fill="#9CE8A7" fill-rule="evenodd"/><path d="M739.5 1992 758 1973.5 814.5 1973.5 814.5 2029 796 2047.5 739.5 2047.5ZM739.5 1992 796 1992 814.5 1973.5M796 1992 796 2047.5" stroke="#000000" stroke-width="6.875" stroke-miterlimit="8" fill="none" fill-rule="evenodd"/><rect x="739.5" y="1934.25" width="56.2499" height="56.2502" fill="#84E291"/><path d="M795.75 1934.25 814.5 1915.5 814.5 1971.75 795.75 1990.5Z" fill="#6AB675" fill-rule="evenodd"/><path d="M739.5 1934.25 758.25 1915.5 814.5 1915.5 795.75 1934.25Z" fill="#9CE8A7" fill-rule="evenodd"/><path d="M739.5 1934.25 758.25 1915.5 814.5 1915.5 814.5 1971.75 795.75 1990.5 739.5 1990.5ZM739.5 1934.25 795.75 1934.25 814.5 1915.5M795.75 1934.25 795.75 1990.5" stroke="#000000" stroke-width="6.875" stroke-miterlimit="8" fill="none" fill-rule="evenodd"/><rect x="739.5" y="1875" width="56.4999" height="55.4999" fill="#84E291"/><path d="M796 1875 814.5 1856.5 814.5 1912 796 1930.5Z" fill="#6AB675" fill-rule="evenodd"/><path d="M739.5 1875 758 1856.5 814.5 1856.5 796 1875Z" fill="#9CE8A7" fill-rule="evenodd"/><path d="M739.5 1875 758 1856.5 814.5 1856.5 814.5 1912 796 1930.5 739.5 1930.5ZM739.5 1875 796 1875 814.5 1856.5M796 1875 796 1930.5" stroke="#000000" stroke-width="6.875" stroke-miterlimit="8" fill="none" fill-rule="evenodd"/><rect x="2115" y="589" width="56.5" height="55.4999" fill="#F2CFEE"/><path d="M2115 589 2096.5 570.5 2153 570.5 2171.5 589Z" fill="#C3A6BF" fill-rule="evenodd"/><path d="M2115 644.5 2096.5 626 2096.5 570.5 2115 589Z" fill="#F5D8F1" fill-rule="evenodd"/><path d="M2115 644.5 2096.5 626 2096.5 570.5 2153 570.5 2171.5 589 2171.5 644.5ZM2115 644.5 2115 589 2096.5 570.5M2115 589 2171.5 589" stroke="#9467BD" stroke-width="6.875" stroke-miterlimit="8" fill="none" fill-rule="evenodd"/><rect x="2058" y="589" width="56.5" height="55.4999" fill="#F2CFEE"/><path d="M2058 589 2039.5 570.5 2096 570.5 2114.5 589Z" fill="#C3A6BF" fill-rule="evenodd"/><path d="M2058 644.5 2039.5 626 2039.5 570.5 2058 589Z" fill="#F5D8F1" fill-rule="evenodd"/><path d="M2058 644.5 2039.5 626 2039.5 570.5 2096 570.5 2114.5 589 2114.5 644.5ZM2058 644.5 2058 589 2039.5 570.5M2058 589 2114.5 589" stroke="#9467BD" stroke-width="6.875" stroke-miterlimit="8" fill="none" fill-rule="evenodd"/><rect x="2004" y="589" width="56.4999" height="55.4999" fill="#F2CFEE"/><path d="M2004 589 1985.5 570.5 2042 570.5 2060.5 589Z" fill="#C3A6BF" fill-rule="evenodd"/><path d="M2004 644.5 1985.5 626 1985.5 570.5 2004 589Z" fill="#F5D8F1" fill-rule="evenodd"/><path d="M2004 644.5 1985.5 626 1985.5 570.5 2042 570.5 2060.5 589 2060.5 644.5ZM2004 644.5 2004 589 1985.5 570.5M2004 589 2060.5 589" stroke="#9467BD" stroke-width="6.875" stroke-miterlimit="8" fill="none" fill-rule="evenodd"/><rect x="1949" y="589" width="56.4999" height="55.4999" fill="#F2CFEE"/><path d="M1949 589 1930.5 570.5 1987 570.5 2005.5 589Z" fill="#C3A6BF" fill-rule="evenodd"/><path d="M1949 644.5 1930.5 626 1930.5 570.5 1949 589Z" fill="#F5D8F1" fill-rule="evenodd"/><path d="M1949 644.5 1930.5 626 1930.5 570.5 1987 570.5 2005.5 589 2005.5 644.5ZM1949 644.5 1949 589 1930.5 570.5M1949 589 2005.5 589" stroke="#9467BD" stroke-width="6.875" stroke-miterlimit="8" fill="none" fill-rule="evenodd"/><rect x="1892" y="589" width="55.4999" height="55.4999" fill="#F2CFEE"/><path d="M1892 589 1873.5 570.5 1929 570.5 1947.5 589Z" fill="#C3A6BF" fill-rule="evenodd"/><path d="M1892 644.5 1873.5 626 1873.5 570.5 1892 589Z" fill="#F5D8F1" fill-rule="evenodd"/><path d="M1892 644.5 1873.5 626 1873.5 570.5 1929 570.5 1947.5 589 1947.5 644.5ZM1892 644.5 1892 589 1873.5 570.5M1892 589 1947.5 589" stroke="#9467BD" stroke-width="6.875" stroke-miterlimit="8" fill="none" fill-rule="evenodd"/><rect x="1832" y="589" width="56.4999" height="55.4999" fill="#F2CFEE"/><path d="M1832 589 1813.5 570.5 1870 570.5 1888.5 589Z" fill="#C3A6BF" fill-rule="evenodd"/><path d="M1832 644.5 1813.5 626 1813.5 570.5 1832 589Z" fill="#F5D8F1" fill-rule="evenodd"/><path d="M1832 644.5 1813.5 626 1813.5 570.5 1870 570.5 1888.5 589 1888.5 644.5ZM1832 644.5 1832 589 1813.5 570.5M1832 589 1888.5 589" stroke="#9467BD" stroke-width="6.875" stroke-miterlimit="8" fill="none" fill-rule="evenodd"/><rect x="1778" y="589" width="55.4999" height="55.4999" fill="#DCEAF7"/><path d="M1778 589 1759.5 570.5 1815 570.5 1833.5 589Z" fill="#B1BCC7" fill-rule="evenodd"/><path d="M1778 644.5 1759.5 626 1759.5 570.5 1778 589Z" fill="#E3EEF9" fill-rule="evenodd"/><path d="M1778 644.5 1759.5 626 1759.5 570.5 1815 570.5 1833.5 589 1833.5 644.5ZM1778 644.5 1778 589 1759.5 570.5M1778 589 1833.5 589" stroke="#15BECF" stroke-width="6.875" stroke-miterlimit="8" fill="none" fill-rule="evenodd"/><rect x="1721" y="589" width="55.4999" height="55.4999" fill="#DCEAF7"/><path d="M1721 589 1702.5 570.5 1758 570.5 1776.5 589Z" fill="#B1BCC7" fill-rule="evenodd"/><path d="M1721 644.5 1702.5 626 1702.5 570.5 1721 589Z" fill="#E3EEF9" fill-rule="evenodd"/><path d="M1721 644.5 1702.5 626 1702.5 570.5 1758 570.5 1776.5 589 1776.5 644.5ZM1721 644.5 1721 589 1702.5 570.5M1721 589 1776.5 589" stroke="#15BECF" stroke-width="6.875" stroke-miterlimit="8" fill="none" fill-rule="evenodd"/><rect x="1666" y="589" width="56.4999" height="55.4999" fill="#DCEAF7"/><path d="M1666 589 1647.5 570.5 1704 570.5 1722.5 589Z" fill="#B1BCC7" fill-rule="evenodd"/><path d="M1666 644.5 1647.5 626 1647.5 570.5 1666 589Z" fill="#E3EEF9" fill-rule="evenodd"/><path d="M1666 644.5 1647.5 626 1647.5 570.5 1704 570.5 1722.5 589 1722.5 644.5ZM1666 644.5 1666 589 1647.5 570.5M1666 589 1722.5 589" stroke="#15BECF" stroke-width="6.875" stroke-miterlimit="8" fill="none" fill-rule="evenodd"/><rect x="1612" y="589" width="56.4999" height="55.4999" fill="#DCEAF7"/><path d="M1612 589 1593.5 570.5 1650 570.5 1668.5 589Z" fill="#B1BCC7" fill-rule="evenodd"/><path d="M1612 644.5 1593.5 626 1593.5 570.5 1612 589Z" fill="#E3EEF9" fill-rule="evenodd"/><path d="M1612 644.5 1593.5 626 1593.5 570.5 1650 570.5 1668.5 589 1668.5 644.5ZM1612 644.5 1612 589 1593.5 570.5M1612 589 1668.5 589" stroke="#15BECF" stroke-width="6.875" stroke-miterlimit="8" fill="none" fill-rule="evenodd"/><rect x="1554" y="589" width="56.4999" height="55.4999" fill="#DCEAF7"/><path d="M1554 589 1535.5 570.5 1592 570.5 1610.5 589Z" fill="#B1BCC7" fill-rule="evenodd"/><path d="M1554 644.5 1535.5 626 1535.5 570.5 1554 589Z" fill="#E3EEF9" fill-rule="evenodd"/><path d="M1554 644.5 1535.5 626 1535.5 570.5 1592 570.5 1610.5 589 1610.5 644.5ZM1554 644.5 1554 589 1535.5 570.5M1554 589 1610.5 589" stroke="#15BECF" stroke-width="6.875" stroke-miterlimit="8" fill="none" fill-rule="evenodd"/><rect x="1495" y="589" width="55.5002" height="55.4999" fill="#DCEAF7"/><path d="M1495 589 1476.5 570.5 1532 570.5 1550.5 589Z" fill="#B1BCC7" fill-rule="evenodd"/><path d="M1495 644.5 1476.5 626 1476.5 570.5 1495 589Z" fill="#E3EEF9" fill-rule="evenodd"/><path d="M1495 644.5 1476.5 626 1476.5 570.5 1532 570.5 1550.5 589 1550.5 644.5ZM1495 644.5 1495 589 1476.5 570.5M1495 589 1550.5 589" stroke="#15BECF" stroke-width="6.875" stroke-miterlimit="8" fill="none" fill-rule="evenodd"/><rect x="1439" y="589" width="55.5002" height="55.4999" fill="#84E291"/><path d="M1439 589 1420.5 570.5 1476 570.5 1494.5 589Z" fill="#6AB675" fill-rule="evenodd"/><path d="M1439 644.5 1420.5 626 1420.5 570.5 1439 589Z" fill="#9CE8A7" fill-rule="evenodd"/><path d="M1439 644.5 1420.5 626 1420.5 570.5 1476 570.5 1494.5 589 1494.5 644.5ZM1439 644.5 1439 589 1420.5 570.5M1439 589 1494.5 589" stroke="#042433" stroke-width="6.875" stroke-miterlimit="8" fill="none" fill-rule="evenodd"/><rect x="1382" y="589" width="55.4999" height="55.4999" fill="#84E291"/><path d="M1382 589 1363.5 570.5 1419 570.5 1437.5 589Z" fill="#6AB675" fill-rule="evenodd"/><path d="M1382 644.5 1363.5 626 1363.5 570.5 1382 589Z" fill="#9CE8A7" fill-rule="evenodd"/><path d="M1382 644.5 1363.5 626 1363.5 570.5 1419 570.5 1437.5 589 1437.5 644.5ZM1382 644.5 1382 589 1363.5 570.5M1382 589 1437.5 589" stroke="#042433" stroke-width="6.875" stroke-miterlimit="8" fill="none" fill-rule="evenodd"/><rect x="1327" y="589" width="56.4999" height="55.4999" fill="#84E291"/><path d="M1327 589 1308.5 570.5 1365 570.5 1383.5 589Z" fill="#6AB675" fill-rule="evenodd"/><path d="M1327 644.5 1308.5 626 1308.5 570.5 1327 589Z" fill="#9CE8A7" fill-rule="evenodd"/><path d="M1327 644.5 1308.5 626 1308.5 570.5 1365 570.5 1383.5 589 1383.5 644.5ZM1327 644.5 1327 589 1308.5 570.5M1327 589 1383.5 589" stroke="#042433" stroke-width="6.875" stroke-miterlimit="8" fill="none" fill-rule="evenodd"/><rect x="1273" y="589" width="55.5002" height="55.4999" fill="#84E291"/><path d="M1273 589 1254.5 570.5 1310 570.5 1328.5 589Z" fill="#6AB675" fill-rule="evenodd"/><path d="M1273 644.5 1254.5 626 1254.5 570.5 1273 589Z" fill="#9CE8A7" fill-rule="evenodd"/><path d="M1273 644.5 1254.5 626 1254.5 570.5 1310 570.5 1328.5 589 1328.5 644.5ZM1273 644.5 1273 589 1254.5 570.5M1273 589 1328.5 589" stroke="#042433" stroke-width="6.875" stroke-miterlimit="8" fill="none" fill-rule="evenodd"/><rect x="1215" y="589" width="55.4999" height="55.4999" fill="#84E291"/><path d="M1215 589 1196.5 570.5 1252 570.5 1270.5 589Z" fill="#6AB675" fill-rule="evenodd"/><path d="M1215 644.5 1196.5 626 1196.5 570.5 1215 589Z" fill="#9CE8A7" fill-rule="evenodd"/><path d="M1215 644.5 1196.5 626 1196.5 570.5 1252 570.5 1270.5 589 1270.5 644.5ZM1215 644.5 1215 589 1196.5 570.5M1215 589 1270.5 589" stroke="#042433" stroke-width="6.875" stroke-miterlimit="8" fill="none" fill-rule="evenodd"/><rect x="1155" y="589" width="56.4999" height="55.4999" fill="#84E291"/><path d="M1155 589 1136.5 570.5 1193 570.5 1211.5 589Z" fill="#6AB675" fill-rule="evenodd"/><path d="M1155 644.5 1136.5 626 1136.5 570.5 1155 589Z" fill="#9CE8A7" fill-rule="evenodd"/><path d="M1155 644.5 1136.5 626 1136.5 570.5 1193 570.5 1211.5 589 1211.5 644.5ZM1155 644.5 1155 589 1136.5 570.5M1155 589 1211.5 589" stroke="#042433" stroke-width="6.875" stroke-miterlimit="8" fill="none" fill-rule="evenodd"/><path d="M0-3.4375 106.36-3.4375 106.36 110.617 102.923 107.18 182.928 107.18 182.928 114.055 99.485 114.055 99.485 0 102.923 3.4375 0 3.4375ZM178.345 96.8671 205.845 110.617 178.345 124.367Z" fill="#156082" transform="matrix(1 0 0 -1 534.5 2131.12)"/><path d="M0-3.4375 164.645-3.4375 164.645 1403.14 161.208 1399.7 299.497 1399.7 299.497 1406.58 157.77 1406.58 157.77 0 161.208 3.4375 0 3.4375ZM294.914 1389.39 322.414 1403.14 294.914 1416.89Z" fill="#156082" transform="matrix(1 0 0 -1 814.5 2001.64)"/><path d="M0-3.4375 165.712-3.4375 165.712 352.252 162.275 348.814 301.633 348.814 301.633 355.689 158.837 355.689 158.837 0 162.275 3.4375 0 3.4375ZM297.049 338.502 324.549 352.252 297.049 366.002Z" fill="#156082" transform="matrix(1 0 0 -1 812.5 950.752)"/><path d="M0-3.4375 165.673-3.4375 165.673 890.747 162.235 887.31 301.553 887.31 301.553 894.185 158.798 894.185 158.798 0 162.235 3.4375 0 3.4375ZM296.969 876.997 324.469 890.747 296.969 904.497Z" fill="#156082" transform="matrix(1 0 0 -1 812.5 1489.25)"/><text font-family="Times New Roman,Times New Roman_MSFontService,sans-serif" font-weight="700" font-size="83" transform="matrix(1 0 0 1 2262 634)">Tokenized SMILES</text><rect x="1087" y="821" width="2030" height="1407" fill="#F2F2F2"/><text font-family="Times New Roman,Times New Roman_MSFontService,sans-serif" font-weight="700" font-size="83" transform="matrix(1 0 0 1 1119.26 2041)">Embedding</text><text font-family="Times New Roman,Times New Roman_MSFontService,sans-serif" font-weight="700" font-size="83" transform="matrix(1 0 0 1 1669.14 2041)">BiLSTM</text><path d="M2297.79 1149.07 2300.83 1149.33 2304.09 1150.15 2307.27 1151.46 2310.36 1153.21 2313.35 1155.39 2316.26 1157.95 2319.08 1160.88 2321.87 1164.2 2327.13 1171.73 2332.14 1180.55 2336.85 1190.5 2341.24 1201.49 2345.26 1213.39 2348.88 1226.11 2352.05 1239.52 2354.75 1253.52 2356.92 1267.99 2358.53 1282.81 2359.52 1297.87 2359.86 1312.98 2360.2 1328.01 2360.19 1327.86 2361.18 1342.77 2361.17 1342.63 2362.75 1357.31 2362.74 1357.17 2364.89 1371.49 2364.86 1371.36 2367.53 1385.21 2367.5 1385.07 2370.64 1398.34 2370.61 1398.19 2374.18 1410.75 2374.13 1410.59 2378.09 1422.33 2378.03 1422.16 2382.34 1432.96 2382.25 1432.76 2386.86 1442.5 2386.75 1442.27 2391.61 1450.84 2391.13 1450.18 2398.87 1458.4 2393.87 1463.11 2385.84 1454.59 2380.71 1445.56 2375.99 1435.6 2371.61 1424.62 2367.59 1412.71 2363.97 1400 2360.79 1386.58 2358.1 1372.59 2355.93 1358.12 2354.32 1343.3 2353.33 1328.24 2352.99 1313.13 2352.65 1298.1 2352.66 1298.25 2351.67 1283.33 2351.68 1283.48 2350.09 1268.8 2350.11 1268.94 2347.96 1254.61 2347.98 1254.75 2345.32 1240.89 2345.35 1241.04 2342.2 1227.77 2342.24 1227.92 2338.67 1215.35 2338.72 1215.51 2334.75 1203.77 2334.82 1203.95 2330.51 1193.15 2330.59 1193.34 2325.98 1183.6 2326.1 1183.83 2321.23 1175.27 2321.4 1175.54 2316.32 1168.27 2316.5 1168.51 2313.89 1165.39 2314.05 1165.57 2311.4 1162.82 2311.6 1163.02 2308.92 1160.65 2309.18 1160.85 2306.47 1158.89 2306.79 1159.09 2304.06 1157.54 2304.45 1157.73 2301.71 1156.6 2302.18 1156.76 2299.43 1156.07 2299.97 1156.16 2297.21 1155.93ZM2400.29 1446.8 2415.35 1473.6 2384.87 1469.57Z" fill="#156082"/><path d="M2293.68 1365.07 2299.57 1365.38 2305.57 1366.31 2311.46 1367.81 2317.19 1369.83 2322.72 1372.33 2328.01 1375.27 2333.02 1378.62 2337.7 1382.33 2342.02 1386.37 2345.92 1390.71 2349.37 1395.32 2352.31 1400.15 2354.7 1405.18 2356.48 1410.37 2357.59 1415.7 2357.96 1420.85 2358.31 1425.78 2358.24 1425.32 2359.27 1430.2 2359.15 1429.79 2360.8 1434.6 2360.65 1434.24 2362.88 1438.93 2362.71 1438.62 2365.47 1443.16 2365.29 1442.89 2368.54 1447.23 2368.35 1447 2372.05 1451.11 2371.85 1450.9 2375.95 1454.75 2375.74 1454.56 2380.2 1458.1 2379.97 1457.94 2384.75 1461.13 2384.51 1460.98 2389.55 1463.79 2388.81 1463.48 2394.21 1464.99 2392.36 1471.61 2386.57 1469.99 2381.05 1466.92 2376.04 1463.57 2371.35 1459.86 2367.04 1455.82 2363.13 1451.48 2359.69 1446.88 2356.75 1442.04 2354.36 1437.01 2352.58 1431.82 2351.47 1426.5 2351.1 1421.34 2350.75 1416.42 2350.81 1416.87 2349.79 1411.99 2349.91 1412.4 2348.26 1407.59 2348.41 1407.95 2346.18 1403.26 2346.35 1403.57 2343.58 1399.03 2343.77 1399.3 2340.51 1394.96 2340.71 1395.2 2337.01 1391.08 2337.21 1391.29 2333.11 1387.44 2333.32 1387.63 2328.86 1384.09 2329.09 1384.26 2324.31 1381.07 2324.55 1381.21 2319.51 1378.41 2319.76 1378.53 2314.49 1376.15 2314.77 1376.26 2309.32 1374.34 2309.62 1374.43 2304.04 1373.01 2304.36 1373.08 2298.69 1372.2 2299.03 1372.23 2293.32 1371.93ZM2392.07 1453.86 2415.56 1473.69 2385.59 1480.58Z" fill="#156082"/><path d="M1176.37 1146.21 1253.03 1146.21 1253.03 1221.18 1176.37 1221.18Z" fill="#F6C6AD" fill-rule="evenodd"/><path d="M1253.03 1146.21 1329.69 1146.21 1329.69 1221.18 1253.03 1221.18Z" fill="#DCEAF7" fill-rule="evenodd"/><path d="M1329.69 1146.21 1406.35 1146.21 1406.35 1221.18 1329.69 1221.18Z" fill="#F2CFEE" fill-rule="evenodd"/><path d="M1253.03 1143.92 1253.03 1223.47" stroke="#000000" stroke-width="4.58333" stroke-linejoin="round" stroke-miterlimit="10" fill="none" fill-rule="evenodd"/><path d="M1329.69 1143.92 1329.69 1223.47" stroke="#000000" stroke-width="4.58333" stroke-linejoin="round" stroke-miterlimit="10" fill="none" fill-rule="evenodd"/><path d="M1176.37 1143.92 1176.37 1223.47" stroke="#000000" stroke-width="4.58333" stroke-linejoin="round" stroke-miterlimit="10" fill="none" fill-rule="evenodd"/><path d="M1406.35 1143.92 1406.35 1223.47" stroke="#000000" stroke-width="4.58333" stroke-linejoin="round" stroke-miterlimit="10" fill="none" fill-rule="evenodd"/><path d="M1174.07 1146.21 1408.64 1146.21" stroke="#000000" stroke-width="4.58333" stroke-linejoin="round" stroke-miterlimit="10" fill="none" fill-rule="evenodd"/><path d="M1174.07 1221.18 1408.64 1221.18" stroke="#000000" stroke-width="4.58333" stroke-linejoin="round" stroke-miterlimit="10" fill="none" fill-rule="evenodd"/><path d="M1176.37 1343.49 1253.03 1343.49 1253.03 1418.46 1176.37 1418.46Z" fill="#F6C6AD" fill-rule="evenodd"/><path d="M1253.03 1343.49 1329.69 1343.49 1329.69 1418.46 1253.03 1418.46Z" fill="#DCEAF7" fill-rule="evenodd"/><path d="M1329.69 1343.49 1406.35 1343.49 1406.35 1418.46 1329.69 1418.46Z" fill="#F2CFEE" fill-rule="evenodd"/><path d="M1253.03 1341.2 1253.03 1420.75" stroke="#000000" stroke-width="4.58333" stroke-linejoin="round" stroke-miterlimit="10" fill="none" fill-rule="evenodd"/><path d="M1329.69 1341.2 1329.69 1420.75" stroke="#000000" stroke-width="4.58333" stroke-linejoin="round" stroke-miterlimit="10" fill="none" fill-rule="evenodd"/><path d="M1176.37 1341.2 1176.37 1420.75" stroke="#000000" stroke-width="4.58333" stroke-linejoin="round" stroke-miterlimit="10" fill="none" fill-rule="evenodd"/><path d="M1406.35 1341.2 1406.35 1420.75" stroke="#000000" stroke-width="4.58333" stroke-linejoin="round" stroke-miterlimit="10" fill="none" fill-rule="evenodd"/><path d="M1174.07 1343.49 1408.64 1343.49" stroke="#000000" stroke-width="4.58333" stroke-linejoin="round" stroke-miterlimit="10" fill="none" fill-rule="evenodd"/><path d="M1174.07 1418.46 1408.64 1418.46" stroke="#000000" stroke-width="4.58333" stroke-linejoin="round" stroke-miterlimit="10" fill="none" fill-rule="evenodd"/><path d="M1176.17 1538.57 1252.83 1538.57 1252.83 1613.53 1176.17 1613.53Z" fill="#84E291" fill-rule="evenodd"/><path d="M1252.83 1538.57 1329.49 1538.57 1329.49 1613.53 1252.83 1613.53Z" fill="#DCEAF7" fill-rule="evenodd"/><path d="M1329.49 1538.57 1406.15 1538.57 1406.15 1613.53 1329.49 1613.53Z" fill="#F2CFEE" fill-rule="evenodd"/><path d="M1252.83 1536.27 1252.83 1615.83" stroke="#000000" stroke-width="4.58333" stroke-linejoin="round" stroke-miterlimit="10" fill="none" fill-rule="evenodd"/><path d="M1329.49 1536.27 1329.49 1615.83" stroke="#000000" stroke-width="4.58333" stroke-linejoin="round" stroke-miterlimit="10" fill="none" fill-rule="evenodd"/><path d="M1176.17 1536.27 1176.17 1615.83" stroke="#000000" stroke-width="4.58333" stroke-linejoin="round" stroke-miterlimit="10" fill="none" fill-rule="evenodd"/><path d="M1406.15 1536.27 1406.15 1615.83" stroke="#000000" stroke-width="4.58333" stroke-linejoin="round" stroke-miterlimit="10" fill="none" fill-rule="evenodd"/><path d="M1173.88 1538.57 1408.44 1538.57" stroke="#000000" stroke-width="4.58333" stroke-linejoin="round" stroke-miterlimit="10" fill="none" fill-rule="evenodd"/><path d="M1173.88 1613.53 1408.44 1613.53" stroke="#000000" stroke-width="4.58333" stroke-linejoin="round" stroke-miterlimit="10" fill="none" fill-rule="evenodd"/><path d="M1176.17 1733.06 1252.83 1733.06 1252.83 1808.03 1176.17 1808.03Z" fill="#84E291" fill-rule="evenodd"/><path d="M1252.83 1733.06 1329.49 1733.06 1329.49 1808.03 1252.83 1808.03Z" fill="#DCEAF7" fill-rule="evenodd"/><path d="M1329.49 1733.06 1406.15 1733.06 1406.15 1808.03 1329.49 1808.03Z" fill="#F2CFEE" fill-rule="evenodd"/><path d="M1252.83 1730.77 1252.83 1810.32" stroke="#000000" stroke-width="4.58333" stroke-linejoin="round" stroke-miterlimit="10" fill="none" fill-rule="evenodd"/><path d="M1329.49 1730.77 1329.49 1810.32" stroke="#000000" stroke-width="4.58333" stroke-linejoin="round" stroke-miterlimit="10" fill="none" fill-rule="evenodd"/><path d="M1176.17 1730.77 1176.17 1810.32" stroke="#000000" stroke-width="4.58333" stroke-linejoin="round" stroke-miterlimit="10" fill="none" fill-rule="evenodd"/><path d="M1406.15 1730.77 1406.15 1810.32" stroke="#000000" stroke-width="4.58333" stroke-linejoin="round" stroke-miterlimit="10" fill="none" fill-rule="evenodd"/><path d="M1173.88 1733.06 1408.44 1733.06" stroke="#000000" stroke-width="4.58333" stroke-linejoin="round" stroke-miterlimit="10" fill="none" fill-rule="evenodd"/><path d="M1173.88 1808.03 1408.44 1808.03" stroke="#000000" stroke-width="4.58333" stroke-linejoin="round" stroke-miterlimit="10" fill="none" fill-rule="evenodd"/><path d="M2250 1864.5C2224.87 1864.5 2204.5 1844.35 2204.5 1819.5 2204.5 1794.65 2224.87 1774.5 2250 1774.5 2275.13 1774.5 2295.5 1794.65 2295.5 1819.5 2295.5 1844.35 2275.13 1864.5 2250 1864.5Z" stroke="#71AAE0" stroke-width="6.875" stroke-miterlimit="8" fill="none" fill-rule="evenodd"/><path d="M2247 1641.5C2221.87 1641.5 2201.5 1621.35 2201.5 1596.5 2201.5 1571.65 2221.87 1551.5 2247 1551.5 2272.13 1551.5 2292.5 1571.65 2292.5 1596.5 2292.5 1621.35 2272.13 1641.5 2247 1641.5Z" stroke="#71AAE0" stroke-width="6.875" stroke-miterlimit="8" fill="none" fill-rule="evenodd"/><path d="M2248 1414.5C2222.87 1414.5 2202.5 1394.13 2202.5 1369 2202.5 1343.87 2222.87 1323.5 2248 1323.5 2273.13 1323.5 2293.5 1343.87 2293.5 1369 2293.5 1394.13 2273.13 1414.5 2248 1414.5Z" stroke="#71AAE0" stroke-width="6.875" stroke-miterlimit="8" fill="none" fill-rule="evenodd"/><path d="M2252.5 1198.5C2227.65 1198.5 2207.5 1178.13 2207.5 1153 2207.5 1127.87 2227.65 1107.5 2252.5 1107.5 2277.35 1107.5 2297.5 1127.87 2297.5 1153 2297.5 1178.13 2277.35 1198.5 2252.5 1198.5Z" stroke="#71AAE0" stroke-width="6.875" stroke-miterlimit="8" fill="none" fill-rule="evenodd"/><rect x="2419.5" y="1261.5" width="140" height="446" stroke="#71AAE0" stroke-width="6.875" stroke-miterlimit="8" fill="none"/><text font-family="Times New Roman,Times New Roman_MSFontService,sans-serif" font-weight="700" font-size="64" transform="matrix(-1.83697e-16 -1 1 -1.83697e-16 2508.93 1618)">A</text><text font-family="Times New Roman,Times New Roman_MSFontService,sans-serif" font-weight="700" font-size="64" transform="matrix(-1.83697e-16 -1 1 -1.83697e-16 2508.93 1572)">ttention</text><rect x="2637.5" y="1232.5" width="141" height="484" stroke="#71AAE0" stroke-width="6.875" stroke-miterlimit="8" fill="none"/><text font-family="Times New Roman,Times New Roman_MSFontService,sans-serif" font-weight="700" font-size="64" transform="matrix(-1.83697e-16 -1 1 -1.83697e-16 2727.53 1654)">Dense layers</text><path d="M2851.5 1421C2851.5 1406.36 2863.36 1394.5 2878 1394.5L3004 1394.5C3018.64 1394.5 3030.5 1406.36 3030.5 1421L3030.5 1527C3030.5 1541.64 3018.64 1553.5 3004 1553.5L2878 1553.5C2863.36 1553.5 2851.5 1541.64 2851.5 1527Z" stroke="#156082" stroke-width="6.875" stroke-miterlimit="8" fill="none" fill-rule="evenodd"/><path d="M2872.5 1473.5C2872.5 1435.39 2903.17 1404.5 2941 1404.5 2978.83 1404.5 3009.5 1435.39 3009.5 1473.5 3009.5 1511.61 2978.83 1542.5 2941 1542.5 2903.17 1542.5 2872.5 1511.61 2872.5 1473.5Z" stroke="#156082" stroke-width="6.875" stroke-miterlimit="8" fill="none" fill-rule="evenodd"/><text font-family="Times New Roman,Times New Roman_MSFontService,sans-serif" font-weight="700" font-size="64" transform="matrix(1 0 0 1 2917.47 1494)">Y</text><path d="M0.304552-3.42398 3.40982-3.14778 6.754-2.26622 10.001-0.856487 13.1438 1.03421 16.1879 3.36849 19.1426 6.11864 22.0162 9.26373 24.8148 12.7868 27.5416 16.6727 30.2168 20.9376 35.2947 30.3621 40.089 41.0503 44.55 52.8492 48.6423 65.6406 52.3268 79.3044 55.5629 93.719 58.3082 108.762 60.5199 124.309 62.1545 140.238 63.1679 156.423 63.5141 172.668 63.8588 188.841 63.8529 188.699 64.8576 204.746 64.8463 204.61 66.4671 220.404 66.4508 220.271 68.6435 235.685 68.6219 235.552 71.3427 250.46 71.3151 250.324 74.5199 264.6 74.4848 264.458 78.1296 277.974 78.0847 277.822 82.1255 290.453 82.0668 290.284 86.4597 301.903 86.3807 301.712 91.0816 312.192 90.9714 311.968 95.9362 321.183 95.8221 320.987 98.3897 325.08 97.8461 324.416 103.674 329.956 98.9373 334.938 92.7957 329.1 89.9377 324.544 84.8598 315.119 80.0656 304.431 75.6046 292.632 71.5124 279.841 67.8278 266.177 64.5919 251.763 61.8465 236.72 59.6348 221.172 58.0003 205.244 56.9869 189.058 56.6407 172.814 56.296 156.641 56.3019 156.782 55.2972 140.735 55.3085 140.871 53.6877 125.078 53.704 125.211 51.5112 109.797 51.5328 109.93 48.812 95.0215 48.8397 95.1573 45.6348 80.8817 45.6699 81.0238 42.0251 67.5073 42.07 67.6597 38.0291 55.0289 38.0878 55.1972 33.6949 43.5785 33.7738 43.7697 29.073 33.2897 29.1832 33.5133 24.2183 24.2985 24.3325 24.4946 21.7648 20.4012 21.863 20.5491 19.2458 16.8194 19.368 16.983 16.7068 13.6329 16.8607 13.8135 14.161 10.8587 14.3566 11.0562 11.6239 8.51268 11.8743 8.72431 9.11405 6.60775 9.43377 6.82548 6.65157 5.15174 7.05459 5.35931 4.2559 4.1442 4.74867 4.31502 1.93897 3.57435 2.51064 3.67438-0.304552 3.42398ZM105.357 318.531 120.154 345.482 89.7152 341.149Z" fill="#156082" transform="matrix(1 0 0 -1 2295.5 1819.98)"/><path d="M0.209567-3.43111 6.16713-3.06723 12.2606-1.97381 18.2288-0.218565 24.0279 2.14575 29.6163 5.06872 34.9527 8.50216 39.9961 12.3998 44.7048 16.7171 49.0363 21.4107 52.9471 26.4383 56.3924 31.7584 59.3258 37.3301 61.6987 43.1126 63.4605 49.0642 64.5581 55.1414 64.9233 61.0815 65.2761 66.8201 65.2278 66.4201 66.2562 72.1139 66.1696 71.7491 67.8285 77.3531 67.7125 77.0238 69.9569 82.4931 69.8185 82.1968 72.6033 87.4865 72.4469 87.2194 75.7272 92.2847 75.5552 92.0426 79.2859 96.8385 79.0987 96.6178 83.2347 101.1 83.0317 100.897 87.528 105.02 87.307 104.833 92.1185 108.552 91.8765 108.381 96.9583 111.651 96.1901 111.282 101.987 113.224 99.8034 119.743 93.5995 117.665 88.0318 114.083 82.9884 110.185 78.2798 105.868 73.9482 101.174 70.0374 96.1465 66.5921 90.8263 63.6588 85.2546 61.2859 79.4721 59.524 73.5206 58.4264 67.4434 58.0613 61.5033 57.7084 55.7647 57.7567 56.1647 56.7283 50.4709 56.815 50.8357 55.1561 45.2317 55.272 45.5609 53.0276 40.0916 53.166 40.388 50.3812 35.0982 50.5376 35.3654 47.2573 30.3001 47.4294 30.5421 43.6987 25.7462 43.8858 25.9669 39.7498 21.4852 39.9528 21.6876 35.4565 17.565 35.6776 17.7512 30.866 14.0327 31.1081 14.2036 26.0262 10.934 26.293 11.0891 20.986 8.31332 21.2814 8.45043 15.7943 6.21332 16.1221 6.32804 10.4999 4.67452 10.8626 4.76014 5.15026 3.73511 5.54783 3.78276-0.209567 3.43111ZM100.138 102.009 122.985 122.585 92.8162 128.516Z" fill="#156082" transform="matrix(1 0 0 -1 2292.5 1597.08)"/><path d="M2561.5 1471.5 2563.13 1471.5 2563.13 1497.5 2561.5 1497.5ZM2564.75 1471.5 2568 1471.5 2568 1497.5 2564.75 1497.5ZM2569.63 1471.5 2614.5 1471.5 2614.5 1458.5 2640.5 1484.5 2614.5 1510.5 2614.5 1497.5 2569.63 1497.5Z" stroke="#042433" stroke-width="6.875" stroke-miterlimit="8" fill="none" fill-rule="evenodd"/><path d="M2772.5 1471.5 2774.12 1471.5 2774.12 1497.5 2772.5 1497.5ZM2775.75 1471.5 2779 1471.5 2779 1497.5 2775.75 1497.5ZM2780.62 1471.5 2824.5 1471.5 2824.5 1458.5 2850.5 1484.5 2824.5 1510.5 2824.5 1497.5 2780.62 1497.5Z" stroke="#042433" stroke-width="6.875" stroke-miterlimit="8" fill="none" fill-rule="evenodd"/><rect x="1535.5" y="1080.5" width="286" height="141" stroke="#71AAE0" stroke-width="6.875" stroke-miterlimit="8" fill="none"/><text font-family="Times New Roman,Times New Roman_MSFontService,sans-serif" font-weight="700" font-size="64" transform="matrix(1 0 0 1 1580.99 1167)">LSTM</text><rect x="1536.5" y="1305.5" width="286" height="141" stroke="#71AAE0" stroke-width="6.875" stroke-miterlimit="8" fill="none"/><text font-family="Times New Roman,Times New Roman_MSFontService,sans-serif" font-weight="700" font-size="64" transform="matrix(1 0 0 1 1582.06 1391)">LSTM</text><rect x="1536.5" y="1527.5" width="286" height="141" stroke="#71AAE0" stroke-width="6.875" stroke-miterlimit="8" fill="none"/><text font-family="Times New Roman,Times New Roman_MSFontService,sans-serif" font-weight="700" font-size="64" transform="matrix(1 0 0 1 1582.06 1614)">LSTM</text><rect x="1534.5" y="1751.5" width="285" height="141" stroke="#71AAE0" stroke-width="6.875" stroke-miterlimit="8" fill="none"/><text font-family="Times New Roman,Times New Roman_MSFontService,sans-serif" font-weight="700" font-size="64" transform="matrix(1 0 0 1 1579.12 1837)">LSTM</text><rect x="1869.5" y="1080.5" width="286" height="141" stroke="#71AAE0" stroke-width="6.875" stroke-miterlimit="8" fill="none"/><text font-family="Times New Roman,Times New Roman_MSFontService,sans-serif" font-weight="700" font-size="64" transform="matrix(1 0 0 1 1914.75 1167)">LSTM</text><rect x="1870.5" y="1305.5" width="286" height="141" stroke="#71AAE0" stroke-width="6.875" stroke-miterlimit="8" fill="none"/><text font-family="Times New Roman,Times New Roman_MSFontService,sans-serif" font-weight="700" font-size="64" transform="matrix(1 0 0 1 1915.83 1391)">LSTM</text><rect x="1870.5" y="1527.5" width="286" height="141" stroke="#71AAE0" stroke-width="6.875" stroke-miterlimit="8" fill="none"/><text font-family="Times New Roman,Times New Roman_MSFontService,sans-serif" font-weight="700" font-size="64" transform="matrix(1 0 0 1 1915.83 1614)">LSTM</text><rect x="1867.5" y="1751.5" width="286" height="141" stroke="#71AAE0" stroke-width="6.875" stroke-miterlimit="8" fill="none"/><text font-family="Times New Roman,Times New Roman_MSFontService,sans-serif" font-weight="700" font-size="64" transform="matrix(1 0 0 1 1912.89 1837)">LSTM</text><path d="M1681.94 1221.46 1682.72 1281.95 1675.84 1282.04 1675.06 1221.54ZM1692.97 1277.23 1679.58 1304.91 1665.47 1277.59Z" fill="#156082"/><path d="M1682.94 1446.5 1682.94 1504.76 1676.06 1504.76 1676.06 1446.5ZM1693.25 1500.17 1679.5 1527.67 1665.75 1500.17Z" fill="#156082"/><path d="M1683.94 1668.5 1683.94 1726.76 1677.06 1726.76 1677.06 1668.5ZM1694.25 1722.17 1680.5 1749.67 1666.75 1722.17Z" fill="#156082"/><path d="M2010.14 1304.95 2009.36 1244.46 2016.23 1244.37 2017.02 1304.86ZM1999.11 1249.18 2012.5 1221.5 2026.6 1248.82Z" fill="#156082"/><path d="M2008.14 1525.95 2007.36 1465.46 2014.23 1465.37 2015.02 1525.86ZM1997.11 1470.18 2010.5 1442.5 2024.6 1469.82Z" fill="#156082"/><path d="M2008.14 1746.95 2007.36 1686.46 2014.23 1686.37 2015.02 1746.86ZM1997.11 1691.18 2010.5 1663.5 2024.6 1690.82Z" fill="#156082"/><path d="M2155.54 1148.06 2184.52 1148.38 2184.44 1155.25 2155.46 1154.94ZM2180.86 1137.78 2207.34 1153.4 2178.96 1165.22Z" fill="#156082"/><path d="M2155.5 1365.06 2179.81 1365.09 2179.8 1371.96 2155.5 1371.94ZM2175.3 1354.75 2202.72 1368.66 2175.14 1382.25Z" fill="#156082"/><path d="M0.0330451-3.43734 22.7697-3.21876 22.7036 3.65592-0.0330451 3.43734ZM18.8143-13.7344 45.6273 1.31148 17.5028 13.7344Z" fill="#156082" transform="matrix(1 0 0 -1 2156.5 1597.81)"/><path d="M0.0410316-3.43726 28.5854-3.09651 28.5033 3.778-0.0410316 3.43726ZM24.9959-13.7119 51.3976 2.04446 22.9514 13.7119Z" fill="#156082" transform="matrix(1 0 0 -1 2153.5 1821.54)"/><path d="M0-3.4375 26.5744-3.4375 26.5744 94.7037 23.1369 91.2662 431.5 91.2662 428.062 94.7037 428.062 59.334 434.937 59.334 434.937 98.1412 19.6994 98.1412 19.6994 0 23.1369 3.4375 0 3.4375ZM417.75 63.9173 431.5 36.4173 445.25 63.9173Z" fill="#156082" transform="matrix(1 0 0 -1 1820.5 1143.92)"/><path d="M0-3.4375 26.9276-3.4375 26.9276 103.08 23.4901 99.6422 425.544 99.6422 422.107 103.08 422.107 74.8989 428.982 74.8989 428.982 106.517 20.0526 106.517 20.0526 0 23.4901 3.4375 0 3.4375ZM411.794 79.4822 425.544 51.9822 439.294 79.4822Z" fill="#156082" transform="matrix(1 0 0 -1 1822.5 1375.48)"/><path d="M0-3.4375 33.1311-3.4375 33.1311 106.413 29.6936 102.976 424.619 102.976 421.181 106.413 421.181 69.4548 428.056 69.4548 428.056 109.851 26.2561 109.851 26.2561 0 29.6936 3.4375 0 3.4375ZM410.869 74.0382 424.619 46.5382 438.369 74.0382Z" fill="#156082" transform="matrix(1 0 0 -1 1822.5 1598.04)"/><path d="M0-3.4375 26.9653-3.4375 26.9653 79.3588 23.5278 75.9213 425.612 75.9213 422.174 79.3588 422.174 39.7754 429.049 39.7754 429.049 82.7963 20.0903 82.7963 20.0903 0 23.5278 3.4375 0 3.4375ZM411.862 44.3587 425.612 16.8587 439.362 44.3587Z" fill="#156082" transform="matrix(1 0 0 -1 1824.5 1791.36)"/><path d="M1436.5 1175.5 1438.12 1175.5 1438.12 1201.5 1436.5 1201.5ZM1439.75 1175.5 1443 1175.5 1443 1201.5 1439.75 1201.5ZM1444.62 1175.5 1489.5 1175.5 1489.5 1162.5 1515.5 1188.5 1489.5 1214.5 1489.5 1201.5 1444.62 1201.5Z" stroke="#042433" stroke-width="6.875" stroke-miterlimit="8" fill="none" fill-rule="evenodd"/><path d="M1437.5 1367.5 1439.13 1367.5 1439.13 1393.5 1437.5 1393.5ZM1440.75 1367.5 1444 1367.5 1444 1393.5 1440.75 1393.5ZM1445.63 1367.5 1490.5 1367.5 1490.5 1354.5 1516.5 1380.5 1490.5 1406.5 1490.5 1393.5 1445.63 1393.5Z" stroke="#042433" stroke-width="6.875" stroke-miterlimit="8" fill="none" fill-rule="evenodd"/><path d="M1434.5 1563.5 1436.12 1563.5 1436.12 1589.5 1434.5 1589.5ZM1437.75 1563.5 1441 1563.5 1441 1589.5 1437.75 1589.5ZM1442.62 1563.5 1486.5 1563.5 1486.5 1550.5 1512.5 1576.5 1486.5 1602.5 1486.5 1589.5 1442.62 1589.5Z" stroke="#042433" stroke-width="6.875" stroke-miterlimit="8" fill="none" fill-rule="evenodd"/><path d="M1435.5 1767.5 1437.12 1767.5 1437.12 1793.5 1435.5 1793.5ZM1438.75 1767.5 1442 1767.5 1442 1793.5 1438.75 1793.5ZM1443.62 1767.5 1488.5 1767.5 1488.5 1754.5 1514.5 1780.5 1488.5 1806.5 1488.5 1793.5 1443.62 1793.5Z" stroke="#042433" stroke-width="6.875" stroke-miterlimit="8" fill="none" fill-rule="evenodd"/><path d="M1253.12 201.5 1253.12 278.648 1094 278.648 1097.44 275.21 1097.44 1183.92 1094 1180.48 1153.58 1180.48 1153.58 1187.36 1090.56 1187.36 1090.56 271.773 1249.69 271.773 1246.25 275.21 1246.25 201.5ZM1149 1170.17 1176.5 1183.92 1149 1197.67Z" fill="#156082"/><path d="M1246.19 644.5 1246.19 752.303 1135.25 752.303 1138.69 748.865 1138.69 1770.71 1135.25 1767.27 1153.58 1767.27 1153.58 1774.15 1131.81 1774.15 1131.81 745.428 1242.75 745.428 1239.32 748.865 1239.32 644.5ZM1149 1756.96 1176.5 1770.71 1149 1784.46Z" fill="#156082"/><path d="M0-3.4375 948.919-3.4375 948.919 858.907 885.897 858.907 885.897 852.032 945.482 852.032 942.044 855.469 942.044 0 945.482 3.4375 0 3.4375ZM890.481 869.219 862.981 855.469 890.481 841.719Z" fill="#156082" transform="matrix(-1 1.22465e-16 1.22465e-16 1 2039.48 328.5)"/><rect x="-50.5" y="2255.5" width="3166" height="637" stroke="#042433" stroke-width="6.875" stroke-miterlimit="8" fill="none"/><path d="M1728.25 2188 1728.25 2190.72 1684.75 2190.72 1684.75 2188ZM1728.25 2193.44 1728.25 2198.88 1684.75 2198.88 1684.75 2193.44ZM1728.25 2201.59 1728.25 2255.5 1750 2255.5 1706.5 2299 1663 2255.5 1684.75 2255.5 1684.75 2201.59Z" fill="#83CBEB" fill-rule="evenodd"/><text font-family="Times New Roman,Times New Roman_MSFontService,sans-serif" font-weight="700" font-size="83" transform="matrix(1 0 0 1 27.762 2394)">Evaluation</text><text font-family="Times New Roman,Times New Roman_MSFontService,sans-serif" font-weight="700" font-size="83" transform="matrix(1 0 0 1 1750.17 2396)">W</text><text font-family="Times New Roman,Times New Roman_MSFontService,sans-serif" font-weight="700" font-size="83" transform="matrix(1 0 0 1 1828.11 2396)">eb</text><text font-family="Times New Roman,Times New Roman_MSFontService,sans-serif" font-weight="700" font-size="83" transform="matrix(1 0 0 1 1931.24 2396)">server</text><g><g><g><path d="M92.5 64.75 64.75 64.75 64.75 379.25 379.25 379.25 379.25 351.5 92.5 351.5Z" fill="#84E291" transform="matrix(1 0 0 1.00225 1049 2361)"/><path d="M120.25 161.875 171.125 161.875 171.125 323.75 120.25 323.75Z" fill="#84E291" transform="matrix(1 0 0 1.00225 1049 2361)"/><path d="M189.625 64.75 240.5 64.75 240.5 323.75 189.625 323.75Z" fill="#84E291" transform="matrix(1 0 0 1.00225 1049 2361)"/><path d="M259 161.875 309.875 161.875 309.875 323.75 259 323.75Z" fill="#84E291" transform="matrix(1 0 0 1.00225 1049 2361)"/><path d="M328.375 240.5 379.25 240.5 379.25 323.75 328.375 323.75Z" fill="#84E291" transform="matrix(1 0 0 1.00225 1049 2361)"/></g></g></g><g><g><g><path d="M74.1341 69.375 64.8841 69.375 64.8841 383.875 379.25 383.875 379.25 374.625 74.1341 374.625 74.1341 69.375Z" fill="#96DCF8" transform="matrix(1 0 0 1.00225 481 2361)"/><path d="M134.264 333C144.45 333.02 152.725 324.779 152.745 314.593 152.757 308.772 150.021 303.288 145.364 299.797L185.509 175.713C188.174 175.65 190.794 175.008 193.186 173.831L264.088 227.855C262.185 237.894 268.78 247.574 278.818 249.477 288.857 251.38 298.537 244.785 300.44 234.746 300.659 233.594 300.767 232.423 300.764 231.25 300.75 225.629 298.165 220.324 293.748 216.848L327.228 120.121C327.663 120.153 328.074 120.25 328.514 120.25 338.767 120.286 347.107 112.003 347.143 101.75 347.179 91.4973 338.897 83.1566 328.643 83.1205 318.391 83.0849 310.05 91.3678 310.014 101.621 309.992 107.917 313.163 113.795 318.436 117.235L285.27 213.051C284.278 212.87 283.273 212.77 282.264 212.75 276.834 212.764 271.688 215.181 268.208 219.35L200.401 167.689C206.231 159.276 204.136 147.73 195.724 141.901 187.31 136.071 175.765 138.166 169.936 146.579 164.106 154.992 166.2 166.538 174.613 172.367 175.223 172.789 175.857 173.174 176.513 173.521L136.803 296.254C126.706 294.833 117.368 301.866 115.946 311.963 114.524 322.06 121.557 331.398 131.654 332.82 132.519 332.941 133.391 333.002 134.264 333Z" fill="#96DCF8" transform="matrix(1 0 0 1.00225 481 2361)"/></g></g></g><g><g><g><path d="M2737.62 2365.6 2297.38 2365.6C2283.88 2365.64 2272.96 2376.57 2272.92 2390.06L2272.92 2683.65C2272.96 2697.14 2283.89 2708.07 2297.38 2708.11L2474.7 2708.11 2474.7 2769.26 2407.44 2769.26 2407.44 2781.49 2627.56 2781.49 2627.56 2769.26 2560.3 2769.26 2560.3 2708.11 2737.62 2708.11C2751.11 2708.07 2762.04 2697.14 2762.08 2683.65L2762.08 2390.06C2762.04 2376.57 2751.12 2365.64 2737.62 2365.6ZM2548.07 2769.28 2486.93 2769.28 2486.93 2708.14 2548.07 2708.14ZM2749.85 2683.68C2749.85 2690.43 2744.38 2695.91 2737.62 2695.91L2297.38 2695.91C2290.62 2695.91 2285.15 2690.43 2285.15 2683.68L2285.15 2390.06C2285.15 2383.31 2290.62 2377.83 2297.38 2377.83L2737.62 2377.83C2744.38 2377.83 2749.85 2383.31 2749.85 2390.06Z"/><path d="M2315.72 2396.18 2303.49 2396.18 2303.49 2677.53 2731.51 2677.53 2731.51 2396.18 2315.72 2396.18ZM2719.28 2665.3 2315.72 2665.3 2315.72 2408.41 2719.28 2408.41Z"/></g></g></g><g><g><g><path d="M122.917 22.8437C122.546 22.2009 121.724 21.9802 121.081 22.351 121.081 22.3514 121.08 22.3517 121.08 22.3519L106.148 30.9748C102.707 26.1527 96.0091 25.0331 91.1871 28.4738 90.4128 29.0263 89.7155 29.6794 89.1134 30.4158L74.3093 21.8655C76.0057 16.1759 72.7686 10.1885 67.079 8.49212 61.3894 6.79577 55.402 10.0329 53.7056 15.7224 53.108 17.7266 53.108 19.8614 53.7056 21.8655L38.8773 30.4225C35.1275 25.8195 28.3562 25.1278 23.7533 28.8776 19.1503 32.6274 18.4585 39.3987 22.2084 44.0017 23.8902 46.0663 26.2786 47.4331 28.9108 47.8375L28.9108 65.0375C23.0613 65.9293 19.0424 71.3942 19.9342 77.2437 20.0842 78.2263 20.37 79.1835 20.7838 80.0874L5.375 88.979C4.72985 89.3459 4.50421 90.1662 4.87101 90.8114 5.23781 91.4565 6.05816 91.6821 6.70331 91.3153 6.70848 91.3124 6.71362 91.3094 6.71874 91.3064L22.1907 82.3718C25.8947 86.9974 32.6473 87.7444 37.2729 84.0403 37.8621 83.5686 38.3999 83.0358 38.8773 82.4511L53.7002 91.0081C52.0071 96.6823 55.2345 102.655 60.9088 104.348 61.4805 104.519 62.0655 104.641 62.6577 104.714L62.6577 122.281C62.6577 123.023 63.2593 123.625 64.0014 123.625 64.7436 123.625 65.3452 123.023 65.3452 122.281L65.3452 104.72C71.2238 103.99 75.398 98.6335 74.6686 92.7548 74.5955 92.1653 74.4735 91.5828 74.3039 91.0135L89.1134 82.4632C92.8713 87.0596 99.6438 87.7393 104.24 83.9814 108.837 80.2234 109.516 73.4509 105.758 68.8546 104.083 66.8049 101.709 65.4457 99.0934 65.0375L99.0934 47.8375C104.939 46.933 108.944 41.4614 108.04 35.6161 107.919 34.837 107.713 34.0736 107.425 33.3398L122.417 24.6833C123.062 24.3166 123.288 23.4963 122.921 22.851 122.92 22.8486 122.918 22.8462 122.917 22.8437ZM64.0014 10.75C68.4542 10.75 72.0639 14.3597 72.0639 18.8125 72.0639 23.2653 68.4542 26.875 64.0014 26.875 59.5486 26.875 55.9389 23.2653 55.9389 18.8125 55.9434 14.3616 59.5505 10.7544 64.0014 10.75ZM22.5011 37.2218C22.5011 32.7691 26.1108 29.1594 30.5636 29.1594 35.0163 29.1594 38.6261 32.7691 38.6261 37.2218 38.6261 41.6746 35.0163 45.2843 30.5636 45.2843 26.1155 45.2792 22.5099 41.6766 22.5011 37.2286ZM30.5636 83.7021C26.1108 83.7021 22.5011 80.0924 22.5011 75.6396 22.5011 71.1868 26.1108 67.5771 30.5636 67.5771 35.0163 67.5771 38.6261 71.1868 38.6261 75.6396 38.6283 80.0955 35.0194 83.7103 30.5636 83.7156ZM64.0014 102.125C59.5486 102.125 55.9389 98.5152 55.9389 94.0624 55.9389 89.6096 59.5486 85.9999 64.0014 85.9999 68.4542 85.9999 72.0639 89.6096 72.0639 94.0624 72.0587 98.5131 68.452 102.12 64.0014 102.125ZM73.2074 88.5396C70.1738 83.4559 63.5935 81.7943 58.5098 84.8279 56.9841 85.7384 55.7086 87.0139 54.7981 88.5396L40.3017 80.1707C42.8132 74.8083 40.5021 68.4252 35.1397 65.9136 34.0235 65.3909 32.8254 65.0645 31.5983 64.9488L31.5983 47.9262C37.4936 47.3705 41.8223 42.1409 41.2665 36.2456 41.151 35.0184 40.8246 33.8204 40.3017 32.7042L54.7967 24.3353C57.8304 29.419 64.4107 31.0806 69.4944 28.047 71.0201 27.1365 72.2956 25.861 73.2061 24.3353L87.6863 32.6948C85.1706 38.0552 87.4766 44.4402 92.8371 46.956 93.9611 47.4835 95.1682 47.8118 96.4046 47.9262L96.4046 64.9488C90.5083 65.4943 86.1706 70.7164 86.7161 76.6126 86.8305 77.849 87.1588 79.0561 87.6863 80.1802ZM105.484 75.6531C105.484 80.1059 101.875 83.7156 97.4218 83.7156 92.969 83.7156 89.3593 80.1059 89.3593 75.6531 89.3593 71.2003 92.969 67.5906 97.4218 67.5906 101.873 67.595 105.48 71.2022 105.484 75.6531ZM97.4218 45.2978C92.969 45.2978 89.3593 41.6881 89.3593 37.2353 89.3593 32.7825 92.969 29.1728 97.4218 29.1728 101.875 29.1728 105.484 32.7825 105.484 37.2353 105.475 41.6834 101.87 45.2858 97.4218 45.2911Z" transform="matrix(1 0 0 1 2565 2504)"/></g></g></g><g><g><g><path d="M390.576 75.4375 35.0163 75.4375 35.0163 350.674 390.576 350.674ZM381.701 341.799 43.8913 341.799 43.8913 146.438 381.701 146.438ZM381.701 137.563 43.8913 137.563 43.8913 84.3126 381.701 84.3126Z" transform="matrix(1.16667 0 0 1 2270 2327)"/><path d="M288.438 110.938C288.438 115.839 284.464 119.813 279.563 119.813 274.661 119.813 270.688 115.839 270.688 110.938 270.688 106.036 274.661 102.063 279.563 102.063 284.464 102.063 288.438 106.036 288.438 110.938Z" transform="matrix(1.16667 0 0 1 2270 2327)"/><path d="M319.5 110.938C319.5 115.839 315.527 119.813 310.625 119.813 305.724 119.813 301.75 115.839 301.75 110.938 301.75 106.036 305.724 102.063 310.625 102.063 315.527 102.063 319.5 106.036 319.5 110.938Z" transform="matrix(1.16667 0 0 1 2270 2327)"/><path d="M350.563 110.938C350.563 115.839 346.589 119.813 341.688 119.813 336.786 119.813 332.813 115.839 332.813 110.938 332.813 106.036 336.786 102.063 341.688 102.063 346.589 102.063 350.563 106.036 350.563 110.938Z" transform="matrix(1.16667 0 0 1 2270 2327)"/><path d="M101.144 269.769 107.419 276.044 152.712 230.75 105.2 183.238 98.9252 189.512 140.163 230.75 101.144 269.769Z" transform="matrix(1.16667 0 0 1 2270 2327)"/><path d="M168.625 266.25 239.625 266.25 239.625 275.125 168.625 275.125Z" transform="matrix(1.16667 0 0 1 2270 2327)"/></g></g></g></g></svg>